<?xml version="1.0" encoding="utf-8"?>
<!-- Generator: Adobe Illustrator 16.0.0, SVG Export Plug-In . SVG Version: 6.00 Build 0)  -->
<!DOCTYPE svg PUBLIC "-//W3C//DTD SVG 1.1//EN" "http://www.w3.org/Graphics/SVG/1.1/DTD/svg11.dtd">
<svg version="1.1" xmlns="http://www.w3.org/2000/svg" xmlns:xlink="http://www.w3.org/1999/xlink" x="0px" y="0px" width="24px"
	 height="24px" viewBox="0 0 24 24" enable-background="new 0 0 24 24" xml:space="preserve">
<g id="Layer_1">
	<g id="CScKXY_1_">
		<g>
			<path fill="#BBBDBF" d="M1630.585,424.154c0.892,0.3,1.784,0.594,2.673,0.901c0.808,0.28,1.534,0.14,2.282-0.268
				c1.166-0.636,2.344-1.267,3.575-1.749c1.101-0.43,2.168-0.164,3.075,0.668c-1.062,0.627-2.107,1.217-3.123,1.854
				c-1.126,0.705-1.552,1.825-1.183,2.961c0.438,1.344,1.852,2.049,3.159,1.527c0.888-0.355,1.744-0.788,2.617-1.182
				c0.87-0.393,1.426-0.289,2.111,0.395c1.461,1.459,2.919,2.92,4.378,4.381c0.069,0.068,0.142,0.135,0.204,0.209
				c0.422,0.5,0.428,1.121,0.019,1.543c-0.405,0.416-1.051,0.439-1.538,0.014c-0.489-0.428-0.943-0.895-1.418-1.338
				c-0.137-0.127-0.29-0.233-0.521-0.269c0.148,0.198,0.285,0.407,0.446,0.595c0.382,0.443,0.788,0.865,1.161,1.315
				c0.416,0.501,0.403,1.091,0.001,1.503c-0.394,0.404-1.011,0.439-1.502,0.035c-0.64-0.525-1.249-1.088-1.877-1.629
				c-0.17-0.146-0.358-0.272-0.627-0.332c0.101,0.125,0.188,0.262,0.303,0.373c0.499,0.488,1.017,0.959,1.505,1.457
				c0.436,0.445,0.49,0.96,0.193,1.416c-0.276,0.43-0.805,0.629-1.272,0.424c-0.243-0.107-0.458-0.303-0.655-0.49
				c-0.574-0.542-1.135-1.1-1.7-1.651c-0.041,0.036-0.083,0.071-0.124,0.106c0.239,0.289,0.475,0.58,0.716,0.865
				c0.262,0.311,0.556,0.596,0.788,0.926c0.315,0.449,0.236,1.021-0.143,1.377c-0.375,0.353-0.951,0.398-1.383,0.068
				c-0.412-0.312-0.739-0.635-0.725-1.268c0.022-0.971-0.513-1.671-1.384-2.122c-0.192-0.099-0.371-0.3-0.462-0.497
				c-0.261-0.572-0.653-0.99-1.205-1.287c-0.181-0.098-0.323-0.287-0.451-0.457c-0.175-0.23-0.264-0.57-0.485-0.714
				c-0.689-0.442-1.125-1.091-1.646-1.692c-1.097-1.263-3.388-0.864-4.205,0.646c-0.077,0.141-0.145,0.287-0.22,0.438
				c-0.465-0.127-0.911-0.25-1.357-0.373C1630.585,429.94,1630.585,427.047,1630.585,424.154z"/>
			<path fill="#BBBDBF" d="M1655.53,425.015c0,2.508,0,4.989,0,7.536c-0.937,0.152-1.872,0.338-2.816,0.445
				c-0.561,0.064-1.022-0.225-1.423-0.623c-1.603-1.592-3.214-3.174-4.82-4.76c-0.752-0.741-1.287-0.843-2.234-0.371
				c-1.046,0.521-2.074,1.076-3.119,1.598c-0.796,0.398-1.453,0.304-1.956-0.242c-0.517-0.562-0.511-1.291,0.039-1.827
				c0.183-0.179,0.4-0.333,0.624-0.46c1.874-1.07,3.761-2.119,5.63-3.199c0.83-0.479,1.588-0.479,2.333,0.154
				c0.829,0.704,1.689,1.373,2.497,2.101c0.502,0.452,1.031,0.552,1.662,0.404c1.058-0.247,2.12-0.474,3.183-0.706
				C1655.252,425.037,1655.381,425.033,1655.53,425.015z"/>
			<path fill="#BBBDBF" d="M1639.094,437.732c0.268,0,0.499-0.035,0.716,0.006c1.015,0.192,1.399,1.426,0.705,2.266
				c-0.454,0.549-1.066,0.789-1.769,0.764c-0.829-0.03-1.239-0.662-0.966-1.449c0.057-0.163,0.115-0.324,0.178-0.498
				c-1.842,0.256-2.118-0.007-1.741-1.678c-0.529,0.061-1.071,0.379-1.546-0.129c-0.451-0.48-0.259-0.984-0.03-1.555
				c-0.261,0.05-0.442,0.085-0.624,0.119c-0.675,0.129-1.197-0.248-1.273-0.919c-0.098-0.845,0.722-1.954,1.554-2.104
				c0.994-0.18,1.646,0.498,1.593,1.549c0.45,0.18,0.967,0.25,1.26,0.542c0.28,0.279,0.331,0.791,0.505,1.257
				C1638.912,436.084,1639.286,436.514,1639.094,437.732z"/>
		</g>
	</g>
	<g id="CScKXY_2_">
		<g>
			<path fill="#BBBDBF" d="M1630.585,424.154c0.892,0.3,1.784,0.594,2.673,0.901c0.808,0.28,1.534,0.14,2.282-0.268
				c1.166-0.636,2.344-1.267,3.575-1.749c1.101-0.43,2.168-0.164,3.075,0.668c-1.062,0.627-2.107,1.217-3.123,1.854
				c-1.126,0.705-1.552,1.825-1.183,2.961c0.438,1.344,1.852,2.049,3.159,1.527c0.888-0.355,1.744-0.788,2.617-1.182
				c0.87-0.393,1.426-0.289,2.111,0.395c1.461,1.459,2.919,2.92,4.378,4.381c0.069,0.068,0.142,0.135,0.204,0.209
				c0.422,0.5,0.428,1.121,0.019,1.543c-0.405,0.416-1.051,0.439-1.538,0.014c-0.489-0.428-0.943-0.895-1.418-1.338
				c-0.137-0.127-0.29-0.233-0.521-0.269c0.148,0.198,0.285,0.407,0.446,0.595c0.382,0.443,0.788,0.865,1.161,1.315
				c0.416,0.501,0.403,1.091,0.001,1.503c-0.394,0.404-1.011,0.439-1.502,0.035c-0.64-0.525-1.249-1.088-1.877-1.629
				c-0.17-0.146-0.358-0.272-0.627-0.332c0.101,0.125,0.188,0.262,0.303,0.373c0.499,0.488,1.017,0.959,1.505,1.457
				c0.436,0.445,0.49,0.96,0.193,1.416c-0.276,0.43-0.805,0.629-1.272,0.424c-0.243-0.107-0.458-0.303-0.655-0.49
				c-0.574-0.542-1.135-1.1-1.7-1.651c-0.041,0.036-0.083,0.071-0.124,0.106c0.239,0.289,0.475,0.58,0.716,0.865
				c0.262,0.311,0.556,0.596,0.788,0.926c0.315,0.449,0.236,1.021-0.143,1.377c-0.375,0.353-0.951,0.398-1.383,0.068
				c-0.412-0.312-0.739-0.635-0.725-1.268c0.022-0.971-0.513-1.671-1.384-2.122c-0.192-0.099-0.371-0.3-0.462-0.497
				c-0.261-0.572-0.653-0.99-1.205-1.287c-0.181-0.098-0.323-0.287-0.451-0.457c-0.175-0.23-0.264-0.57-0.485-0.714
				c-0.689-0.442-1.125-1.091-1.646-1.692c-1.097-1.263-3.388-0.864-4.205,0.646c-0.077,0.141-0.145,0.287-0.22,0.438
				c-0.465-0.127-0.911-0.25-1.357-0.373C1630.585,429.94,1630.585,427.047,1630.585,424.154z"/>
			<path fill="#BBBDBF" d="M1655.53,425.015c0,2.508,0,4.989,0,7.536c-0.937,0.152-1.872,0.338-2.816,0.445
				c-0.561,0.064-1.022-0.225-1.423-0.623c-1.603-1.592-3.214-3.174-4.82-4.76c-0.752-0.741-1.287-0.843-2.234-0.371
				c-1.046,0.521-2.074,1.076-3.119,1.598c-0.796,0.398-1.453,0.304-1.956-0.242c-0.517-0.562-0.511-1.291,0.039-1.827
				c0.183-0.179,0.4-0.333,0.624-0.46c1.874-1.07,3.761-2.119,5.63-3.199c0.83-0.479,1.588-0.479,2.333,0.154
				c0.829,0.704,1.689,1.373,2.497,2.101c0.502,0.452,1.031,0.552,1.662,0.404c1.058-0.247,2.12-0.474,3.183-0.706
				C1655.252,425.037,1655.381,425.033,1655.53,425.015z"/>
			<path fill="#BBBDBF" d="M1639.094,437.732c0.268,0,0.499-0.035,0.716,0.006c1.015,0.192,1.399,1.426,0.705,2.266
				c-0.454,0.549-1.066,0.789-1.769,0.764c-0.829-0.03-1.239-0.662-0.966-1.449c0.057-0.163,0.115-0.324,0.178-0.498
				c-1.842,0.256-2.118-0.007-1.741-1.678c-0.529,0.061-1.071,0.379-1.546-0.129c-0.451-0.48-0.259-0.984-0.03-1.555
				c-0.261,0.05-0.442,0.085-0.624,0.119c-0.675,0.129-1.197-0.248-1.273-0.919c-0.098-0.845,0.722-1.954,1.554-2.104
				c0.994-0.18,1.646,0.498,1.593,1.549c0.45,0.18,0.967,0.25,1.26,0.542c0.28,0.279,0.331,0.791,0.505,1.257
				C1638.912,436.084,1639.286,436.514,1639.094,437.732z"/>
		</g>
	</g>
	<path fill-rule="evenodd" clip-rule="evenodd" fill="#BBBDBF" d="M52.062,4.125h7.875V3.251h-7.875V4.125z M49.876,17.251
		c-0.728,0-1.312-0.587-1.312-1.313c0-0.729,0.585-1.312,1.312-1.312c0.725,0,1.312,0.584,1.312,1.312
		C51.188,16.664,50.601,17.251,49.876,17.251z M62.124,17.251c-0.726,0-1.312-0.587-1.312-1.313c0-0.729,0.587-1.312,1.312-1.312
		c0.728,0,1.311,0.584,1.311,1.312C63.435,16.664,62.852,17.251,62.124,17.251z M66.06,7.188c0-0.241-0.193-0.438-0.434-0.438
		h-0.438v4.376h0.438c0.24,0,0.434-0.198,0.434-0.438V7.188z M64.313,5.438H47.687v7.001h16.627V5.438z M49.876,20.971
		c0,0.361,0.292,0.655,0.656,0.655h0.434c0.366,0,0.658-0.294,0.658-0.655v-1.969h-1.748V20.971z M60.376,20.971
		c0,0.361,0.292,0.655,0.656,0.655h0.434c0.366,0,0.658-0.294,0.658-0.655v-1.969h-1.748V20.971z M46.812,6.75h-0.438
		c-0.24,0-0.436,0.197-0.436,0.438v3.499c0,0.24,0.195,0.438,0.436,0.438h0.438V6.75z M65.844,11.562h-0.656v4.814
		c0,1.298-0.95,2.37-2.187,2.581v2.014c0,0.842-0.688,1.529-1.535,1.529h-0.434c-0.846,0-1.535-0.688-1.535-1.529v-1.969h-6.996
		v1.969c0,0.842-0.688,1.529-1.535,1.529h-0.434c-0.846,0-1.535-0.688-1.535-1.529v-2.014c-1.234-0.211-2.185-1.283-2.185-2.581
		v-4.814h-0.656c-0.362,0-0.656-0.29-0.656-0.656V6.968c0-0.362,0.294-0.656,0.656-0.656h0.656V4.125
		c0-1.447,1.177-2.625,2.625-2.625h13.125c1.446,0,2.625,1.178,2.625,2.625v2.187h0.656c0.362,0,0.656,0.294,0.656,0.656v3.938
		C66.5,11.271,66.206,11.562,65.844,11.562z"/>
	<g>
		<path fill="#BBBDBF" d="M-120.002,22c-5.514,0-10-4.485-10-9.998c0-5.516,4.486-10.002,10-10.002
			c5.516,0,10.004,4.486,10.004,10.002C-109.998,17.515-114.486,22-120.002,22z M-120.002,4c-4.41,0-8,3.59-8,8.002
			c0,4.41,3.59,7.998,8,7.998c4.414,0,8.004-3.588,8.004-7.998C-111.998,7.59-115.588,4-120.002,4z"/>
		<path fill="#BBBDBF" d="M-119.627,11.131v-2.22c1.297,0.021,1.283,1.272,2.043,1.272c0.398,0,0.74-0.267,0.74-0.724
			c0-1.147-1.871-1.718-2.783-1.744V7.094c0-0.197-0.152-0.396-0.352-0.396s-0.35,0.198-0.35,0.396v0.622
			c-1.457,0.048-2.781,0.867-2.781,2.455c0,1.297,1.047,2.06,2.781,2.374v2.444c-1.947-0.08-0.926-1.694-2.234-1.694
			c-0.438,0-0.725,0.272-0.725,0.736c0,0.926,0.98,2.107,2.959,2.15v0.724c0,0.2,0.15,0.399,0.35,0.399s0.352-0.199,0.352-0.399
			v-0.724c1.742-0.103,2.914-0.899,2.914-2.468C-116.713,11.92-118.082,11.463-119.627,11.131L-119.627,11.131z M-120.328,11.006
			c-0.877-0.176-1.314-0.514-1.314-1.103c0-0.501,0.516-0.971,1.314-0.992V11.006z M-119.627,14.989v-2.314
			c0.633,0.14,1.439,0.372,1.439,1.169C-118.188,14.614-118.924,14.944-119.627,14.989L-119.627,14.989z M-119.627,14.989"/>
	</g>
	<g>
		<g>
			<g>
				<path fill="#BBBDBF" d="M-76.008,11.826c2.08,0,4.023,0.068,5.33,0.189l0.135,0.012V19.5h-10.914v-7.473l0.146-0.014
					C-80.01,11.895-78.076,11.826-76.008,11.826 M-75.994,2.5c-4.088,0-7.404,3.771-7.445,7.937
					c-0.012,0.017-0.018,0.032-0.018,0.049v9.423c0,0.88,0.727,1.592,1.627,1.592h11.66c0.9,0,1.627-0.712,1.627-1.592v-9.423
					c0-0.007-0.002-0.013-0.004-0.021C-68.574,6.287-71.896,2.5-75.994,2.5L-75.994,2.5z M-81.492,10.021
					c0.242-2.921,2.611-5.555,5.498-5.555c2.889,0,5.256,2.635,5.5,5.557c-1.432-0.132-3.475-0.197-5.514-0.197
					C-78.039,9.826-80.066,9.891-81.492,10.021L-81.492,10.021z"/>
				<g>
					<path fill="#BBBDBF" d="M-75.938,12.641c-0.918,0-1.662,0.745-1.662,1.662c0,0.701,0.434,1.298,1.045,1.543v1.534
						c0,0.325,0.264,0.588,0.59,0.588c0.324,0,0.588-0.263,0.588-0.588v-1.515c0.641-0.229,1.102-0.842,1.102-1.562
						C-74.275,13.386-75.02,12.641-75.938,12.641L-75.938,12.641z"/>
				</g>
			</g>
		</g>
	</g>
	<g>
		<path fill="#BBBDBF" d="M-25.238,15.596h-17.096v1.271h17.096c1.27,0,2.301,1.034,2.301,2.301c0,1.27-1.031,2.302-2.301,2.302
			h-17.096v1.271h17.096c1.967,0,3.572-1.604,3.572-3.573C-21.666,17.199-23.271,15.596-25.238,15.596z"/>
		<path fill="#BBBDBF" d="M-23.838,19.235c0-0.768-0.621-1.39-1.387-1.39H-41.18v2.776h15.955
			C-24.459,20.622-23.838,20-23.838,19.235z"/>
		<path fill="#BBBDBF" d="M-37.686,9.421c0,2.647,1.695,4.8,3.781,4.8h3.717c2.137,0,3.875-2.153,3.875-4.8
			c0-2.646-1.738-4.798-3.875-4.798c-0.35,0-0.697,0.061-1.033,0.178c0.258-0.982,0.867-1.26,0.9-1.273
			c0.416-0.167,0.621-0.641,0.457-1.053c-0.158-0.408-0.672-0.615-1.053-0.469c-0.055,0.02-0.955,0.38-1.547,1.506
			c-0.148-0.451-0.445-0.925-0.891-1.352c-0.961-0.924-2.246-1.182-2.83-0.566c-0.215,0.224-0.324,0.526-0.316,0.876
			c0.012,0.614,0.389,1.335,1.006,1.925c0.174,0.168,0.361,0.31,0.551,0.436C-36.521,5.407-37.686,7.236-37.686,9.421z M-35.5,2.45
			c-0.002-0.076,0.012-0.136,0.039-0.164c0.027-0.027,0.092-0.045,0.176-0.045c0.264,0,0.746,0.168,1.24,0.643
			c0.672,0.645,0.768,1.271,0.656,1.388s-0.766,0.024-1.414-0.597C-35.277,3.219-35.494,2.732-35.5,2.45z M-33.904,5.624
			c0.402,0,0.795,0.12,1.17,0.356l0.389,0.245l-0.008,0.448l0.336-0.241L-32,6.443l0.457-0.354c0.426-0.309,0.883-0.465,1.355-0.465
			c1.584,0,2.875,1.703,2.875,3.798c0,2.096-1.291,3.8-2.875,3.8h-3.717c-1.533,0-2.781-1.705-2.781-3.8
			C-36.686,7.327-35.438,5.624-33.904,5.624z"/>
	</g>
	<path fill="#BBBDBF" d="M-161.601,12.716c0.801-1.115,1.234-2.446,1.234-3.836c0-3.632-2.956-6.587-6.59-6.587
		s-6.589,2.955-6.589,6.587c0,3.635,2.955,6.593,6.589,6.593c1.218,0,2.412-0.341,3.442-0.973l7.211,7.207l1.849-1.848
		L-161.601,12.716z M-164.359,11.885c-0.728,0.629-1.649,0.975-2.597,0.975c-2.192,0-3.976-1.786-3.976-3.98
		c0-2.191,1.783-3.974,3.976-3.974c2.193,0,3.978,1.783,3.978,3.974c0,0.938-0.328,1.833-0.931,2.55L-164.359,11.885z"/>
	<g>
		<g>
			<polygon fill="#BBBDBF" points="22.891,22.5 10.87,22.5 10.87,18.291 11.87,18.291 11.87,21.5 21.891,21.5 21.891,2.5 11.87,2.5 
				11.87,10.688 10.87,10.688 10.87,1.5 22.891,1.5 			"/>
			<path fill="#BBBDBF" d="M14.062,14.566c0.629-0.383,0.826-1.203,0.445-1.832c-0.057-0.093-0.126-0.175-0.2-0.247
				c-0.021-0.023-0.046-0.042-0.069-0.062c-0.058-0.048-0.117-0.093-0.182-0.132c-0.027-0.016-0.053-0.032-0.08-0.047
				c-0.079-0.039-0.162-0.074-0.247-0.098c-0.013-0.002-0.024-0.01-0.035-0.014c-0.097-0.023-0.2-0.035-0.302-0.037
				c-0.009,0-0.017-0.004-0.026-0.004c-0.017,0-0.033,0.007-0.051,0.008c-0.083,0.004-0.166,0.014-0.246,0.033
				c-0.031,0.008-0.061,0.014-0.089,0.022c-0.104,0.03-0.206,0.071-0.305,0.131l-1.826,1.111L9.08,14.475V6.441
				c-3.451,4.64-7.971,10.917-7.971,10.917c0,2.199,1.784,3.984,3.984,3.984c2.118,0,3.848-1.655,3.973-3.74l1.782-1.083
				L14.062,14.566z"/>
		</g>
		<g>
			<line fill="#BBBDBF" x1="15" y1="4" x2="18" y2="4"/>
			<rect x="15" y="3" fill="#BBBDBF" width="3" height="1"/>
		</g>
		<g>
			<circle fill="#BBBDBF" cx="16.453" cy="18.5" r="0.5"/>
			<circle fill="#BBBDBF" cx="16.453" cy="18.5" r="1"/>
		</g>
	</g>
	<g>
		<path fill="none" d="M99.449,3.045c-5.094,0-9.237,4.143-9.237,9.236c0,4.857,3.77,8.841,8.536,9.202v-2.316h1.402v2.316
			c4.767-0.361,8.536-4.345,8.536-9.202C108.687,7.188,104.543,3.045,99.449,3.045z M98.757,13.118l0.003-0.007h-0.012V7.936h0.713
			v4.654l6.839,2.113l-0.21,0.68L98.757,13.118z"/>
		<path fill="#BBBDBF" d="M106.374,14.464l-6.663-2.059v-4.47c0-0.138-0.112-0.25-0.25-0.25h-0.713c-0.138,0-0.25,0.112-0.25,0.25
			v5.176c0,0.055,0.02,0.105,0.052,0.146c0.031,0.047,0.078,0.082,0.133,0.1l7.333,2.265c0.025,0.007,0.05,0.011,0.074,0.011
			c0.106,0,0.206-0.069,0.239-0.176l0.21-0.68C106.579,14.645,106.506,14.505,106.374,14.464z"/>
		<path fill="#BBBDBF" d="M99.449,1.582c-5.899,0-10.699,4.8-10.699,10.699s4.8,10.699,10.699,10.699s10.699-4.8,10.699-10.699
			S105.349,1.582,99.449,1.582z M100.15,20.729v-1.562h-1.402v1.562c-4.37-0.361-7.786-4.06-7.786-8.447
			c0-4.679,3.808-8.486,8.487-8.486s8.487,3.807,8.487,8.486C107.937,16.669,104.521,20.367,100.15,20.729z"/>
		<path fill="#BBBDBF" d="M98.748,21.519h0.701c-0.236,0-0.469-0.018-0.701-0.035V21.519z"/>
		<path fill="#BBBDBF" d="M100.15,21.519v-0.035c-0.232,0.018-0.465,0.035-0.701,0.035H100.15z"/>
		<g>
			<path fill="#BBBDBF" d="M156.5,2.319v16.462c0,1.53-1.336,2.899-2.734,2.899h-18.715c-2.309,0-3.551-1.206-3.551-4.14V5.515
				h3.455V2.319H156.5L156.5,2.319z M134.955,7.275h-1.693v10.266c0,1.496,0.355,2.216,0.814,2.216c0.557,0,0.879-0.72,0.879-2.216
				V7.275z M154.738,4.079h-18.025v13.462c0,1.043-0.189,1.79-0.488,2.376h17.541c0.584,0,0.973-0.681,0.973-1.136V4.079z
				 M143.656,10.271h-4.137V9.688h4.137V10.271z M143.656,12.195h-4.137v-0.588h4.137V12.195z M143.656,14.054h-4.137v-0.589h4.137
				V14.054z M143.656,15.843h-4.137v-0.584h4.137V15.843z M143.656,17.704h-4.137v-0.585h4.137V17.704z M140.135,6.654h10.854v1.144
				h-10.854V6.654z M145.289,9.688h6.941v6.614h-6.941V9.688z"/>
		</g>
	</g>
	<g>
		<path id="profile_5_" fill="#BBBDBF" d="M188,2.573c1.199,0,2.174,0.975,2.174,2.174c0,0.99-0.672,1.854-1.635,2.102L188,6.986
			l-0.537-0.138c-0.963-0.246-1.635-1.111-1.635-2.102C185.828,3.548,186.803,2.573,188,2.573 M188.002,9.825l0.693,0.104
			c0.951,0.145,1.82,0.568,2.508,1.19c-1.021-0.097-2.078-0.146-3.141-0.146c-1.111,0-2.211,0.053-3.271,0.158
			c0.689-0.629,1.561-1.057,2.518-1.202L188.002,9.825 M188,1c-2.066,0-3.746,1.683-3.746,3.747c0,1.745,1.201,3.213,2.818,3.627
			c-2.398,0.361-4.443,2.095-5.143,4.467l-0.102,0.349l0.354-0.075c1.766-0.371,3.801-0.566,5.881-0.566
			c2.025,0,4.016,0.188,5.758,0.543l0.354,0.072l-0.104-0.348c-0.707-2.359-2.752-4.082-5.141-4.442
			c1.617-0.415,2.818-1.882,2.818-3.626C191.748,2.683,190.066,1,188,1L188,1z"/>
		<polygon fill="#BBBDBF" points="196.393,15.103 194.676,15.103 181.324,15.103 179.607,15.103 179.607,17.567 180.904,17.567 
			180.904,23 195.098,23 195.098,17.567 196.393,17.567 		"/>
	</g>
	<g>
		<path fill="#BBBDBF" d="M231.999,0.484c-4.53,0-8.217,3.765-8.217,8.394c0,2.273,1.344,4.164,2.643,5.991
			c1.159,1.63,2.254,3.171,2.254,4.8v0.5h6.652v-0.5c0-1.629,1.093-3.17,2.249-4.801c1.297-1.827,2.638-3.717,2.638-5.99
			C240.218,4.249,236.531,0.484,231.999,0.484z M232.478,18.191v-2.584H231.5v2.584h-1.034c-0.414-1.634-1.437-3.072-2.429-4.468
			c-1.171-1.646-2.277-3.202-2.277-4.846c0-3.537,2.799-6.416,6.239-6.416c3.441,0,6.241,2.879,6.241,6.416
			c0,1.642-1.104,3.197-2.276,4.851c-0.988,1.394-2.008,2.832-2.421,4.463H232.478z"/>
		<rect x="229.066" y="20.947" fill="#BBBDBF" width="5.86" height="0.978"/>
		<rect x="229.536" y="22.538" fill="#BBBDBF" width="4.9" height="0.978"/>
		<rect x="230.761" y="13.808" fill="#BBBDBF" width="2.446" height="0.979"/>
		<rect x="230.761" y="11.999" fill="#BBBDBF" width="2.446" height="0.977"/>
		<rect x="230.761" y="10.188" fill="#BBBDBF" width="2.446" height="0.978"/>
	</g>
	<g>
		<path fill="#BBBDBF" d="M265.656,11.02h9v-9h-9V11.02z M267.656,4.02h5v5h-5V4.02z"/>
		<path fill="#BBBDBF" d="M265.656,21.98h9v-9h-9V21.98z M267.656,14.98h5v5h-5V14.98z"/>
		<polygon fill="#BBBDBF" points="286.344,4.425 285.094,3.153 280.918,6.624 279.359,4.937 277.648,6.654 280.881,9.886 		"/>
		<polygon fill="#BBBDBF" points="284.031,13.904 281.996,15.939 279.961,13.904 278.42,15.445 280.455,17.48 278.42,19.516 
			279.961,21.058 281.996,19.022 284.031,21.058 285.572,19.516 283.537,17.48 285.572,15.445 		"/>
	</g>
	<g id="CScKXY_3_">
		<g>
			<path fill="#BBBDBF" d="M308,4.673c0.857,0.289,1.717,0.571,2.571,0.867c0.777,0.27,1.477,0.134,2.196-0.257
				c1.121-0.612,2.255-1.219,3.439-1.683c1.059-0.414,2.086-0.158,2.959,0.643c-1.021,0.603-2.028,1.17-3.005,1.783
				c-1.083,0.678-1.493,1.756-1.138,2.849c0.421,1.293,1.781,1.971,3.039,1.47c0.854-0.342,1.678-0.758,2.519-1.137
				c0.837-0.377,1.371-0.278,2.031,0.38c1.405,1.403,2.808,2.809,4.212,4.214c0.066,0.066,0.136,0.13,0.196,0.201
				c0.405,0.481,0.411,1.079,0.018,1.484c-0.39,0.4-1.011,0.423-1.479,0.014c-0.471-0.412-0.908-0.86-1.364-1.287
				c-0.132-0.122-0.279-0.225-0.502-0.259c0.143,0.19,0.274,0.392,0.43,0.572c0.367,0.427,0.758,0.832,1.117,1.266
				c0.4,0.482,0.388,1.05,0.001,1.446c-0.379,0.389-0.973,0.423-1.445,0.033c-0.615-0.505-1.202-1.046-1.806-1.566
				c-0.164-0.142-0.345-0.263-0.604-0.32c0.097,0.121,0.182,0.252,0.291,0.359c0.48,0.47,0.979,0.923,1.448,1.401
				c0.419,0.429,0.472,0.924,0.186,1.362c-0.266,0.414-0.773,0.605-1.224,0.408c-0.234-0.104-0.44-0.291-0.631-0.472
				c-0.552-0.521-1.092-1.058-1.636-1.589c-0.039,0.035-0.08,0.068-0.119,0.103c0.23,0.278,0.457,0.558,0.688,0.832
				c0.252,0.299,0.535,0.573,0.759,0.891c0.303,0.433,0.228,0.983-0.138,1.325c-0.36,0.339-0.915,0.384-1.33,0.065
				c-0.396-0.3-0.711-0.61-0.697-1.219c0.021-0.935-0.493-1.608-1.331-2.042c-0.186-0.095-0.357-0.288-0.444-0.479
				c-0.251-0.551-0.629-0.952-1.16-1.238c-0.174-0.094-0.311-0.276-0.434-0.439c-0.168-0.222-0.254-0.549-0.467-0.687
				c-0.664-0.426-1.083-1.05-1.584-1.628c-1.056-1.215-3.26-0.832-4.046,0.622c-0.074,0.136-0.14,0.276-0.212,0.421
				c-0.447-0.122-0.876-0.24-1.306-0.358C308,10.24,308,7.457,308,4.673z"/>
			<path fill="#BBBDBF" d="M332,5.501c0,2.413,0,4.8,0,7.25c-0.901,0.147-1.801,0.326-2.71,0.428
				c-0.539,0.062-0.983-0.216-1.368-0.599c-1.542-1.531-3.093-3.054-4.638-4.579c-0.724-0.713-1.238-0.811-2.15-0.357
				c-1.006,0.502-1.995,1.036-3.001,1.537c-0.766,0.383-1.397,0.292-1.882-0.233c-0.497-0.541-0.491-1.242,0.038-1.758
				c0.176-0.172,0.385-0.32,0.6-0.442c1.804-1.03,3.619-2.039,5.417-3.078c0.799-0.46,1.527-0.46,2.244,0.148
				c0.798,0.677,1.626,1.321,2.403,2.021c0.482,0.435,0.992,0.531,1.599,0.389c1.018-0.238,2.04-0.456,3.062-0.68
				C331.732,5.523,331.856,5.519,332,5.501z"/>
			<path fill="#BBBDBF" d="M316.187,17.737c0.257,0,0.479-0.034,0.688,0.005c0.977,0.186,1.347,1.372,0.679,2.18
				c-0.438,0.528-1.026,0.76-1.702,0.735c-0.798-0.029-1.192-0.637-0.929-1.395c0.055-0.157,0.11-0.312,0.171-0.479
				c-1.772,0.246-2.038-0.006-1.676-1.613c-0.509,0.058-1.03,0.364-1.487-0.124c-0.434-0.463-0.249-0.947-0.028-1.496
				c-0.251,0.048-0.426,0.082-0.601,0.114c-0.649,0.124-1.152-0.238-1.226-0.884c-0.094-0.812,0.694-1.88,1.495-2.025
				c0.956-0.173,1.584,0.479,1.532,1.49c0.434,0.173,0.931,0.241,1.212,0.521c0.27,0.27,0.318,0.762,0.486,1.21
				C316.012,16.151,316.371,16.564,316.187,17.737z"/>
		</g>
	</g>
</g>
<g id="Layer_2">
</g>
</svg>
