<?xml version="1.0" encoding="utf-8"?>
<!-- Generator: Adobe Illustrator 16.0.0, SVG Export Plug-In . SVG Version: 6.00 Build 0)  -->
<!DOCTYPE svg PUBLIC "-//W3C//DTD SVG 1.1//EN" "http://www.w3.org/Graphics/SVG/1.1/DTD/svg11.dtd">
<svg version="1.1" id="Layer_1" xmlns="http://www.w3.org/2000/svg" xmlns:xlink="http://www.w3.org/1999/xlink" x="0px" y="0px"
	 width="15px" height="15px" viewBox="0 0 15 15" enable-background="new 0 0 15 15" xml:space="preserve">
<g>
	<path fill="#989998" d="M7.5,15C3.364,15,0,11.636,0,7.5S3.364,0,7.5,0S15,3.364,15,7.5S11.636,15,7.5,15z M7.5,1
		C3.916,1,1,3.916,1,7.5S3.916,14,7.5,14S14,11.084,14,7.5S11.084,1,7.5,1z"/>
	<g>
		<path fill="#989998" d="M8.345,4.619c0,0.441-0.335,0.799-0.86,0.799c-0.503,0-0.839-0.357-0.828-0.799
			C6.646,4.158,6.981,3.812,7.495,3.812C8.01,3.812,8.335,4.158,8.345,4.619z M6.698,11.179V6.672h1.595v4.507H6.698z"/>
	</g>
</g>
</svg>
