<?xml version="1.0" encoding="utf-8"?>
<!-- Generator: Adobe Illustrator 16.0.0, SVG Export Plug-In . SVG Version: 6.00 Build 0)  -->
<!DOCTYPE svg PUBLIC "-//W3C//DTD SVG 1.1//EN" "http://www.w3.org/Graphics/SVG/1.1/DTD/svg11.dtd">
<svg version="1.1" id="Layer_1" xmlns="http://www.w3.org/2000/svg" xmlns:xlink="http://www.w3.org/1999/xlink" x="0px" y="0px"
	 width="81.125px" height="33.75px" viewBox="0 0 81.125 33.75" enable-background="new 0 0 81.125 33.75" xml:space="preserve">
<g>
	<path fill="#A6A7AB" d="M62.91,10.062c-0.629-0.854-1.426-1.504-2.388-1.961c-0.964-0.456-2.23-0.683-3.796-0.683h-7.945v18.545
		h7.945c0.948,0,2.011-0.17,3.186-0.505c0.854-0.247,1.662-0.735,2.405-1.478c0.752-0.733,1.333-1.648,1.757-2.74
		c0.42-1.095,0.632-2.631,0.632-4.614c0-1.262-0.142-2.46-0.43-3.59C63.995,11.905,63.539,10.915,62.91,10.062z M58.931,19.963
		c-0.266,0.66-0.634,1.125-1.106,1.391c-0.475,0.266-1.268,0.398-2.383,0.398h-1.313V11.616h1.337c1.379,0,2.371,0.362,2.969,1.092
		c0.598,0.724,0.897,2.068,0.897,4.035C59.331,18.225,59.198,19.299,58.931,19.963z"/>
	<polygon fill="#A6A7AB" points="80.369,11.38 80.369,7.417 65.778,7.417 65.778,25.963 80.369,25.963 80.369,21.763 71.14,21.763 
		71.14,18.104 79.287,18.104 79.287,14.324 71.14,14.324 71.14,11.38 	"/>
	<path fill="#A6A7AB" d="M44.364,19.434c-0.375-0.498-0.657-0.818-0.851-0.974c-0.295-0.226-0.756-0.456-1.393-0.685
		c0.795-0.188,1.42-0.436,1.873-0.731c0.722-0.468,1.283-1.067,1.688-1.813c0.415-0.748,0.62-1.635,0.62-2.662
		c0-1.183-0.27-2.185-0.808-3.005c-0.538-0.825-1.238-1.388-2.108-1.689c-0.875-0.303-2.142-0.458-3.791-0.458l-3.014,0.01V0h-1.059
		v34h1.059V18.443c0.465,0.011,0.882,0.145,1.257,0.424c0.28,0.216,0.603,0.697,0.971,1.428l2.855,5.668h6.043l-2.59-5.371
		C44.985,20.32,44.742,19.932,44.364,19.434z M40.594,14.102c-0.227,0.303-0.518,0.499-0.869,0.576
		c-0.694,0.171-1.17,0.255-1.416,0.255h-1.727v-3.769h1.827c0.97,0,1.634,0.159,1.992,0.478c0.353,0.319,0.531,0.784,0.531,1.381
		C40.933,13.425,40.818,13.787,40.594,14.102z"/>
	<path fill="#A6A7AB" d="M27.274,9.822c1.552,1.603,2.333,3.849,2.333,6.737c0,2.092-0.338,3.808-1.022,5.154
		c-0.677,1.339-1.662,2.383-2.947,3.13c-1.283,0.746-2.895,1.119-4.813,1.119h9.862V7.417H20.614
		C23.496,7.417,25.715,8.218,27.274,9.822z"/>
	<path fill="#A6A7AB" d="M17.028,16.727c0,1.812,0.325,3.111,0.972,3.9c0.651,0.797,1.534,1.188,2.646,1.188
		c1.157,0,2.047-0.389,2.673-1.159c0.626-0.775,0.945-2.17,0.945-4.172c0-1.688-0.329-2.926-0.989-3.704
		c-0.653-0.779-1.548-1.167-2.672-1.167c-1.081,0-1.942,0.398-2.596,1.189C17.354,13.589,17.028,14.899,17.028,16.727z"/>
	<path fill="#A6A7AB" d="M12.873,21.938c-0.795-1.395-1.193-3.138-1.193-5.237c0-2.926,0.79-5.205,2.36-6.833
		c1.556-1.611,3.717-2.428,6.472-2.451H4.615c1.67,0,2.948,0.443,3.847,1.331c0.89,0.887,1.337,1.984,1.337,3.284
		c0,1.098-0.318,2.039-0.958,2.825c-0.423,0.521-1.043,0.934-1.86,1.238c1.239,0.318,2.154,0.87,2.743,1.648
		c0.587,0.779,0.881,1.768,0.881,2.942c0,0.964-0.211,1.829-0.626,2.597c-0.421,0.766-0.985,1.371-1.711,1.823
		c-0.447,0.272-1.128,0.475-2.032,0.601c-1.204,0.17-2.001,0.256-2.396,0.256h16.984c-1.947,0-3.565-0.322-4.844-0.97
		C14.704,24.353,13.672,23.332,12.873,21.938z"/>
	<path fill="#A6A7AB" d="M4.069,14.234c0.33-0.314,0.49-0.755,0.49-1.338c0-0.537-0.16-0.965-0.49-1.267
		c-0.324-0.299-0.895-0.453-1.703-0.453H0v3.518h2.327C3.166,14.693,3.745,14.538,4.069,14.234z"/>
	<path fill="#A6A7AB" d="M5.245,20.046c0-0.55-0.188-0.993-0.563-1.328c-0.37-0.332-1.029-0.497-1.959-0.497H0v3.758h2.73
		c0.922,0,1.57-0.173,1.946-0.521C5.058,21.106,5.245,20.631,5.245,20.046z"/>
</g>
</svg>
