<?xml version="1.0" encoding="utf-8"?>
<!-- Generator: Adobe Illustrator 16.0.0, SVG Export Plug-In . SVG Version: 6.00 Build 0)  -->
<!DOCTYPE svg PUBLIC "-//W3C//DTD SVG 1.1//EN" "http://www.w3.org/Graphics/SVG/1.1/DTD/svg11.dtd">
<svg version="1.1" xmlns="http://www.w3.org/2000/svg" xmlns:xlink="http://www.w3.org/1999/xlink" x="0px" y="0px" width="24px"
	 height="24px" viewBox="0 0 24 24" enable-background="new 0 0 24 24" xml:space="preserve">
<g id="Layer_1">
</g>
<g id="Layer_2">
</g>
<g id="Layer_3">
</g>
<g id="Layer_4">
</g>
<g id="Layer_5">
</g>
<g id="Layer_6">
	<g>
		<path fill="#808184" d="M98.277,9.964c-0.497,0-0.867,0.228-1.102,0.685c-0.234,0.457-0.352,1.059-0.352,1.807
			c0,0.75,0.117,1.356,0.352,1.81c0.234,0.459,0.604,0.687,1.102,0.687c0.501,0,0.867-0.228,1.103-0.687
			c0.235-0.454,0.353-1.06,0.353-1.81c0-0.748-0.117-1.351-0.353-1.807C99.145,10.192,98.778,9.964,98.277,9.964z"/>
		<path fill="#808184" d="M105.947,2.362c-4.66-2.25-10.145-0.82-13.162,3.146L88,5.567l2.92,3.797
			c-1.232,4.83,1.059,10.023,5.723,12.275c5.322,2.569,11.72,0.335,14.291-4.986C113.503,11.328,111.271,4.931,105.947,2.362z
			 M100.601,15.27c-0.514,0.703-1.287,1.055-2.323,1.055c-1.032,0-1.806-0.352-2.32-1.055c-0.516-0.703-0.773-1.641-0.773-2.815
			c0-1.175,0.258-2.113,0.773-2.816c0.515-0.703,1.288-1.055,2.32-1.055c1.036,0,1.81,0.352,2.323,1.055
			c0.514,0.703,0.771,1.641,0.771,2.816C101.372,13.629,101.114,14.566,100.601,15.27z M105.87,16.236h-1.609v-6.059h-1.422V8.755
			h3.031V16.236z"/>
	</g>
	<path fill="#808184" d="M18.88,15.612c-0.896,0-1.69,0.402-2.239,1.026l-8.802-3.765c0.006-0.086,0.025-0.169,0.025-0.256
		c0-0.162-0.022-0.318-0.048-0.473l8.962-4.622c0.542,0.534,1.282,0.865,2.102,0.865c1.656,0,2.995-1.342,2.995-2.995
		c0-1.654-1.339-2.995-2.995-2.995c-1.653,0-2.993,1.341-2.993,2.995c0,0.161,0.021,0.317,0.047,0.472l-8.962,4.621
		C6.431,9.954,5.689,9.622,4.87,9.622c-1.655,0-2.995,1.342-2.995,2.996s1.34,2.994,2.995,2.994c0.896,0,1.691-0.401,2.24-1.024
		l8.801,3.763c-0.006,0.086-0.024,0.168-0.024,0.257c0,1.654,1.34,2.994,2.993,2.994c1.656,0,2.995-1.34,2.995-2.994
		C21.875,16.952,20.536,15.612,18.88,15.612z"/>
	<path fill="#808184" d="M-21.043,21.263c-2.008-1.031-4.088-1.883-6.192-2.693c-0.156-0.059-0.344-0.174-0.408-0.316
		c-0.171-0.378-0.29-0.78-0.412-1.181c-0.079-0.254-0.148-0.493-0.426-0.615c-0.073-0.029-0.145-0.179-0.143-0.271
		c0.014-0.925-0.198-1.894,0.484-2.701c0.021-0.022,0.03-0.062,0.044-0.09c0.37-0.81,0.437-1.731,0.951-2.484
		c0.014-0.017,0.018-0.043,0.019-0.066c0.06-0.573,0.122-1.146,0.171-1.72c0.006-0.072-0.058-0.198-0.118-0.22
		c-0.285-0.103-0.27-0.329-0.269-0.559c0.002-1.122,0-2.244-0.001-3.364c-0.001-0.651-0.192-1.231-0.685-1.675
		c-0.561-0.504-1.137-0.992-1.711-1.48c-0.28-0.235-0.305-0.416-0.044-0.676c0.114-0.113,0.263-0.196,0.396-0.293
		c-0.028-0.044-0.058-0.087-0.086-0.13c-0.174,0-0.353-0.023-0.523,0.003c-0.636,0.104-1.274,0.193-1.902,0.34
		c-1.194,0.282-2.356,0.656-3.325,1.456c-0.668,0.549-1.196,1.186-1.261,2.087c-0.034,0.471-0.03,0.947-0.034,1.419
		c-0.004,0.771,0.006,1.542-0.009,2.311c-0.003,0.126-0.075,0.332-0.16,0.36c-0.312,0.101-0.322,0.3-0.28,0.561
		c0.029,0.177,0.006,0.365,0.045,0.539c0.11,0.482,0.223,0.963,0.362,1.438c0.105,0.354,0.305,0.687,0.36,1.045
		c0.111,0.717,0.375,1.341,0.859,1.882c0.08,0.091,0.142,0.242,0.133,0.358c-0.037,0.552-0.094,1.105-0.169,1.651
		c-0.015,0.108-0.127,0.267-0.219,0.286c-0.368,0.077-0.424,0.362-0.511,0.646c-0.114,0.376-0.239,0.752-0.383,1.118
		c-0.046,0.112-0.159,0.232-0.272,0.281c-0.652,0.286-1.316,0.547-1.972,0.82c-0.7,0.294-1.407,0.575-2.088,0.901
		c-0.706,0.336-1.385,0.715-2.075,1.083c-0.405,0.219-0.784,0.46-1.104,0.757v1.208c8,0,16.001,0,24,0v-1.259
		C-20.295,21.724-20.644,21.468-21.043,21.263z"/>
	<g>
		<path id="settings_1_" fill="#808184" d="M66.194,10.397l-2.179-0.363c-0.16-0.647-0.391-1.266-0.691-1.844l1.396-1.729
			c0.295-0.365,0.283-0.892-0.03-1.245L63.824,4.24c-0.315-0.353-0.836-0.426-1.234-0.175l-1.863,1.171
			c-0.818-0.573-1.748-0.996-2.75-1.241l-0.363-2.191C57.536,1.34,57.135,1,56.664,1h-1.307c-0.471,0-0.873,0.34-0.947,0.804
			l-0.367,2.192c-0.828,0.203-1.604,0.53-2.312,0.961l-1.773-1.265c-0.381-0.273-0.906-0.23-1.24,0.103l-0.922,0.924
			c-0.334,0.333-0.377,0.857-0.102,1.239l1.268,1.776c-0.427,0.704-0.75,1.476-0.953,2.297l-2.203,0.367
			C45.34,10.475,45,10.876,45,11.348v1.304c0,0.473,0.34,0.874,0.805,0.95l2.203,0.367c0.166,0.676,0.408,1.322,0.729,1.92
			l-1.389,1.721c-0.296,0.365-0.283,0.891,0.029,1.244l0.867,0.975c0.312,0.354,0.834,0.426,1.232,0.176l1.891-1.188
			c0.799,0.547,1.703,0.949,2.676,1.188l0.367,2.191C54.484,22.66,54.887,23,55.357,23h1.307c0.471,0,0.872-0.34,0.949-0.805
			l0.365-2.191c0.818-0.199,1.584-0.521,2.286-0.945l1.847,1.318c0.381,0.273,0.906,0.23,1.24-0.102l0.922-0.924
			c0.332-0.334,0.377-0.855,0.102-1.239l-1.314-1.845c0.428-0.705,0.754-1.479,0.955-2.302l2.18-0.364
			C66.66,13.525,67,13.125,67,12.652v-1.304C66.998,10.876,66.66,10.475,66.194,10.397z M56.033,16.125
			c-2.277,0-4.125-1.848-4.125-4.125s1.848-4.125,4.125-4.125S60.158,9.723,60.158,12S58.311,16.125,56.033,16.125z"/>
	</g>
	<g>
		<path fill="#808184" d="M148.629,1h-9.258c-0.885,0-1.6,0.718-1.6,1.603v18.797c0,0.882,0.715,1.601,1.6,1.601h9.258
			c0.883,0,1.6-0.719,1.6-1.601V2.603C150.229,1.718,149.512,1,148.629,1z M141.716,1.973h4.57c0.114,0,0.209,0.173,0.209,0.386
			s-0.095,0.387-0.209,0.387h-4.57c-0.115,0-0.209-0.173-0.209-0.387S141.601,1.973,141.716,1.973z M144.001,21.419
			c-0.564,0-1.021-0.459-1.021-1.024c0-0.563,0.457-1.02,1.021-1.02c0.562,0,1.02,0.456,1.02,1.02
			C145.021,20.96,144.562,21.419,144.001,21.419z M149.03,17.916h-10.06V3.703h10.06V17.916z"/>
	</g>
</g>
<g id="Layer_7">
</g>
</svg>
