<?xml version="1.0" encoding="utf-8"?>
<!-- Generator: Adobe Illustrator 16.0.0, SVG Export Plug-In . SVG Version: 6.00 Build 0)  -->
<!DOCTYPE svg PUBLIC "-//W3C//DTD SVG 1.1//EN" "http://www.w3.org/Graphics/SVG/1.1/DTD/svg11.dtd">
<svg version="1.1" id="Layer_1" xmlns="http://www.w3.org/2000/svg" xmlns:xlink="http://www.w3.org/1999/xlink" x="0px" y="0px"
	 width="36px" height="36px" viewBox="0 0 36 36" enable-background="new 0 0 36 36" xml:space="preserve">
<g>
	<path fill="#A6A8AC" d="M-27.578,7.579V0h-24.633v29.369h3.789V36h24.633V7.579H-27.578z M-50.316,1.895h20.842v25.58h-20.842
		V1.895z M-25.684,34.105h-20.842v-4.736h18.947V9.474h1.895V34.105z"/>
	<rect x="-46.525" y="5.685" fill="#A6A8AC" width="4.736" height="6.631"/>
	<rect x="-39.895" y="6.632" fill="#A6A8AC" width="6.631" height="1.895"/>
	<rect x="-39.895" y="11.368" fill="#A6A8AC" width="4.736" height="1.895"/>
	<rect x="-46.525" y="15.158" fill="#A6A8AC" width="13.262" height="1.895"/>
	<rect x="-46.525" y="20.842" fill="#A6A8AC" width="12.314" height="1.895"/>
</g>
<g>
	<polygon fill="#A6A8AC" points="-153,23.625 -153,11.25 -142.875,17.438 	"/>
	<path fill="#A6A8AC" d="M-150,1.895c8.88,0,16.105,7.225,16.105,16.105c0,8.88-7.226,16.105-16.105,16.105
		c-8.881,0-16.105-7.226-16.105-16.105C-166.105,9.119-158.881,1.895-150,1.895 M-150,0c-9.939,0-18,8.058-18,18s8.061,18,18,18
		c9.941,0,18-8.058,18-18S-140.059,0-150,0L-150,0z"/>
</g>
<g>
	<path fill="#A6A8AC" d="M21.316,0h-1.895v1.895h-0.948V0h-1.896v1.895h-0.947V0h-1.895v1.895h-0.947V0h-1.895v1.895H9.947V0H8.053
		v1.895H2.369V36h23.684V1.895h-4.736V0z M24.158,3.789v30.316H4.264V3.789h3.789v0.948h1.895V3.789h0.947v0.948h1.895V3.789h0.947
		v0.948h1.895V3.789h0.947v0.948h1.896V3.789h0.948v0.948h1.895V3.789H24.158z"/>
	<rect x="7.105" y="9.474" fill="#A6A8AC" width="14.211" height="1.895"/>
	<rect x="7.105" y="14.211" fill="#A6A8AC" width="14.211" height="1.895"/>
	<rect x="7.105" y="21.789" fill="#A6A8AC" width="11.368" height="1.895"/>
	<path fill="#A6A8AC" d="M28.895,31.353L31.263,36l2.368-4.647V6.632h-4.736V31.353z M30.789,8.526h0.947v22.388l-0.473,0.778
		l-0.475-0.778V8.526z"/>
	<rect x="28.895" y="3.789" fill="#A6A8AC" width="4.736" height="1.896"/>
</g>
<g>
	<rect x="-101.383" y="5.102" fill="#A6A8AC" width="4.606" height="23.954"/>
	<rect x="-94.934" y="9.708" fill="#A6A8AC" width="4.606" height="19.348"/>
	<rect x="-88.484" y="18" fill="#A6A8AC" width="4.606" height="11.056"/>
	<polygon fill="#A6A8AC" points="-105.989,32.74 -105.989,1.417 -107.832,1.417 -107.832,32.74 -107.832,34.583 -105.989,34.583 
		-79.271,34.583 -79.271,32.74 	"/>
</g>
</svg>
