<?xml version="1.0" encoding="utf-8"?>
<!-- Generator: Adobe Illustrator 16.0.0, SVG Export Plug-In . SVG Version: 6.00 Build 0)  -->
<!DOCTYPE svg PUBLIC "-//W3C//DTD SVG 1.1//EN" "http://www.w3.org/Graphics/SVG/1.1/DTD/svg11.dtd">
<svg version="1.1" id="Layer_1" xmlns="http://www.w3.org/2000/svg" xmlns:xlink="http://www.w3.org/1999/xlink" x="0px" y="0px"
	 width="36px" height="36px" viewBox="0 0 36 36" enable-background="new 0 0 36 36" xml:space="preserve">
<g>
	<circle fill="#FACE4A" cx="18.06" cy="17.67" r="17.67"/>
	<g>
		<g>
			<g>
				<path fill="#FFFFFF" d="M9.463,18.653c0.623,0.07,1.254,0.086,1.883,0.064c0.453-0.015,0.906-0.067,1.344-0.196
					c0.424-0.125,0.549-0.339,0.729-0.71c0.523-1.069,1.125-2.104,1.732-3.124c0.658-1.106,1.461-2.128,2.107-3.236
					c0.541-0.927,0.695-2.208,1.471-2.98c0.732-0.728,1.799,0.005,2.223,0.697c0.643,1.048,0.254,2.46-0.289,3.451
					c-0.357,0.653-0.738,1.147-0.881,1.9c-0.102,0.537-0.064,1.122,0.031,1.657c0.018,0.094,0.039,0.187,0.064,0.279
					c-0.166-0.095-0.33-0.188-0.494-0.281c1.674-0.261,3.439-0.374,5.117-0.094c1.025,0.171,2.051,0.646,2.363,1.72
					c0.24,0.821-0.312,1.746-0.918,2.265c0-0.189,0-0.379,0-0.567c0.396,0.341,0.688,0.813,0.852,1.306
					c0.346,1.051-0.35,1.945-1.141,2.543c0.047-0.183,0.096-0.365,0.143-0.549c0.732,1.056,0.736,2.447-0.453,3.145
					c0.047-0.182,0.096-0.365,0.143-0.548c0.26,0.54,0.211,1.148-0.051,1.677c-0.449,0.9-1.576,1.233-2.486,1.4
					c-1.52,0.28-3.121,0.298-4.662,0.227c-0.516-0.025-0.52-0.828,0-0.804c1.213,0.056,2.439,0.031,3.648-0.087
					c0.758-0.075,1.561-0.191,2.232-0.575c0.389-0.223,0.68-0.588,0.693-1.043c0.002-0.11-0.018-0.215-0.047-0.319
					c-0.012-0.045-0.078-0.188-0.021-0.07c-0.096-0.197-0.057-0.433,0.145-0.55c0.818-0.479,0.637-1.369,0.168-2.047
					c-0.137-0.195-0.021-0.425,0.145-0.549c0.605-0.458,1.033-1.087,0.693-1.84c-0.127-0.283-0.332-0.546-0.568-0.749
					c-0.156-0.135-0.156-0.433,0-0.567c0.574-0.492,1.008-1.289,0.457-1.961c-0.512-0.624-1.557-0.712-2.299-0.771
					c-1.297-0.104-2.67-0.015-3.939,0.184c-0.215,0.034-0.432-0.051-0.494-0.28c-0.211-0.765-0.211-1.585-0.094-2.362
					c0.215-1.436,1.459-2.382,1.459-3.889c0.002-0.579-0.273-1.173-0.832-1.402c-0.404-0.167-0.594,0.364-0.729,0.65
					c-0.244,0.527-0.428,1.084-0.664,1.615c-0.271,0.608-0.658,1.124-1.037,1.667c-0.73,1.053-1.385,2.16-2.02,3.274
					c-0.283,0.495-0.559,0.996-0.822,1.501c-0.188,0.358-0.332,0.763-0.59,1.078c-0.527,0.64-1.68,0.685-2.428,0.72
					c-0.627,0.028-1.262,0.005-1.883-0.065C8.953,19.399,8.949,18.596,9.463,18.653L9.463,18.653z"/>
			</g>
		</g>
	</g>
</g>
<g>
	<circle fill="#F79856" cx="-38" cy="18" r="17.67"/>
	<g>
		<path fill="#FFFFFF" d="M-48.639,15.035c-0.092,0-0.188,0.002-0.281,0.004c0.094-0.002,0.189-0.004,0.281-0.006l-0.002-0.014
			c1.736-0.379,3.498-0.693,5.268-0.817c0.23-0.015,0.459-0.039,0.686-0.064c0.797-0.092,1.578-0.233,2.369-0.316
			c0.383-0.04,0.771-0.067,1.16-0.067c0.408,0,0.82,0.029,1.242,0.104c0.779,0.134,1.379,0.556,2.111,0.773
			c0.611,0.18,1.324,0.225,1.953,0.338c1.123,0.2,2.289,0.151,3.387,0.361c0.631,0.12,1.27,0.17,1.91,0.196
			c0.031,0.001,0.066,0.003,0.1,0.003c0.217,0,0.486-0.025,0.752-0.025c0.025,0,0.049,0.002,0.074,0.002
			c0.084,0.021,0.16,0.067,0.227,0.123c0.076,0.065,0.102,0.169,0.125,0.261c0.059,0.219-0.004,0.43-0.145,0.598
			c-0.357,0.254-0.844,0.421-1.262,0.529c-0.166,0.043-0.322,0.077-0.453,0.104c0.033-0.007,0.068-0.01,0.105-0.01
			c0.014,0,0.029,0,0.043,0.001c0.193,0.009,0.408,0.083,0.568,0.13c0.129,0.039,0.32,0.076,0.518,0.121
			c0.094,0.061,0.174,0.13,0.201,0.243c0.033,0.141-0.01,0.302-0.057,0.435c-0.043,0.128-0.102,0.258-0.209,0.346
			c-0.053,0.043-0.117,0.049-0.178,0.076c-0.012,0.007-0.021,0.014-0.031,0.022c-0.223,0.064-0.453,0.112-0.668,0.157
			c-0.5,0.104-1.014,0.154-1.527,0.154c-0.264,0-0.529-0.014-0.791-0.04c-0.695-0.07-1.373-0.404-2.053-0.582
			c-1.039-0.273-2.127-0.465-3.209-0.465c-0.441,0-0.885,0.031-1.322,0.104c-0.182,0.029-1.361,0.335-1.27,0.638
			c0.027,0.097,0.516,0.114,0.959,0.114c0.275,0,0.533-0.008,0.654-0.008c0.025,0,0.043,0.002,0.055,0.002
			c0.814,0.042,1.629,0.104,2.432,0.255c0.578,0.062,1.086,0.447,0.955,1.093c-0.08,0.404-0.398,0.729-0.766,0.915
			c-0.551,0.275-1.219,0.354-1.885,0.354c-0.494,0-0.986-0.044-1.43-0.085c0,0-0.195-0.036-0.537-0.036
			c-0.682,0-1.951,0.144-3.414,1.003c0,0-0.455,0.188-1.279,0.188c-0.924,0-2.309-0.233-4.041-1.225l-0.004-0.02
			c-0.018-0.001-0.035-0.001-0.051-0.003c-0.01,0-0.021,0-0.033,0c-0.037-0.003-0.076-0.007-0.113-0.014
			c-0.018-0.001-0.035-0.002-0.053-0.005c0,0,0,0-0.002,0c-0.105-0.018-0.209-0.039-0.312-0.065l0.049,0.22l0.053,0.229l0.203,0.117
			c1.873,1.072,3.375,1.296,4.305,1.296c0.904,0,1.426-0.204,1.482-0.229l0.033-0.015l0.033-0.018
			c1.377-0.81,2.561-0.931,3.145-0.931c0.281,0,0.443,0.027,0.443,0.027l0.021,0.004l0.023,0.003
			c0.396,0.036,0.943,0.088,1.479,0.088c0.875,0,1.568-0.135,2.121-0.413c0.562-0.281,0.943-0.749,1.051-1.283
			c0.08-0.401,0.004-0.779-0.223-1.089c-0.129-0.176-0.301-0.32-0.506-0.43c0.266,0.056,0.537,0.12,0.818,0.193
			c0.227,0.061,0.457,0.141,0.703,0.226c0.455,0.158,0.926,0.32,1.43,0.372c0.283,0.027,0.566,0.043,0.846,0.043
			c0.561,0,1.111-0.056,1.637-0.167c0.215-0.044,0.459-0.095,0.701-0.164l0.133-0.036l0.031-0.031
			c0.064-0.023,0.154-0.062,0.242-0.135c0.215-0.178,0.314-0.417,0.371-0.581c0.068-0.195,0.139-0.455,0.07-0.732
			c-0.043-0.168-0.125-0.295-0.211-0.387c0.104-0.056,0.195-0.113,0.283-0.175l0.055-0.04l0.045-0.053
			c0.256-0.309,0.346-0.697,0.25-1.071l-0.002-0.01c-0.031-0.123-0.092-0.35-0.293-0.521c-0.137-0.118-0.287-0.197-0.445-0.236
			l-0.057-0.013l-0.059-0.002c-0.029,0-0.057-0.002-0.084-0.002c-0.15,0-0.295,0.008-0.436,0.014
			c-0.117,0.006-0.227,0.011-0.316,0.011c-0.027,0-0.053,0-0.076,0c-0.514-0.022-1.184-0.063-1.832-0.188
			c-0.592-0.112-1.195-0.154-1.779-0.193c-0.561-0.039-1.09-0.076-1.615-0.17c-0.229-0.041-0.469-0.074-0.699-0.105
			c-0.41-0.056-0.838-0.112-1.195-0.22c-0.271-0.079-0.533-0.195-0.807-0.318c-0.416-0.187-0.848-0.379-1.367-0.469
			c-0.428-0.074-0.861-0.11-1.332-0.11c-0.371,0-0.77,0.023-1.219,0.071c-0.434,0.045-0.871,0.108-1.293,0.169
			c-0.354,0.052-0.719,0.104-1.078,0.146c-0.26,0.031-0.471,0.051-0.662,0.064c-1.557,0.108-3.256,0.371-5.344,0.828l-0.52,0.114
			l0.098,0.438c0.045-0.003,0.09-0.006,0.137-0.007c-0.047,0.001-0.092,0.005-0.137,0.008l0.018,0.082"/>
	</g>
</g>
<g>
	<circle fill="#EE495A" cx="-94" cy="17.67" r="17.67"/>
	<g>
		<g>
			<g>
				<path fill="#FFFFFF" d="M-85.463,19.631c-0.625-0.07-1.256-0.086-1.883-0.064c-0.455,0.015-0.906,0.067-1.346,0.196
					c-0.422,0.125-0.547,0.339-0.729,0.71c-0.523,1.069-1.123,2.104-1.73,3.124c-0.66,1.106-1.463,2.128-2.109,3.236
					c-0.541,0.927-0.693,2.208-1.471,2.98c-0.732,0.728-1.797-0.005-2.221-0.697c-0.643-1.048-0.256-2.46,0.287-3.451
					c0.357-0.653,0.74-1.147,0.881-1.9c0.102-0.537,0.066-1.122-0.031-1.657c-0.018-0.094-0.037-0.187-0.062-0.279
					c0.164,0.095,0.33,0.188,0.494,0.281c-1.676,0.261-3.441,0.374-5.119,0.094c-1.023-0.171-2.049-0.646-2.361-1.72
					c-0.242-0.821,0.312-1.746,0.916-2.265c0,0.189,0,0.379,0,0.567c-0.396-0.341-0.688-0.813-0.85-1.306
					c-0.346-1.051,0.35-1.945,1.139-2.543c-0.047,0.183-0.096,0.365-0.143,0.549c-0.73-1.056-0.736-2.447,0.455-3.145
					c-0.047,0.182-0.096,0.365-0.143,0.548c-0.262-0.54-0.213-1.148,0.049-1.677c0.449-0.9,1.576-1.233,2.486-1.4
					c1.52-0.28,3.121-0.298,4.662-0.227c0.516,0.025,0.52,0.828,0,0.804c-1.211-0.056-2.438-0.031-3.646,0.087
					c-0.758,0.075-1.561,0.191-2.232,0.575c-0.389,0.223-0.68,0.588-0.695,1.043c-0.002,0.11,0.018,0.215,0.047,0.319
					c0.014,0.045,0.078,0.188,0.021,0.07c0.096,0.197,0.057,0.433-0.145,0.55c-0.816,0.479-0.637,1.369-0.166,2.047
					c0.135,0.195,0.02,0.425-0.145,0.549c-0.605,0.458-1.035,1.087-0.695,1.84c0.129,0.283,0.334,0.546,0.568,0.749
					c0.158,0.135,0.158,0.433,0,0.567c-0.574,0.492-1.008,1.289-0.455,1.961c0.512,0.624,1.555,0.712,2.297,0.771
					c1.297,0.104,2.67,0.015,3.941-0.184c0.215-0.034,0.43,0.051,0.492,0.28c0.213,0.765,0.213,1.585,0.096,2.362
					c-0.217,1.436-1.461,2.382-1.461,3.889c-0.002,0.579,0.275,1.173,0.832,1.402c0.406,0.167,0.596-0.364,0.73-0.65
					c0.244-0.527,0.426-1.084,0.662-1.615c0.271-0.608,0.66-1.124,1.037-1.667c0.732-1.053,1.387-2.16,2.021-3.274
					c0.281-0.495,0.557-0.996,0.822-1.501c0.188-0.358,0.33-0.763,0.59-1.078c0.525-0.64,1.678-0.685,2.428-0.72
					c0.625-0.028,1.26-0.005,1.883,0.065C-84.955,18.885-84.949,19.688-85.463,19.631L-85.463,19.631z"/>
			</g>
		</g>
	</g>
</g>
</svg>
