<?xml version="1.0" encoding="utf-8"?>
<!-- Generator: Adobe Illustrator 16.0.0, SVG Export Plug-In . SVG Version: 6.00 Build 0)  -->
<!DOCTYPE svg PUBLIC "-//W3C//DTD SVG 1.1//EN" "http://www.w3.org/Graphics/SVG/1.1/DTD/svg11.dtd">
<svg version="1.1" id="Layer_1" xmlns="http://www.w3.org/2000/svg" xmlns:xlink="http://www.w3.org/1999/xlink" x="0px" y="0px"
	 width="28px" height="28px" viewBox="0 0 28 28" enable-background="new 0 0 28 28" xml:space="preserve">
<g>
	<path fill="#888888" d="M165.76,18.611c0.199,0.336,0.302,0.73,0.302,1.181c0,0.689-0.208,1.266-0.619,1.728
		c-0.412,0.459-1.006,0.733-1.783,0.814v1.182h-0.991v-1.178c-1.293-0.132-2.095-0.887-2.403-2.257l1.53-0.399
		c0.14,0.861,0.611,1.294,1.407,1.294c0.373,0,0.649-0.091,0.824-0.277c0.176-0.187,0.265-0.407,0.265-0.669
		c0-0.27-0.089-0.476-0.265-0.613c-0.175-0.141-0.567-0.316-1.172-0.531c-0.545-0.188-0.969-0.375-1.277-0.561
		c-0.305-0.184-0.552-0.441-0.744-0.772c-0.191-0.334-0.287-0.722-0.287-1.164c0-0.576,0.172-1.099,0.513-1.562
		c0.343-0.462,0.876-0.745,1.609-0.85v-0.911h0.991v0.911c1.105,0.134,1.823,0.759,2.15,1.878l-1.367,0.56
		c-0.264-0.766-0.674-1.15-1.231-1.15c-0.28,0-0.504,0.085-0.673,0.257c-0.17,0.171-0.255,0.379-0.255,0.624
		c0,0.247,0.081,0.439,0.245,0.574c0.163,0.132,0.512,0.296,1.047,0.492c0.587,0.216,1.05,0.418,1.384,0.609
		C165.294,18.01,165.56,18.275,165.76,18.611z M171.871,18.289c0,4.812-3.899,8.711-8.71,8.711s-8.71-3.899-8.71-8.711
		c0-4.811,3.899-8.709,8.71-8.709S171.871,13.479,171.871,18.289z M170.129,18.289c0-3.843-3.125-6.968-6.968-6.968
		s-6.968,3.125-6.968,6.968c0,3.844,3.125,6.969,6.968,6.969S170.129,22.133,170.129,18.289z M157.936,2.611h10.451
		c0.48,0,0.87-0.29,0.87-0.653V0.652c0-0.361-0.39-0.652-0.87-0.652h-10.451c-0.482,0-0.871,0.291-0.871,0.652v1.306
		C157.064,2.321,157.453,2.611,157.936,2.611z M157.936,6.098h10.451c0.48,0,0.87-0.293,0.87-0.654V4.136
		c0-0.359-0.39-0.652-0.87-0.652h-10.451c-0.482,0-0.871,0.293-0.871,0.652v1.308C157.064,5.805,157.453,6.098,157.936,6.098z
		 M144.871,23.516h10.271c-0.521-0.797-0.925-1.676-1.191-2.615h-9.08c-0.482,0-0.871,0.294-0.871,0.655v1.307
		C144,23.222,144.389,23.516,144.871,23.516z M155.322,24.387h-10.451c-0.482,0-0.871,0.292-0.871,0.652v1.309
		c0,0.359,0.389,0.652,0.871,0.652h10.451c0.48,0,0.871-0.293,0.871-0.652v-1.309C156.193,24.679,155.803,24.387,155.322,24.387z
		 M144.871,20.031h8.876c-0.105-0.565-0.166-1.146-0.166-1.742c0-0.294,0.017-0.583,0.044-0.869h-8.754
		c-0.482,0-0.871,0.291-0.871,0.651v1.308C144,19.739,144.389,20.031,144.871,20.031z M157.936,9.58h1.257
		c1.21-0.555,2.552-0.869,3.969-0.869c1.414,0,2.757,0.314,3.967,0.869h1.259c0.48,0,0.87-0.292,0.87-0.652V7.62
		c0-0.362-0.39-0.653-0.87-0.653h-10.451c-0.482,0-0.871,0.292-0.871,0.653v1.307C157.064,9.287,157.453,9.58,157.936,9.58z
		 M144.871,9.58h10.451c0.48,0,0.871-0.292,0.871-0.652V7.62c0-0.362-0.391-0.653-0.871-0.653h-10.451
		c-0.482,0-0.871,0.292-0.871,0.653v1.307C144,9.287,144.389,9.58,144.871,9.58z M144.871,16.547h8.876
		c0.169-0.925,0.474-1.801,0.892-2.613h-9.768c-0.482,0-0.871,0.292-0.871,0.654v1.306C144,16.255,144.389,16.547,144.871,16.547z
		 M144.871,13.066h10.271c0.309-0.479,0.662-0.92,1.051-1.333v-0.628c0-0.359-0.391-0.653-0.871-0.653h-10.451
		c-0.482,0-0.871,0.294-0.871,0.653v1.307C144,12.771,144.389,13.066,144.871,13.066z"/>
</g>
<g>
	<path fill="#888888" d="M-20.142,24.463l-5.776-11.388c-0.22-0.507-0.812-0.74-1.324-0.521c-0.188,0.082-0.338,0.21-0.441,0.367
		c-0.181,0.279-0.221,0.636-0.079,0.961l5.163,9.973l-7.022-0.002c0.005-0.098,0.045-0.787,0.058-1.082
		c0.017-0.322-0.278-0.043-0.278-0.043l-2.45,1.816c0,0-0.197,0.154-0.038,0.328c0.218,0.24,2.321,2.012,2.321,2.012
		s0.276,0.307,0.3-0.08c0.016-0.311,0.043-0.771,0.048-0.939l8.602,0.002c0.334,0,0.654-0.172,0.84-0.453
		C-20.038,25.129-20.004,24.773-20.142,24.463z"/>
	<path fill="#888888" d="M-34.526,24.045l-10.876,0.008l3.388-6.445c0.081,0.043,0.699,0.354,0.967,0.488
		c0.288,0.141,0.147-0.24,0.147-0.24l-0.691-2.974c0,0-0.06-0.238-0.283-0.162c-0.312,0.102-2.774,1.332-2.774,1.332
		s-0.396,0.131-0.048,0.303c0.282,0.137,0.691,0.346,0.847,0.42l-4.007,7.881c-0.139,0.312-0.104,0.676,0.082,0.959
		c0.185,0.283,0.503,0.455,0.842,0.455l12.407-0.014c0.562,0,1.008-0.447,1.007-1.002c-0.002-0.203-0.059-0.398-0.163-0.553
		C-33.861,24.23-34.175,24.045-34.526,24.045z"/>
	<path fill="#888888" d="M-41.039,13.236c0.181,0.114,0.384,0.169,0.59,0.167c0.347,0,0.691-0.163,0.894-0.454l5.291-9.106
		l4.115,5.864c-0.088,0.049-0.721,0.401-0.999,0.552c-0.294,0.161,0.13,0.252,0.13,0.252l3.051,1.049c0,0,0.253,0.083,0.315-0.146
		c0.092-0.318,0.431-3.051,0.431-3.051s0.116-0.401-0.244-0.206c-0.285,0.158-0.707,0.391-0.868,0.477l-5.035-7.18
		c-0.2-0.283-0.537-0.456-0.897-0.454c-0.357,0-0.695,0.173-0.895,0.456l-6.189,10.388C-41.675,12.309-41.535,12.937-41.039,13.236z
		"/>
</g>
<g>
	<g>
		<path fill="#888888" d="M119.111,11.089h-1.41V7.365c0-4.021-3.244-7.293-7.227-7.293h-0.951c-3.988,0-7.23,3.271-7.23,7.293
			v3.724h-1.408c-0.488,0-0.877,0.392-0.877,0.878v15.082c0,0.483,0.389,0.879,0.877,0.879h18.227c0.484,0,0.881-0.396,0.881-0.879
			V11.967C119.992,11.48,119.596,11.089,119.111,11.089z M111.256,20.424v2.822c0,0.486-0.396,0.876-0.881,0.876h-0.758
			c-0.484,0-0.875-0.39-0.875-0.876v-2.82c-0.557-0.393-0.924-1.037-0.924-1.77c0-1.204,0.977-2.18,2.178-2.18
			c1.203,0,2.178,0.976,2.178,2.18C112.174,19.389,111.811,20.033,111.256,20.424z M114.188,11.089h-8.381V7.365
			c0-2.082,1.668-3.779,3.717-3.779h0.951c2.049,0,3.713,1.697,3.713,3.779V11.089z"/>
	</g>
</g>
<g>
	<polygon fill="#888888" points="1.318,10.65 2.206,12.324 2.224,12.324 2.224,22.332 5.638,22.332 5.638,12.324 5.605,12.324 
		6.543,10.65 	"/>
	<polygon fill="#888888" points="8.031,10.65 8.917,12.324 8.937,12.324 8.937,22.332 12.35,22.332 12.35,12.324 12.315,12.324 
		13.254,10.65 	"/>
	<polygon fill="#888888" points="14.74,10.65 15.631,12.324 15.647,12.324 15.647,22.332 19.063,22.332 19.063,12.324 
		19.031,12.324 19.968,10.65 	"/>
	<polygon fill="#888888" points="21.455,10.65 22.342,12.324 22.357,12.324 22.357,22.332 25.772,22.332 25.772,12.324 
		25.74,12.324 26.679,10.65 	"/>
	<path fill="#888888" d="M14.069,0.508L0.505,8.945c0.071,0,26.984,0,26.984,0L14.069,0.508z M13.996,7.305
		c-0.922,0-1.673-0.75-1.673-1.678c0-0.922,0.751-1.672,1.673-1.672c0.928,0,1.678,0.75,1.678,1.672
		C15.674,6.555,14.924,7.305,13.996,7.305z"/>
	<polygon fill="#888888" points="26.655,24.143 1.377,24.143 0.492,27.492 27.508,27.492 	"/>
</g>
<g>
	<g>
		<path fill="#888888" d="M-72.731,17.911h-23.436v1.742h23.436c1.742,0,3.154,1.418,3.154,3.154c0,1.742-1.412,3.156-3.154,3.156
			h-23.436v1.744h23.436c2.698,0,4.898-2.201,4.898-4.9C-67.833,20.11-70.033,17.911-72.731,17.911z"/>
		<path fill="#888888" d="M-70.811,22.901c0-1.053-0.852-1.906-1.901-1.906h-21.873v3.807h21.873
			C-71.662,24.802-70.811,23.95-70.811,22.901z"/>
	</g>
	<g>
		<path fill="#888888" d="M-79.517,4.928c-0.822,0-1.592,0.287-2.259,0.768c0.047-2.824,1.743-3.561,1.821-3.59
			c0.224-0.09,0.332-0.342,0.244-0.562c-0.088-0.225-0.34-0.334-0.562-0.246c-0.097,0.035-2.243,0.92-2.368,4.227
			c-0.599-0.379-1.267-0.596-1.971-0.596c-2.486,0-4.5,2.639-4.5,5.894s2.014,5.896,4.5,5.896c0.905,0,4.139,0,5.095,0
			c2.553,0,4.627-2.641,4.627-5.896S-76.964,4.928-79.517,4.928z"/>
		<path fill="#888888" d="M-83.405,4.233c0.549-0.575,0.134-1.86-0.926-2.872c-1.058-1.013-2.365-1.369-2.909-0.795
			c-0.553,0.574-0.136,1.858,0.922,2.871C-85.257,4.452-83.951,4.807-83.405,4.233z"/>
	</g>
</g>
<g>
	<polygon fill="#888888" points="73.315,0 65.443,1.288 67.336,3.603 50.685,17.227 51.95,18.773 68.603,5.149 70.495,7.462 	"/>
	<polygon fill="#888888" points="71.143,11.41 69.315,9.179 69.315,28 73.315,28 73.315,5.659 	"/>
	<polygon fill="#888888" points="57.316,16.967 57.316,28 61.316,28 61.316,13.696 	"/>
	<polygon fill="#888888" points="51.667,21.586 51.316,21.158 51.316,28 55.316,28 55.316,18.602 	"/>
	<polygon fill="#888888" points="63.316,12.059 63.316,28 67.317,28 67.317,8.786 	"/>
</g>
</svg>
