<?xml version="1.0" encoding="utf-8"?>
<!-- Generator: Adobe Illustrator 16.0.0, SVG Export Plug-In . SVG Version: 6.00 Build 0)  -->
<!DOCTYPE svg PUBLIC "-//W3C//DTD SVG 1.1//EN" "http://www.w3.org/Graphics/SVG/1.1/DTD/svg11.dtd">
<svg version="1.1" id="Layer_1" xmlns="http://www.w3.org/2000/svg" xmlns:xlink="http://www.w3.org/1999/xlink" x="0px" y="0px"
	 width="24px" height="24px" viewBox="0 0 24 24" enable-background="new 0 0 24 24" xml:space="preserve">
<path fill="#989998" d="M-18.5,3.411c-0.994,0.452-2.064,0.754-3.187,0.895c1.147-0.704,2.026-1.816,2.441-3.144
	c-1.074,0.655-2.256,1.123-3.52,1.376c-1.009-1.101-2.45-1.792-4.042-1.792c-3.057,0-5.539,2.545-5.539,5.686
	c0,0.442,0.044,0.877,0.142,1.29c-4.604-0.235-8.682-2.498-11.419-5.938c-0.474,0.842-0.747,1.817-0.747,2.86
	c0,1.967,0.979,3.709,2.462,4.73c-0.904-0.031-1.759-0.287-2.506-0.712v0.07c0,2.757,1.909,5.052,4.439,5.573
	c-0.46,0.132-0.949,0.198-1.456,0.198c-0.357,0-0.705-0.03-1.044-0.1c0.706,2.254,2.751,3.899,5.177,3.945
	c-1.896,1.523-4.286,2.434-6.88,2.434c-0.447,0-0.891-0.027-1.322-0.08c2.448,1.611,5.363,2.551,8.492,2.551
	c10.189,0,15.761-8.656,15.761-16.165c0-0.248-0.007-0.494-0.021-0.736C-20.18,5.553-19.241,4.551-18.5,3.411"/>
<path fill="#989998" d="M6.211,7.938h2.479V5.526c0-1.063,0.028-2.704,0.8-3.718C10.305,0.731,11.423,0,13.344,0
	c3.126,0,4.445,0.445,4.445,0.445l-0.618,3.676c0,0-1.035-0.297-2-0.297c-0.967,0-1.827,0.344-1.827,1.309v2.805h3.954l-0.277,3.59
	h-3.677V24H8.689V11.527H6.211V7.938z"/>
<path fill="#989998" d="M-117.047,0H-130v24h20V7L-117.047,0z M-120.047,19.414l-4.707-4.707l1.414-1.414l2.34,2.34V9h2v6.539
	l2.246-2.246l1.414,1.414L-120.047,19.414z M-117,7V2l4.953,5H-117z"/>
<path fill="#989998" d="M-168.963,14.23"/>
<g>
	<path fill="#989998" d="M-64.829,6.404l-2.122-2.122L-68,5.331V0h-20v24h14.833L-68,19V9.575L-64.829,6.404z M-70,18h-4.953v4H-86
		V2h16v5.332l-5.436,5.436l2.121,2.121L-70,11.575V18z"/>
	<polygon fill="#989998" points="-77.168,16.646 -73.975,15.596 -76.096,13.475 	"/>
</g>
</svg>
