<?xml version="1.0" encoding="utf-8"?>
<!-- Generator: Adobe Illustrator 16.0.0, SVG Export Plug-In . SVG Version: 6.00 Build 0)  -->
<!DOCTYPE svg PUBLIC "-//W3C//DTD SVG 1.1//EN" "http://www.w3.org/Graphics/SVG/1.1/DTD/svg11.dtd">
<svg version="1.1" id="Layer_1" xmlns="http://www.w3.org/2000/svg" xmlns:xlink="http://www.w3.org/1999/xlink" x="0px" y="0px"
	 width="27px" height="24px" viewBox="0 0 27 24" enable-background="new 0 0 27 24" xml:space="preserve">
<path fill="#989998" d="M27,3.411c-0.994,0.452-2.064,0.754-3.187,0.895c1.147-0.704,2.026-1.816,2.441-3.144
	c-1.074,0.655-2.256,1.123-3.52,1.376c-1.009-1.101-2.45-1.792-4.042-1.792c-3.057,0-5.539,2.545-5.539,5.686
	c0,0.442,0.044,0.877,0.142,1.29C8.691,7.486,4.614,5.224,1.877,1.784C1.403,2.626,1.13,3.602,1.13,4.645
	c0,1.967,0.979,3.709,2.462,4.73C2.688,9.344,1.833,9.088,1.086,8.663v0.07c0,2.757,1.909,5.052,4.439,5.573
	c-0.46,0.132-0.949,0.198-1.456,0.198c-0.357,0-0.705-0.03-1.044-0.1c0.706,2.254,2.751,3.899,5.177,3.945
	c-1.896,1.523-4.286,2.434-6.88,2.434c-0.447,0-0.891-0.027-1.322-0.08c2.448,1.611,5.363,2.551,8.492,2.551
	c10.189,0,15.761-8.656,15.761-16.165c0-0.248-0.007-0.494-0.021-0.736C25.32,5.553,26.259,4.551,27,3.411"/>
<path fill="#989998" d="M51.711,7.938h2.479V5.526c0-1.063,0.028-2.704,0.8-3.718C55.805,0.731,56.923,0,58.844,0
	c3.126,0,4.445,0.445,4.445,0.445l-0.618,3.676c0,0-1.035-0.297-2-0.297c-0.967,0-1.827,0.344-1.827,1.309v2.805h3.954l-0.277,3.59
	h-3.677V24h-4.654V11.527h-2.479V7.938z"/>
<path fill="#989998" d="M-71.547,0H-84.5v24h20V7L-71.547,0z M-74.547,19.414l-4.707-4.707l1.414-1.414l2.34,2.34V9h2v6.539
	l2.246-2.246l1.414,1.414L-74.547,19.414z M-71.5,7V2l4.953,5H-71.5z"/>
<path fill="#989998" d="M-123.463,14.23"/>
<g>
	<path fill="#989998" d="M-19.329,6.404l-2.122-2.122L-22.5,5.331V0h-20v24h14.833l5.167-5V9.575L-19.329,6.404z M-24.5,18h-4.953v4
		H-40.5V2h16v5.332l-5.436,5.436l2.121,2.121l3.314-3.314V18z"/>
	<polygon fill="#989998" points="-31.668,16.646 -28.475,15.596 -30.596,13.475 	"/>
</g>
</svg>
