<?xml version="1.0" encoding="utf-8"?>
<!-- Generator: Adobe Illustrator 16.0.0, SVG Export Plug-In . SVG Version: 6.00 Build 0)  -->
<!DOCTYPE svg PUBLIC "-//W3C//DTD SVG 1.1//EN" "http://www.w3.org/Graphics/SVG/1.1/DTD/svg11.dtd">
<svg version="1.1" xmlns="http://www.w3.org/2000/svg" xmlns:xlink="http://www.w3.org/1999/xlink" x="0px" y="0px" width="24px"
	 height="24px" viewBox="0 0 24 24" enable-background="new 0 0 24 24" xml:space="preserve">
<g id="Layer_1">
	<path fill="#989998" d="M-24.639,0h-14.723C-41.919,0-44,2.081-44,4.638v4.901v9.827c0,2.557,2.081,4.638,4.638,4.638h14.723
		c2.558,0,4.639-2.081,4.639-4.638V9.539V4.638C-20,2.081-22.081,0-24.639,0z M-23.307,2.768l0.53-0.003v0.529v3.54l-4.056,0.013
		l-0.015-4.068L-23.307,2.768z M-35.424,9.539c0.767-1.066,2.015-1.761,3.424-1.761c1.41,0,2.657,0.695,3.424,1.761
		c0.503,0.693,0.802,1.544,0.802,2.463c0,2.33-1.896,4.223-4.226,4.223c-2.329,0-4.223-1.894-4.223-4.223
		C-36.223,11.083-35.925,10.232-35.424,9.539z M-22.339,19.365c0,1.266-1.03,2.299-2.3,2.299h-14.723
		c-1.269,0-2.299-1.033-2.299-2.299V9.539h3.583c-0.31,0.76-0.483,1.591-0.483,2.463c0,3.619,2.943,6.565,6.562,6.565
		c3.619,0,6.562-2.946,6.562-6.565c0-0.872-0.175-1.703-0.483-2.463h3.583V19.365z"/>
	<path fill="#989998" d="M16.911,3.893v4.574c-0.109,0.132-0.24,0.24-0.375,0.326c-0.146,0.086-0.254,0.132-0.35,0.132
		c-0.108,0-0.194-0.035-0.243-0.096c-0.062-0.074-0.086-0.168-0.086-0.314V3.893h-1.232v5.032c0,0.364,0.073,0.631,0.22,0.812
		c0.142,0.182,0.362,0.267,0.638,0.267c0.244,0,0.474-0.06,0.728-0.18c0.241-0.135,0.472-0.315,0.701-0.57v0.666h1.234V3.893H16.911
		z M13.148,4.184c-0.328-0.302-0.749-0.448-1.257-0.448c-0.557,0-1.005,0.146-1.344,0.424c-0.326,0.277-0.494,0.639-0.494,1.112
		v3.123c0,0.52,0.168,0.918,0.482,1.223c0.326,0.301,0.764,0.458,1.296,0.458c0.556,0,1.002-0.144,1.316-0.448
		c0.329-0.291,0.486-0.69,0.486-1.209V5.31C13.635,4.85,13.463,4.474,13.148,4.184z M12.374,8.515c0,0.158-0.047,0.278-0.146,0.375
		c-0.096,0.097-0.229,0.144-0.396,0.144c-0.158,0-0.289-0.047-0.377-0.144c-0.084-0.085-0.134-0.218-0.134-0.375V5.224
		c0-0.132,0.05-0.242,0.146-0.314c0.085-0.085,0.218-0.121,0.364-0.121c0.157,0,0.288,0.036,0.396,0.121
		c0.099,0.073,0.146,0.183,0.146,0.314V8.515z M8.551,1.751L7.694,5.019H7.597L6.702,1.751H5.3l1.656,4.936v3.231h1.391V6.53
		l1.608-4.779H8.551z M18.17,16.139c0.072,0.098,0.108,0.266,0.108,0.482v0.557h-0.957v-0.557c0-0.217,0.025-0.385,0.11-0.482
		c0.072-0.098,0.193-0.158,0.375-0.158C17.976,15.98,18.095,16.041,18.17,16.139z M14.371,16.113
		c-0.073-0.098-0.194-0.146-0.34-0.146c-0.072,0-0.156,0.014-0.229,0.049c-0.071,0.037-0.157,0.098-0.229,0.17v3.412
		c0.084,0.086,0.182,0.158,0.266,0.193c0.085,0.037,0.17,0.062,0.256,0.062c0.145,0,0.239-0.037,0.3-0.121
		c0.061-0.072,0.098-0.195,0.098-0.377v-2.83C14.492,16.342,14.455,16.211,14.371,16.113z M14.371,16.113
		c-0.073-0.098-0.194-0.146-0.34-0.146c-0.072,0-0.156,0.014-0.229,0.049c-0.071,0.037-0.157,0.098-0.229,0.17v3.412
		c0.084,0.086,0.182,0.158,0.266,0.193c0.085,0.037,0.17,0.062,0.256,0.062c0.145,0,0.239-0.037,0.3-0.121
		c0.061-0.072,0.098-0.195,0.098-0.377v-2.83C14.492,16.342,14.455,16.211,14.371,16.113z M20.576,11.892H3.426
		C1.548,11.892,0,13.439,0,15.326v3.498c0,1.887,1.548,3.424,3.426,3.424h17.15c1.876,0,3.424-1.537,3.424-3.424v-3.498
		C24,13.439,22.452,11.892,20.576,11.892z M8.044,14.299H6.763v6.34H5.527v-6.34h-1.27v-1.076h3.786V14.299z M11.648,20.639h-1.101
		v-0.604c-0.193,0.229-0.412,0.398-0.628,0.506c-0.218,0.123-0.425,0.182-0.629,0.182c-0.255,0-0.446-0.084-0.582-0.254
		c-0.122-0.158-0.181-0.398-0.181-0.725v-4.586h1.089v4.211c0,0.119,0.022,0.217,0.073,0.275c0.035,0.062,0.121,0.088,0.217,0.088
		c0.084,0,0.183-0.037,0.304-0.123c0.132-0.072,0.242-0.17,0.337-0.291v-4.16h1.101V20.639z M15.616,19.502
		c0,0.387-0.084,0.688-0.255,0.895c-0.168,0.205-0.422,0.314-0.746,0.314c-0.221,0-0.403-0.037-0.57-0.119
		c-0.17-0.088-0.326-0.207-0.472-0.377v0.424h-1.101v-7.416h1.101v2.383c0.146-0.158,0.302-0.289,0.472-0.375
		c0.167-0.086,0.339-0.133,0.506-0.133c0.34,0,0.606,0.119,0.788,0.35c0.183,0.23,0.277,0.568,0.277,1.016V19.502z M19.415,18.037
		h-2.094v1.029c0,0.289,0.025,0.484,0.1,0.594c0.07,0.119,0.204,0.168,0.374,0.168c0.181,0,0.3-0.049,0.375-0.145
		c0.072-0.086,0.108-0.303,0.108-0.617v-0.254h1.137v0.277c0,0.57-0.145,0.99-0.423,1.27c-0.265,0.291-0.678,0.426-1.222,0.426
		c-0.496,0-0.884-0.146-1.164-0.449c-0.273-0.301-0.42-0.713-0.42-1.246v-2.457c0-0.471,0.156-0.857,0.471-1.16
		c0.303-0.293,0.701-0.447,1.196-0.447c0.499,0,0.885,0.145,1.149,0.422c0.268,0.279,0.412,0.666,0.412,1.186V18.037z
		 M14.031,15.967c-0.072,0-0.156,0.014-0.229,0.049c-0.071,0.037-0.157,0.098-0.229,0.17v3.412c0.084,0.086,0.182,0.158,0.266,0.193
		c0.085,0.037,0.17,0.062,0.256,0.062c0.145,0,0.239-0.037,0.3-0.121c0.061-0.072,0.098-0.195,0.098-0.377v-2.83
		c0-0.184-0.037-0.314-0.121-0.412C14.298,16.016,14.177,15.967,14.031,15.967z M14.371,16.113c-0.073-0.098-0.194-0.146-0.34-0.146
		c-0.072,0-0.156,0.014-0.229,0.049c-0.071,0.037-0.157,0.098-0.229,0.17v3.412c0.084,0.086,0.182,0.158,0.266,0.193
		c0.085,0.037,0.17,0.062,0.256,0.062c0.145,0,0.239-0.037,0.3-0.121c0.061-0.072,0.098-0.195,0.098-0.377v-2.83
		C14.492,16.342,14.455,16.211,14.371,16.113z M14.371,16.113c-0.073-0.098-0.194-0.146-0.34-0.146
		c-0.072,0-0.156,0.014-0.229,0.049c-0.071,0.037-0.157,0.098-0.229,0.17v3.412c0.084,0.086,0.182,0.158,0.266,0.193
		c0.085,0.037,0.17,0.062,0.256,0.062c0.145,0,0.239-0.037,0.3-0.121c0.061-0.072,0.098-0.195,0.098-0.377v-2.83
		C14.492,16.342,14.455,16.211,14.371,16.113z"/>
</g>
<g id="Layer_2">
</g>
</svg>
