<?xml version="1.0" encoding="utf-8"?>
<!-- Generator: Adobe Illustrator 16.0.0, SVG Export Plug-In . SVG Version: 6.00 Build 0)  -->
<!DOCTYPE svg PUBLIC "-//W3C//DTD SVG 1.1//EN" "http://www.w3.org/Graphics/SVG/1.1/DTD/svg11.dtd">
<svg version="1.1" id="Layer_1" xmlns="http://www.w3.org/2000/svg" xmlns:xlink="http://www.w3.org/1999/xlink" x="0px" y="0px"
	 width="60px" height="60px" viewBox="0 0 60 60" enable-background="new 0 0 60 60" xml:space="preserve">
<g>
	<path fill-rule="evenodd" clip-rule="evenodd" fill="#010101" d="M-20,30.001C-20,46.57-33.432,60-50.001,60
		C-66.568,60-80,46.57-80,30.001C-80,13.43-66.568,0-50.001,0C-33.432,0-20,13.43-20,30.001z"/>
	<g>
		<g>
			<path fill="#A6A8AC" d="M-35.075,39.27l-6.221-12.264c-0.236-0.546-0.874-0.799-1.426-0.562
				c-0.202,0.089-0.364,0.226-0.476,0.396c-0.195,0.301-0.237,0.685-0.086,1.035l5.561,10.741l-7.562-0.003
				c0.006-0.105,0.049-0.848,0.062-1.166c0.017-0.347-0.301-0.046-0.301-0.046l-2.638,1.956c0,0-0.213,0.165-0.041,0.354
				c0.234,0.257,2.5,2.165,2.5,2.165s0.298,0.33,0.322-0.087c0.018-0.333,0.047-0.83,0.053-1.011l9.263,0.001
				c0.359,0,0.704-0.184,0.904-0.486C-34.964,39.985-34.928,39.604-35.075,39.27z"/>
			<path fill="#A6A8AC" d="M-50.566,38.818l-11.712,0.01l3.647-6.943c0.088,0.048,0.754,0.383,1.041,0.528
				c0.311,0.15,0.158-0.259,0.158-0.259l-0.744-3.203c0,0-0.064-0.258-0.304-0.177c-0.336,0.111-2.988,1.436-2.988,1.436
				s-0.426,0.141-0.051,0.326c0.303,0.148,0.744,0.371,0.911,0.452l-4.315,8.487c-0.149,0.336-0.111,0.728,0.089,1.032
				c0.198,0.306,0.541,0.49,0.905,0.49l13.362-0.015c0.604,0,1.085-0.481,1.084-1.081c-0.002-0.216-0.062-0.427-0.176-0.594
				C-49.851,39.019-50.188,38.818-50.566,38.818z"/>
			<path fill="#A6A8AC" d="M-57.579,27.179c0.193,0.123,0.412,0.182,0.634,0.179c0.374,0,0.746-0.176,0.963-0.488l5.697-9.808
				l4.433,6.316c-0.096,0.053-0.777,0.433-1.076,0.594c-0.317,0.173,0.14,0.271,0.14,0.271l3.285,1.13c0,0,0.272,0.089,0.34-0.156
				c0.1-0.344,0.464-3.287,0.464-3.287s0.125-0.432-0.264-0.221c-0.306,0.17-0.761,0.42-0.934,0.513l-5.423-7.73
				c-0.215-0.308-0.578-0.492-0.967-0.49c-0.386,0-0.749,0.187-0.963,0.491l-6.665,11.187
				C-58.265,26.179-58.115,26.855-57.579,27.179z"/>
		</g>
	</g>
</g>
<g>
	<path fill-rule="evenodd" clip-rule="evenodd" fill="#010101" d="M60,30.001C60,46.57,46.568,60,29.999,60
		C13.432,60,0,46.57,0,30.001C0,13.43,13.432,0,29.999,0C46.568,0,60,13.43,60,30.001z"/>
	<g>
		<polygon fill="#A6A8AC" points="41.315,15 33.443,16.288 35.336,18.603 18.685,32.227 19.95,33.774 36.603,20.149 38.495,22.462 
					"/>
		<polygon fill="#A6A8AC" points="39.143,26.41 37.315,24.179 37.315,43 41.315,43 41.315,20.659 		"/>
		<polygon fill="#A6A8AC" points="25.316,31.967 25.316,43 29.316,43 29.316,28.696 		"/>
		<polygon fill="#A6A8AC" points="19.667,36.587 19.316,36.158 19.316,43 23.316,43 23.316,33.602 		"/>
		<polygon fill="#A6A8AC" points="31.316,27.059 31.316,43 35.317,43 35.317,23.786 		"/>
	</g>
</g>
<g>
	<circle fill-rule="evenodd" clip-rule="evenodd" fill="#010101" cx="110" cy="30" r="30"/>
	<g>
		<path fill="#A6A8AC" d="M119.114,35.301c0.206,0.348,0.312,0.758,0.312,1.225c0,0.715-0.216,1.312-0.642,1.791
			c-0.428,0.477-1.043,0.76-1.85,0.844v1.227h-1.027v-1.223c-1.342-0.137-2.173-0.918-2.493-2.34l1.587-0.414
			c0.146,0.893,0.635,1.342,1.46,1.342c0.387,0,0.673-0.094,0.854-0.287c0.183-0.193,0.274-0.422,0.274-0.693
			c0-0.281-0.092-0.494-0.274-0.637c-0.182-0.146-0.588-0.328-1.215-0.551c-0.565-0.195-1.005-0.389-1.325-0.582
			c-0.315-0.189-0.572-0.457-0.771-0.801c-0.198-0.346-0.298-0.748-0.298-1.207c0-0.598,0.179-1.139,0.531-1.619
			c0.355-0.479,0.909-0.773,1.67-0.881v-0.945h1.027v0.945c1.146,0.139,1.891,0.787,2.23,1.947l-1.418,0.58
			c-0.273-0.795-0.699-1.193-1.277-1.193c-0.291,0-0.522,0.088-0.697,0.268c-0.177,0.176-0.265,0.393-0.265,0.646
			c0,0.256,0.084,0.455,0.254,0.596c0.169,0.137,0.531,0.307,1.086,0.51c0.608,0.225,1.089,0.434,1.435,0.633
			C118.631,34.676,118.906,34.951,119.114,35.301z M125.451,34.967c0,4.988-4.043,9.033-9.032,9.033
			c-4.988,0-9.032-4.045-9.032-9.033c0-4.99,4.044-9.032,9.032-9.032C121.408,25.935,125.451,29.977,125.451,34.967z
			 M123.645,34.967c0-3.986-3.24-7.227-7.226-7.227s-7.226,3.24-7.226,7.227c0,3.984,3.24,7.227,7.226,7.227
			S123.645,38.951,123.645,34.967z M111,18.708h10.838c0.499,0,0.902-0.301,0.902-0.677v-1.354c0-0.375-0.403-0.677-0.902-0.677H111
			c-0.5,0-0.903,0.302-0.903,0.677v1.354C110.097,18.407,110.5,18.708,111,18.708z M111,22.323h10.838
			c0.499,0,0.902-0.304,0.902-0.678v-1.356c0-0.373-0.403-0.677-0.902-0.677H111c-0.5,0-0.903,0.304-0.903,0.677v1.356
			C110.097,22.02,110.5,22.323,111,22.323z M97.451,40.387h10.652c-0.541-0.826-0.959-1.738-1.235-2.713h-9.417
			c-0.5,0-0.903,0.305-0.903,0.68v1.355C96.548,40.082,96.951,40.387,97.451,40.387z M108.29,41.289H97.451
			c-0.5,0-0.903,0.303-0.903,0.678v1.355c0,0.373,0.403,0.678,0.903,0.678h10.839c0.498,0,0.903-0.305,0.903-0.678v-1.355
			C109.193,41.592,108.788,41.289,108.29,41.289z M97.451,36.773h9.205c-0.109-0.588-0.172-1.189-0.172-1.807
			c0-0.307,0.017-0.605,0.044-0.902h-9.077c-0.5,0-0.903,0.303-0.903,0.676v1.355C96.548,36.471,96.951,36.773,97.451,36.773z
			 M111,25.935h1.304c1.255-0.575,2.646-0.901,4.115-0.901c1.467,0,2.859,0.326,4.114,0.901h1.305c0.499,0,0.902-0.304,0.902-0.677
			v-1.355c0-0.375-0.403-0.678-0.902-0.678H111c-0.5,0-0.903,0.303-0.903,0.678v1.355C110.097,25.631,110.5,25.935,111,25.935z
			 M97.451,25.935h10.839c0.498,0,0.903-0.304,0.903-0.677v-1.355c0-0.375-0.405-0.678-0.903-0.678H97.451
			c-0.5,0-0.903,0.303-0.903,0.678v1.355C96.548,25.631,96.951,25.935,97.451,25.935z M97.451,33.16h9.205
			c0.176-0.961,0.491-1.869,0.925-2.709h-10.13c-0.5,0-0.903,0.301-0.903,0.676v1.355C96.548,32.857,96.951,33.16,97.451,33.16z
			 M97.451,29.549h10.652c0.32-0.496,0.687-0.953,1.09-1.382v-0.651c0-0.373-0.405-0.677-0.903-0.677H97.451
			c-0.5,0-0.903,0.304-0.903,0.677v1.355C96.548,29.244,96.951,29.549,97.451,29.549z"/>
	</g>
</g>
<g>
	<circle fill-rule="evenodd" clip-rule="evenodd" fill="#010101" cx="190" cy="30" r="30"/>
	<g>
		<g>
			<path fill="#A6A8AC" d="M200.174,32.871h-23.197v1.725h23.197c1.725,0,3.123,1.402,3.123,3.123c0,1.725-1.398,3.123-3.123,3.123
				h-23.197v1.727h23.197c2.672,0,4.85-2.178,4.85-4.85C205.023,35.049,202.846,32.871,200.174,32.871z"/>
			<path fill="#A6A8AC" d="M202.076,37.811c0-1.043-0.844-1.885-1.883-1.885h-21.651v3.766h21.651
				C201.232,39.691,202.076,38.848,202.076,37.811z"/>
		</g>
		<g>
			<path fill="#A6A8AC" d="M193.458,20.02c-0.814,0-1.576,0.285-2.235,0.761c0.045-2.795,1.725-3.524,1.803-3.554
				c0.221-0.089,0.328-0.338,0.241-0.557c-0.087-0.223-0.337-0.332-0.557-0.244c-0.096,0.034-2.221,0.911-2.345,4.184
				c-0.593-0.375-1.254-0.59-1.95-0.59c-2.462,0-4.455,2.612-4.455,5.834c0,3.221,1.993,5.836,4.455,5.836c0.896,0,4.097,0,5.043,0
				c2.526,0,4.58-2.615,4.58-5.836C198.038,22.632,195.984,20.02,193.458,20.02z"/>
			<path fill="#A6A8AC" d="M189.608,19.331c0.544-0.568,0.133-1.841-0.916-2.842c-1.048-1.004-2.342-1.355-2.88-0.787
				c-0.547,0.568-0.135,1.84,0.912,2.842C187.776,19.549,189.068,19.899,189.608,19.331z"/>
		</g>
	</g>
</g>
<g>
	<path fill-rule="evenodd" clip-rule="evenodd" fill="#010101" d="M300,30.001C300,46.57,286.568,60,269.999,60
		C253.432,60,240,46.57,240,30.001C240,13.43,253.432,0,269.999,0C286.568,0,300,13.43,300,30.001z"/>
	<g>
		<polygon fill="#A6A8AC" points="257.487,23.694 258.363,25.346 258.381,25.346 258.381,35.22 261.748,35.22 261.748,25.346 
			261.718,25.346 262.642,23.694 		"/>
		<polygon fill="#A6A8AC" points="264.11,23.694 264.984,25.346 265.004,25.346 265.004,35.22 268.371,35.22 268.371,25.346 
			268.338,25.346 269.264,23.694 		"/>
		<polygon fill="#A6A8AC" points="270.73,23.694 271.609,25.346 271.625,25.346 271.625,35.22 274.996,35.22 274.996,25.346 
			274.964,25.346 275.888,23.694 		"/>
		<polygon fill="#A6A8AC" points="277.355,23.694 278.23,25.346 278.246,25.346 278.246,35.22 281.615,35.22 281.615,25.346 
			281.583,25.346 282.509,23.694 		"/>
		<path fill="#A6A8AC" d="M270.068,13.688l-13.383,8.325c0.069,0,26.624,0,26.624,0L270.068,13.688z M269.996,20.394
			c-0.91,0-1.651-0.739-1.651-1.655c0-0.91,0.741-1.649,1.651-1.649c0.915,0,1.655,0.739,1.655,1.649
			C271.651,19.654,270.911,20.394,269.996,20.394z"/>
		<polygon fill="#A6A8AC" points="282.486,37.007 257.545,37.007 256.672,40.312 283.328,40.312 		"/>
	</g>
</g>
<g>
	<path fill-rule="evenodd" clip-rule="evenodd" fill="#010101" d="M380,30.001C380,46.57,366.568,60,349.999,60
		C333.432,60,320,46.57,320,30.001C320,13.43,333.432,0,349.999,0C366.568,0,380,13.43,380,30.001z"/>
	<g>
		<g>
			<g>
				<path fill="#A6A8AC" d="M359.112,25.271H357.7v-3.727c0-4.024-3.246-7.298-7.231-7.298h-0.95c-3.991,0-7.237,3.273-7.237,7.298
					v3.727h-1.407c-0.489,0-0.88,0.392-0.88,0.878v15.089c0,0.486,0.391,0.881,0.88,0.881h18.238c0.482,0,0.882-0.395,0.882-0.881
					V26.149C359.994,25.663,359.595,25.271,359.112,25.271z M351.251,34.611v2.822c0,0.486-0.396,0.877-0.882,0.877h-0.757
					c-0.484,0-0.878-0.391-0.878-0.877v-2.82c-0.556-0.393-0.925-1.037-0.925-1.771c0-1.205,0.979-2.181,2.181-2.181
					c1.203,0,2.18,0.976,2.18,2.181C352.17,33.576,351.805,34.221,351.251,34.611z M354.185,25.271h-8.387v-3.727
					c0-2.084,1.669-3.782,3.721-3.782h0.95c2.05,0,3.716,1.698,3.716,3.782V25.271z"/>
			</g>
		</g>
	</g>
</g>
<g>
	<path fill-rule="evenodd" clip-rule="evenodd" fill="#010101" d="M460,30.001C460,46.57,446.568,60,429.998,60
		C413.432,60,400,46.57,400,30.001C400,13.43,413.432,0,429.998,0C446.568,0,460,13.43,460,30.001z"/>
	<g>
		<path fill="#A6A8AC" d="M430.789,26.093c-0.045,0.121-0.078,0.25-0.092,0.376c-0.008,0.141-0.006,0.285,0.02,0.423
			c0.02,0.087,0.035,0.171,0.064,0.255c0.137,0.379,0.42,0.682,0.791,0.85c0.199,0.092,0.412,0.141,0.631,0.141
			c0.275,0,0.531-0.074,0.76-0.207c0.125-0.075,0.236-0.163,0.34-0.266c0.086-0.09,0.16-0.198,0.227-0.312
			c0.02-0.033,0.033-0.063,0.055-0.098c0,0,3.025-6.588,3.031-6.603c0.006-0.012,0.094-0.267,0.115-0.366
			c0.111-0.661-0.219-1.352-0.857-1.646c-0.205-0.092-0.416-0.138-0.633-0.138c-0.463,0-0.889,0.214-1.178,0.561
			c-0.076,0.098-0.148,0.204-0.205,0.323v-0.003v0.003l-0.002,0.003l-3.029,6.597C430.812,26.023,430.801,26.057,430.789,26.093z"/>
		<path fill="#A6A8AC" d="M432.152,18.841c0.068,0.063,0.115,0.148,0.141,0.241c0.076,0.218,0.059,0.498,0,0.778
			c-0.025,0.148-0.072,0.289-0.123,0.431c-0.02,0.047-0.037,0.1-0.059,0.149c-0.031,0.076-0.066,0.163-0.117,0.258
			c-0.41,0.812-1.471,2.179-3.949,2.264h-0.008l-1.031,2.153c0.641,0.153,1.793,0.515,2.791,1.291l3.373-7.338
			c0.055-0.121,0.09-0.24,0.109-0.365c0.125-0.665-0.213-1.354-0.857-1.647c-0.195-0.09-0.406-0.14-0.633-0.14
			c-0.455,0-0.881,0.211-1.174,0.564c-0.074,0.098-0.148,0.205-0.203,0.32v-0.003v0.003l0,0l-0.43,0.931h2.062L432.152,18.841z"/>
		<path fill="#A6A8AC" d="M428.164,18.731h0.367h0.621l0.572-1.243c0.057-0.121,0.08-0.246,0.102-0.369
			c0.117-0.664-0.211-1.35-0.852-1.646c-0.201-0.095-0.41-0.136-0.633-0.136c-0.461,0-0.885,0.211-1.174,0.559
			c-0.082,0.098-0.154,0.204-0.203,0.326h-0.002l-1.15,2.509h1.26H428.164z"/>
		<polygon fill="#A6A8AC" points="429.725,17.484 429.725,17.484 429.725,17.484 429.725,17.488 		"/>
		<polygon fill="#A6A8AC" points="436.275,23.217 436.275,23.217 436.275,23.217 		"/>
		<polygon fill="#A6A8AC" points="433.375,27.702 433.383,27.702 433.375,27.702 		"/>
		<polygon fill="#A6A8AC" points="433.383,27.698 433.383,27.702 433.383,27.702 		"/>
		<path fill="#A6A8AC" d="M438.904,24.43c0-0.17-0.094-0.527-0.1-0.529c-0.211-0.576-0.764-0.99-1.416-0.99
			c-0.139,0-0.273,0.024-0.393,0.058c-0.217,0.061-0.418,0.167-0.59,0.31c-0.195,0.173-0.35,0.386-0.438,0.636
			c0,0,0,0.005-0.006,0.009l-1.893,4.096l0,0c-0.059,0.119-0.084,0.252-0.09,0.377c0,0.047,0,0.089,0.004,0.135
			c0.027,0.357,0.244,0.688,0.586,0.85c0.166,0.072,0.348,0.1,0.516,0.08c0.234-0.024,0.443-0.119,0.613-0.275
			c0.084-0.074,0.15-0.164,0.199-0.262l0.984-2.131l0.693,0.321l0.066-0.149l-1.027,2.226v0.004
			c-0.016,0.039-0.037,0.069-0.055,0.107c-0.043,0.073-0.084,0.146-0.139,0.214c-0.113,0.145-0.236,0.264-0.383,0.369
			c-0.271,0.201-0.607,0.324-0.953,0.342c-0.027,0.002-0.057,0.005-0.084,0.005l0,0c-0.26,0-0.514-0.057-0.75-0.159
			c-0.352-0.166-0.621-0.434-0.803-0.748c-0.084-0.15-0.143-0.314-0.184-0.486c-0.021-0.062-0.027-0.127-0.033-0.194
			c-0.113,0.062-0.242,0.116-0.363,0.154c-0.217,0.064-0.436,0.101-0.666,0.101l0,0c-0.262,0-0.439-0.045-0.684-0.135
			c0.139,0.456,0.221,0.961,0.221,1.535v2.878h-0.758v-2.878c0-0.69-0.211-1.272-0.432-1.768c-1.035-2.336-3.998-2.74-4.148-2.762
			l-0.525-0.063l1.68-3.497h0.238c0.062,0,0.117-0.01,0.182-0.01c0.145-0.002,0.293-0.01,0.426-0.021
			c1.449-0.151,2.246-0.831,2.664-1.409c0.033-0.049,0.066-0.098,0.098-0.148c0.074-0.115,0.137-0.229,0.189-0.34
			c0.061-0.125,0.104-0.247,0.141-0.355c0.051-0.176,0.08-0.324,0.09-0.438h-6.277c-0.754,0-1.412,0.399-1.781,0.996
			c-0.084,0.14-0.156,0.291-0.207,0.445l-1.973,4.232l-0.102,0.219c-0.096,0.238-0.15,0.502-0.15,0.78
			c0,0.377,0.102,0.729,0.277,1.038l0.213,0.303l4.842,6.422v8.741h9.111l0,0h0.758v-6.449l2.418-4.911
			c0.033-0.062,0.064-0.121,0.092-0.186c0.061-0.164,0.098-0.34,0.1-0.522C438.904,30.588,438.904,24.43,438.904,24.43z"/>
	</g>
</g>
<g>
	<path fill-rule="evenodd" clip-rule="evenodd" fill="#010101" d="M540,30.001C540,46.57,526.568,60,509.998,60
		C493.432,60,480,46.57,480,30.001C480,13.43,493.432,0,509.998,0C526.568,0,540,13.43,540,30.001z"/>
	<g>
		<path fill="#A6A8AC" d="M501,15v28h21V15H501z M512,30.471V32h-7v-1.529V30h7V30.471z M518,25.97V27h-13v-1.03V25h13V25.97z
			 M518,21.47V23h-13v-1.53V21h13V21.47z"/>
	</g>
</g>
<g>
	<path fill-rule="evenodd" clip-rule="evenodd" fill="#010101" d="M620,30.001C620,46.57,606.568,60,589.998,60
		C573.432,60,560,46.57,560,30.001C560,13.43,573.432,0,589.998,0C606.568,0,620,13.43,620,30.001z"/>
</g>
<g>
	<g>
		<path fill="#A6A8AC" d="M601.387,35.914h-0.498V25.74c0-1.248-1.029-2.273-2.281-2.273h-1.691c-1.254,0-2.273,1.025-2.273,2.273
			v10.174h-2.266V25.74c0-1.248-0.996-2.273-2.244-2.273h-1.697c-1.246,0-2.258,1.025-2.258,2.273v10.174h-1.467l-0.182-2.827
			h-6.883l-0.182,2.827h-0.852c-0.338,0-0.613,0.271-0.613,0.614v3.857c0,0.339,0.275,0.614,0.613,0.614h24.773
			c0.336,0,0.613-0.275,0.613-0.614v-3.857C602,36.186,601.723,35.914,601.387,35.914z"/>
		<path fill="#A6A8AC" d="M583.395,15.744c-0.027-0.418-0.371-0.744-0.791-0.744h-0.018h-3.002h-0.012
			c-0.422,0-0.771,0.326-0.797,0.744l-1.02,15.634h6.664L583.395,15.744z"/>
	</g>
</g>
</svg>
