<?xml version="1.0" encoding="utf-8"?>
<!-- Generator: Adobe Illustrator 16.0.0, SVG Export Plug-In . SVG Version: 6.00 Build 0)  -->
<!DOCTYPE svg PUBLIC "-//W3C//DTD SVG 1.1//EN" "http://www.w3.org/Graphics/SVG/1.1/DTD/svg11.dtd">
<svg version="1.1" id="Layer_1" xmlns="http://www.w3.org/2000/svg" xmlns:xlink="http://www.w3.org/1999/xlink" x="0px" y="0px"
	 width="60px" height="60px" viewBox="0 0 60 60" enable-background="new 0 0 60 60" xml:space="preserve">
<g>
	<path fill-rule="evenodd" clip-rule="evenodd" fill="#010101" d="M-500,30.001C-500,46.57-513.432,60-530.001,60
		C-546.568,60-560,46.57-560,30.001C-560,13.43-546.568,0-530.001,0C-513.432,0-500,13.43-500,30.001z"/>
	<g>
		<g>
			<path fill="#A6A8AC" d="M-515.075,39.27l-6.221-12.264c-0.236-0.546-0.874-0.799-1.426-0.562
				c-0.202,0.089-0.364,0.226-0.476,0.396c-0.195,0.301-0.237,0.685-0.086,1.035l5.561,10.741l-7.562-0.003
				c0.006-0.105,0.049-0.848,0.062-1.166c0.017-0.347-0.301-0.046-0.301-0.046l-2.638,1.956c0,0-0.213,0.165-0.041,0.354
				c0.234,0.257,2.5,2.165,2.5,2.165s0.298,0.33,0.322-0.087c0.018-0.333,0.047-0.83,0.053-1.011l9.263,0.001
				c0.359,0,0.704-0.184,0.904-0.486C-514.964,39.985-514.928,39.604-515.075,39.27z"/>
			<path fill="#A6A8AC" d="M-530.566,38.818l-11.712,0.01l3.647-6.943c0.088,0.048,0.754,0.383,1.041,0.528
				c0.311,0.15,0.158-0.259,0.158-0.259l-0.744-3.203c0,0-0.064-0.258-0.304-0.177c-0.336,0.111-2.988,1.436-2.988,1.436
				s-0.426,0.141-0.051,0.326c0.303,0.148,0.744,0.371,0.911,0.452l-4.315,8.487c-0.149,0.336-0.111,0.728,0.089,1.032
				c0.198,0.306,0.541,0.49,0.905,0.49l13.362-0.015c0.604,0,1.085-0.481,1.084-1.081c-0.002-0.216-0.062-0.427-0.176-0.594
				C-529.851,39.019-530.188,38.818-530.566,38.818z"/>
			<path fill="#A6A8AC" d="M-537.579,27.179c0.193,0.123,0.412,0.182,0.634,0.179c0.374,0,0.746-0.176,0.963-0.488l5.697-9.808
				l4.433,6.316c-0.096,0.053-0.777,0.433-1.076,0.594c-0.317,0.173,0.14,0.271,0.14,0.271l3.285,1.13c0,0,0.272,0.089,0.34-0.156
				c0.1-0.344,0.464-3.287,0.464-3.287s0.125-0.432-0.264-0.221c-0.306,0.17-0.761,0.42-0.934,0.513l-5.423-7.73
				c-0.215-0.308-0.578-0.492-0.967-0.49c-0.386,0-0.749,0.187-0.963,0.491l-6.665,11.187
				C-538.265,26.179-538.115,26.855-537.579,27.179z"/>
		</g>
	</g>
</g>
<g>
	<path fill-rule="evenodd" clip-rule="evenodd" fill="#010101" d="M-420,30.001C-420,46.57-433.432,60-450.001,60
		C-466.568,60-480,46.57-480,30.001C-480,13.43-466.568,0-450.001,0C-433.432,0-420,13.43-420,30.001z"/>
	<g>
		<polygon fill="#A6A8AC" points="-438.685,15 -446.557,16.288 -444.664,18.603 -461.315,32.227 -460.05,33.774 -443.397,20.149 
			-441.505,22.462 		"/>
		<polygon fill="#A6A8AC" points="-440.857,26.41 -442.685,24.179 -442.685,43 -438.685,43 -438.685,20.659 		"/>
		<polygon fill="#A6A8AC" points="-454.684,31.967 -454.684,43 -450.684,43 -450.684,28.696 		"/>
		<polygon fill="#A6A8AC" points="-460.333,36.587 -460.684,36.158 -460.684,43 -456.684,43 -456.684,33.602 		"/>
		<polygon fill="#A6A8AC" points="-448.684,27.059 -448.684,43 -444.683,43 -444.683,23.786 		"/>
	</g>
</g>
<g>
	<circle fill-rule="evenodd" clip-rule="evenodd" fill="#010101" cx="-370" cy="30" r="30"/>
	<g>
		<path fill="#A6A8AC" d="M-360.886,35.301c0.206,0.348,0.312,0.758,0.312,1.225c0,0.715-0.216,1.312-0.642,1.791
			c-0.428,0.477-1.043,0.76-1.85,0.844v1.227h-1.027v-1.223c-1.342-0.137-2.173-0.918-2.493-2.34l1.587-0.414
			c0.146,0.893,0.635,1.342,1.46,1.342c0.387,0,0.673-0.094,0.854-0.287c0.183-0.193,0.274-0.422,0.274-0.693
			c0-0.281-0.092-0.494-0.274-0.637c-0.182-0.146-0.588-0.328-1.215-0.551c-0.565-0.195-1.005-0.389-1.325-0.582
			c-0.315-0.189-0.572-0.457-0.771-0.801c-0.198-0.346-0.298-0.748-0.298-1.207c0-0.598,0.179-1.139,0.531-1.619
			c0.355-0.479,0.909-0.773,1.67-0.881v-0.945h1.027v0.945c1.146,0.139,1.891,0.787,2.23,1.947l-1.418,0.58
			c-0.273-0.795-0.699-1.193-1.277-1.193c-0.291,0-0.522,0.088-0.697,0.268c-0.177,0.176-0.265,0.393-0.265,0.646
			c0,0.256,0.084,0.455,0.254,0.596c0.169,0.137,0.531,0.307,1.086,0.51c0.608,0.225,1.089,0.434,1.435,0.633
			C-361.369,34.676-361.094,34.951-360.886,35.301z M-354.549,34.967c0,4.988-4.043,9.033-9.032,9.033
			c-4.988,0-9.032-4.045-9.032-9.033c0-4.99,4.044-9.032,9.032-9.032C-358.592,25.935-354.549,29.977-354.549,34.967z
			 M-356.355,34.967c0-3.986-3.24-7.227-7.226-7.227s-7.226,3.24-7.226,7.227c0,3.984,3.24,7.227,7.226,7.227
			S-356.355,38.951-356.355,34.967z M-369,18.708h10.838c0.499,0,0.902-0.301,0.902-0.677v-1.354c0-0.375-0.403-0.677-0.902-0.677
			H-369c-0.5,0-0.903,0.302-0.903,0.677v1.354C-369.903,18.407-369.5,18.708-369,18.708z M-369,22.323h10.838
			c0.499,0,0.902-0.304,0.902-0.678v-1.356c0-0.373-0.403-0.677-0.902-0.677H-369c-0.5,0-0.903,0.304-0.903,0.677v1.356
			C-369.903,22.02-369.5,22.323-369,22.323z M-382.549,40.387h10.652c-0.541-0.826-0.959-1.738-1.235-2.713h-9.417
			c-0.5,0-0.903,0.305-0.903,0.68v1.355C-383.452,40.082-383.049,40.387-382.549,40.387z M-371.71,41.289h-10.839
			c-0.5,0-0.903,0.303-0.903,0.678v1.355c0,0.373,0.403,0.678,0.903,0.678h10.839c0.498,0,0.903-0.305,0.903-0.678v-1.355
			C-370.807,41.592-371.212,41.289-371.71,41.289z M-382.549,36.773h9.205c-0.109-0.588-0.172-1.189-0.172-1.807
			c0-0.307,0.017-0.605,0.044-0.902h-9.077c-0.5,0-0.903,0.303-0.903,0.676v1.355C-383.452,36.471-383.049,36.773-382.549,36.773z
			 M-369,25.935h1.304c1.255-0.575,2.646-0.901,4.115-0.901c1.467,0,2.859,0.326,4.114,0.901h1.305c0.499,0,0.902-0.304,0.902-0.677
			v-1.355c0-0.375-0.403-0.678-0.902-0.678H-369c-0.5,0-0.903,0.303-0.903,0.678v1.355C-369.903,25.631-369.5,25.935-369,25.935z
			 M-382.549,25.935h10.839c0.498,0,0.903-0.304,0.903-0.677v-1.355c0-0.375-0.405-0.678-0.903-0.678h-10.839
			c-0.5,0-0.903,0.303-0.903,0.678v1.355C-383.452,25.631-383.049,25.935-382.549,25.935z M-382.549,33.16h9.205
			c0.176-0.961,0.491-1.869,0.925-2.709h-10.13c-0.5,0-0.903,0.301-0.903,0.676v1.355C-383.452,32.857-383.049,33.16-382.549,33.16z
			 M-382.549,29.549h10.652c0.32-0.496,0.687-0.953,1.09-1.382v-0.651c0-0.373-0.405-0.677-0.903-0.677h-10.839
			c-0.5,0-0.903,0.304-0.903,0.677v1.355C-383.452,29.244-383.049,29.549-382.549,29.549z"/>
	</g>
</g>
<g>
	<circle fill-rule="evenodd" clip-rule="evenodd" fill="#010101" cx="-290" cy="30" r="30"/>
	<g>
		<g>
			<path fill="#A6A8AC" d="M-279.826,32.871h-23.197v1.725h23.197c1.725,0,3.123,1.402,3.123,3.123c0,1.725-1.398,3.123-3.123,3.123
				h-23.197v1.727h23.197c2.672,0,4.85-2.178,4.85-4.85C-274.977,35.049-277.154,32.871-279.826,32.871z"/>
			<path fill="#A6A8AC" d="M-277.924,37.811c0-1.043-0.844-1.885-1.883-1.885h-21.651v3.766h21.651
				C-278.768,39.691-277.924,38.848-277.924,37.811z"/>
		</g>
		<g>
			<path fill="#A6A8AC" d="M-286.542,20.02c-0.814,0-1.576,0.285-2.235,0.761c0.045-2.795,1.725-3.524,1.803-3.554
				c0.221-0.089,0.328-0.338,0.241-0.557c-0.087-0.223-0.337-0.332-0.557-0.244c-0.096,0.034-2.221,0.911-2.345,4.184
				c-0.593-0.375-1.254-0.59-1.95-0.59c-2.462,0-4.455,2.612-4.455,5.834c0,3.221,1.993,5.836,4.455,5.836c0.896,0,4.097,0,5.043,0
				c2.526,0,4.58-2.615,4.58-5.836C-281.962,22.632-284.016,20.02-286.542,20.02z"/>
			<path fill="#A6A8AC" d="M-290.392,19.331c0.544-0.568,0.133-1.841-0.916-2.842c-1.048-1.004-2.342-1.355-2.88-0.787
				c-0.547,0.568-0.135,1.84,0.912,2.842C-292.224,19.549-290.932,19.899-290.392,19.331z"/>
		</g>
	</g>
</g>
<g>
	<path fill-rule="evenodd" clip-rule="evenodd" fill="#010101" d="M-180,30.001C-180,46.57-193.432,60-210.001,60
		C-226.568,60-240,46.57-240,30.001C-240,13.43-226.568,0-210.001,0C-193.432,0-180,13.43-180,30.001z"/>
	<g>
		<polygon fill="#A6A8AC" points="-222.513,23.694 -221.637,25.346 -221.619,25.346 -221.619,35.22 -218.252,35.22 -218.252,25.346 
			-218.282,25.346 -217.358,23.694 		"/>
		<polygon fill="#A6A8AC" points="-215.89,23.694 -215.016,25.346 -214.996,25.346 -214.996,35.22 -211.629,35.22 -211.629,25.346 
			-211.662,25.346 -210.736,23.694 		"/>
		<polygon fill="#A6A8AC" points="-209.27,23.694 -208.391,25.346 -208.375,25.346 -208.375,35.22 -205.004,35.22 -205.004,25.346 
			-205.036,25.346 -204.112,23.694 		"/>
		<polygon fill="#A6A8AC" points="-202.645,23.694 -201.77,25.346 -201.754,25.346 -201.754,35.22 -198.385,35.22 -198.385,25.346 
			-198.417,25.346 -197.491,23.694 		"/>
		<path fill="#A6A8AC" d="M-209.932,13.688l-13.383,8.325c0.069,0,26.624,0,26.624,0L-209.932,13.688z M-210.004,20.394
			c-0.91,0-1.651-0.739-1.651-1.655c0-0.91,0.741-1.649,1.651-1.649c0.915,0,1.655,0.739,1.655,1.649
			C-208.349,19.654-209.089,20.394-210.004,20.394z"/>
		<polygon fill="#A6A8AC" points="-197.514,37.007 -222.455,37.007 -223.328,40.312 -196.672,40.312 		"/>
	</g>
</g>
<g>
	<path fill-rule="evenodd" clip-rule="evenodd" fill="#010101" d="M-100,30.001C-100,46.57-113.432,60-130.001,60
		C-146.568,60-160,46.57-160,30.001C-160,13.43-146.568,0-130.001,0C-113.432,0-100,13.43-100,30.001z"/>
	<g>
		<g>
			<g>
				<path fill="#A6A8AC" d="M-120.888,25.271h-1.412v-3.727c0-4.024-3.246-7.298-7.231-7.298h-0.95
					c-3.991,0-7.237,3.273-7.237,7.298v3.727h-1.407c-0.489,0-0.88,0.392-0.88,0.878v15.089c0,0.486,0.391,0.881,0.88,0.881h18.238
					c0.482,0,0.882-0.395,0.882-0.881V26.149C-120.006,25.663-120.405,25.271-120.888,25.271z M-128.749,34.611v2.822
					c0,0.486-0.396,0.877-0.882,0.877h-0.757c-0.484,0-0.878-0.391-0.878-0.877v-2.82c-0.556-0.393-0.925-1.037-0.925-1.771
					c0-1.205,0.979-2.181,2.181-2.181c1.203,0,2.18,0.976,2.18,2.181C-127.83,33.576-128.195,34.221-128.749,34.611z
					 M-125.815,25.271h-8.387v-3.727c0-2.084,1.669-3.782,3.721-3.782h0.95c2.05,0,3.716,1.698,3.716,3.782V25.271z"/>
			</g>
		</g>
	</g>
</g>
<g>
	<path fill-rule="evenodd" clip-rule="evenodd" fill="#010101" d="M-20,30.001C-20,46.57-33.432,60-50.002,60
		C-66.568,60-80,46.57-80,30.001C-80,13.43-66.568,0-50.002,0C-33.432,0-20,13.43-20,30.001z"/>
	<g>
		<path fill="#A6A8AC" d="M-49.211,26.093c-0.045,0.121-0.078,0.25-0.092,0.376c-0.008,0.141-0.006,0.285,0.02,0.423
			c0.02,0.087,0.035,0.171,0.064,0.255c0.137,0.379,0.42,0.682,0.791,0.85c0.199,0.092,0.412,0.141,0.631,0.141
			c0.275,0,0.531-0.074,0.76-0.207c0.125-0.075,0.236-0.163,0.34-0.266c0.086-0.09,0.16-0.198,0.227-0.312
			c0.02-0.033,0.033-0.063,0.055-0.098c0,0,3.025-6.588,3.031-6.603c0.006-0.012,0.094-0.267,0.115-0.366
			c0.111-0.661-0.219-1.352-0.857-1.646c-0.205-0.092-0.416-0.138-0.633-0.138c-0.463,0-0.889,0.214-1.178,0.561
			c-0.076,0.098-0.148,0.204-0.205,0.323v-0.003v0.003l-0.002,0.003l-3.029,6.597C-49.188,26.023-49.199,26.057-49.211,26.093z"/>
		<path fill="#A6A8AC" d="M-47.848,18.841c0.068,0.063,0.115,0.148,0.141,0.241c0.076,0.218,0.059,0.498,0,0.778
			c-0.025,0.148-0.072,0.289-0.123,0.431c-0.02,0.047-0.037,0.1-0.059,0.149c-0.031,0.076-0.066,0.163-0.117,0.258
			c-0.41,0.812-1.471,2.179-3.949,2.264h-0.008l-1.031,2.153c0.641,0.153,1.793,0.515,2.791,1.291l3.373-7.338
			c0.055-0.121,0.09-0.24,0.109-0.365c0.125-0.665-0.213-1.354-0.857-1.647c-0.195-0.09-0.406-0.14-0.633-0.14
			c-0.455,0-0.881,0.211-1.174,0.564c-0.074,0.098-0.148,0.205-0.203,0.32v-0.003v0.003l0,0l-0.43,0.931h2.062L-47.848,18.841z"/>
		<path fill="#A6A8AC" d="M-51.836,18.731h0.367h0.621l0.572-1.243c0.057-0.121,0.08-0.246,0.102-0.369
			c0.117-0.664-0.211-1.35-0.852-1.646c-0.201-0.095-0.41-0.136-0.633-0.136c-0.461,0-0.885,0.211-1.174,0.559
			c-0.082,0.098-0.154,0.204-0.203,0.326h-0.002l-1.15,2.509h1.26H-51.836z"/>
		<polygon fill="#A6A8AC" points="-50.275,17.484 -50.275,17.484 -50.275,17.484 -50.275,17.488 		"/>
		<polygon fill="#A6A8AC" points="-43.725,23.217 -43.725,23.217 -43.725,23.217 		"/>
		<polygon fill="#A6A8AC" points="-46.625,27.702 -46.617,27.702 -46.625,27.702 		"/>
		<polygon fill="#A6A8AC" points="-46.617,27.698 -46.617,27.702 -46.617,27.702 		"/>
		<path fill="#A6A8AC" d="M-41.096,24.43c0-0.17-0.094-0.527-0.1-0.529c-0.211-0.576-0.764-0.99-1.416-0.99
			c-0.139,0-0.273,0.024-0.393,0.058c-0.217,0.061-0.418,0.167-0.59,0.31c-0.195,0.173-0.35,0.386-0.438,0.636
			c0,0,0,0.005-0.006,0.009l-1.893,4.096l0,0c-0.059,0.119-0.084,0.252-0.09,0.377c0,0.047,0,0.089,0.004,0.135
			c0.027,0.357,0.244,0.688,0.586,0.85c0.166,0.072,0.348,0.1,0.516,0.08c0.234-0.024,0.443-0.119,0.613-0.275
			c0.084-0.074,0.15-0.164,0.199-0.262l0.984-2.131l0.693,0.321l0.066-0.149l-1.027,2.226v0.004
			c-0.016,0.039-0.037,0.069-0.055,0.107c-0.043,0.073-0.084,0.146-0.139,0.214c-0.113,0.145-0.236,0.264-0.383,0.369
			c-0.271,0.201-0.607,0.324-0.953,0.342c-0.027,0.002-0.057,0.005-0.084,0.005l0,0c-0.26,0-0.514-0.057-0.75-0.159
			c-0.352-0.166-0.621-0.434-0.803-0.748c-0.084-0.15-0.143-0.314-0.184-0.486c-0.021-0.062-0.027-0.127-0.033-0.194
			c-0.113,0.062-0.242,0.116-0.363,0.154c-0.217,0.064-0.436,0.101-0.666,0.101l0,0c-0.262,0-0.439-0.045-0.684-0.135
			c0.139,0.456,0.221,0.961,0.221,1.535v2.878h-0.758v-2.878c0-0.69-0.211-1.272-0.432-1.768c-1.035-2.336-3.998-2.74-4.148-2.762
			l-0.525-0.063l1.68-3.497h0.238c0.062,0,0.117-0.01,0.182-0.01c0.145-0.002,0.293-0.01,0.426-0.021
			c1.449-0.151,2.246-0.831,2.664-1.409c0.033-0.049,0.066-0.098,0.098-0.148c0.074-0.115,0.137-0.229,0.189-0.34
			c0.061-0.125,0.104-0.247,0.141-0.355c0.051-0.176,0.08-0.324,0.09-0.438h-6.277c-0.754,0-1.412,0.399-1.781,0.996
			c-0.084,0.14-0.156,0.291-0.207,0.445l-1.973,4.232l-0.102,0.219c-0.096,0.238-0.15,0.502-0.15,0.78
			c0,0.377,0.102,0.729,0.277,1.038l0.213,0.303l4.842,6.422v8.741h9.111l0,0h0.758v-6.449l2.418-4.911
			c0.033-0.062,0.064-0.121,0.092-0.186c0.061-0.164,0.098-0.34,0.1-0.522C-41.096,30.588-41.096,24.43-41.096,24.43z"/>
	</g>
</g>
<g>
	<path fill-rule="evenodd" clip-rule="evenodd" fill="#010101" d="M60,30.001C60,46.57,46.568,60,29.998,60
		C13.432,60,0,46.57,0,30.001C0,13.43,13.432,0,29.998,0C46.568,0,60,13.43,60,30.001z"/>
	<g>
		<path fill="#A6A8AC" d="M21,15v28h21V15H21z M32,30.471V32h-7v-1.529V30h7V30.471z M38,25.97V27H25v-1.03V25h13V25.97z M38,21.47
			V23H25v-1.53V21h13V21.47z"/>
	</g>
</g>
<g>
	<path fill-rule="evenodd" clip-rule="evenodd" fill="#010101" d="M140,30.001C140,46.57,126.568,60,109.998,60
		C93.432,60,80,46.57,80,30.001C80,13.43,93.432,0,109.998,0C126.568,0,140,13.43,140,30.001z"/>
</g>
<g>
	<g>
		<path fill="#A6A8AC" d="M121.387,35.914h-0.498V25.74c0-1.248-1.029-2.273-2.281-2.273h-1.691c-1.254,0-2.273,1.025-2.273,2.273
			v10.174h-2.266V25.74c0-1.248-0.996-2.273-2.244-2.273h-1.697c-1.246,0-2.258,1.025-2.258,2.273v10.174h-1.467l-0.182-2.827
			h-6.883l-0.182,2.827h-0.852c-0.338,0-0.613,0.271-0.613,0.614v3.857C96,40.725,96.275,41,96.613,41h24.773
			c0.336,0,0.613-0.275,0.613-0.614v-3.857C122,36.186,121.723,35.914,121.387,35.914z"/>
		<path fill="#A6A8AC" d="M103.395,15.744c-0.027-0.418-0.371-0.744-0.791-0.744h-0.018h-3.002h-0.012
			c-0.422,0-0.771,0.326-0.797,0.744l-1.02,15.634h6.664L103.395,15.744z"/>
	</g>
</g>
</svg>
