<?xml version="1.0" encoding="utf-8"?>
<!-- Generator: Adobe Illustrator 16.0.0, SVG Export Plug-In . SVG Version: 6.00 Build 0)  -->
<!DOCTYPE svg PUBLIC "-//W3C//DTD SVG 1.1//EN" "http://www.w3.org/Graphics/SVG/1.1/DTD/svg11.dtd">
<svg version="1.1" id="Layer_1" xmlns="http://www.w3.org/2000/svg" xmlns:xlink="http://www.w3.org/1999/xlink" x="0px" y="0px"
	 width="36px" height="36px" viewBox="0 0 36 36" enable-background="new 0 0 36 36" xml:space="preserve">
<g>
	<path fill="#888888" d="M89.866,2.134v31.733H58.134V2.134H89.866 M91,1H57v34h34V1L91,1z"/>
	<g>
		<path fill-rule="evenodd" clip-rule="evenodd" fill="#888888" d="M78.206,5.856v24.287c4.941-1.771,8.464-6.539,8.464-12.148
			C86.67,12.393,83.138,7.632,78.206,5.856z M80.452,23.446v-10.82h2.744v10.82H80.452z"/>
		<g>
			<path fill-rule="evenodd" clip-rule="evenodd" fill="#888888" d="M61.331,17.995c0,5.609,3.525,10.378,8.464,12.148V5.856
				C64.864,7.632,61.331,12.393,61.331,17.995z M69.44,17.21c0,0-0.308,1.922-2.106,1.922h-1.417v4.314h-2.745v-10.82
				c0,0,3.99,0.008,4.162,0.026c0.372,0.028,2.106,0.331,2.106,1.935V17.21z"/>
			<path fill-rule="evenodd" clip-rule="evenodd" fill="#888888" d="M66.471,14.376h-0.563v2.841h0.566c0,0,0.498-0.018,0.498-0.616
				v-1.419C66.972,15.182,67.035,14.376,66.471,14.376z"/>
		</g>
		<path fill-rule="evenodd" clip-rule="evenodd" fill="#888888" d="M71.032,8.7h4.453c0,0,1.732,0.24,1.732,1.977v1.85
			c0,0-0.018,0.739-0.734,1.341c-0.014,0.021,0.834,0.263,0.834,1.412v4.232h-2.565v-4.224c0,0-0.119-0.664-1.01-0.456
			c-0.007,0.024,0,4.693,0,4.693h-2.71V8.7L71.032,8.7z M73.769,10.47v2.482h0.515c0,0,0.469-0.023,0.469-0.604v-1.098
			c0,0,0.053-0.781-0.476-0.781H73.769L73.769,10.47z"/>
	</g>
</g>
<path fill="#888888" d="M33.867,2.134v31.732H2.133V2.134H33.867 M35,1H1v34h34V1L35,1z"/>
<g>
	<polygon fill="#888888" points="25.098,11.215 25.08,15.963 23.603,11.259 21.712,11.259 21.732,24.916 23.814,24.916 
		23.814,20.822 25.147,24.875 27.185,24.875 27.185,11.215 	"/>
	<path fill="#888888" d="M16.433,11.215l-2.342,13.727h2.086l0.363-1.847l2.365-0.021l0.423,1.801h2.103l-2.377-13.66H16.433z
		 M17.052,21.079l0.688-3.145l0.688,3.145H17.052z"/>
	<path fill="#888888" d="M14.955,18.218V12.71c0-1.303-1.076-1.429-1.076-1.429H9.288v13.66h1.953v-4.985h2.379
		C14.909,19.825,14.955,18.218,14.955,18.218z M12.462,17.893h-1.178v-4.355h1.115c0,0,0.45,0,0.429,0.624v3.167
		C12.828,17.328,12.889,17.893,12.462,17.893z"/>
	<path fill="#888888" d="M17.938,4.742c-7.265,0-13.157,5.953-13.157,13.298c0,7.34,5.893,13.294,13.157,13.294
		c7.266,0,13.156-5.954,13.156-13.294C31.094,10.695,25.203,4.742,17.938,4.742z M17.956,29.666
		c-6.352,0-11.501-5.202-11.501-11.623c0-6.413,5.149-11.62,11.501-11.62c6.354,0,11.503,5.207,11.503,11.62
		C29.459,24.464,24.31,29.666,17.956,29.666z"/>
</g>
<g>
	<path fill="#888888" d="M-22.133,2.134v31.732h-31.734V2.134H-22.133 M-21,1h-34v34h34V1L-21,1z"/>
	<g>
		<path fill="#888888" d="M-43.647,23.886h-2.726v7.471h1.943v-5.699c0.989,0,1.322,0.396,1.322,0.932
			c0,0.59-0.413,0.971-1.216,0.971l0.69,1.777c1.117,0,2.471-0.893,2.471-2.503C-41.162,25.19-42.115,23.886-43.647,23.886z"/>
		<path fill="#888888" d="M-35.53,26.342c0-1.268-1.02-2.456-2.127-2.456h-3.171v7.471h2.029v-3.107l1.324,3.107h2.17l-1.305-3.107
			C-35.948,27.921-35.53,27.179-35.53,26.342z M-38.763,27.465v-1.808c0.604,0,1.091,0.114,1.091,0.907
			C-37.672,27.157-38.099,27.465-38.763,27.465z"/>
		<path fill="#888888" d="M-33.438,23.886h-1.504v7.471h2.008V26c0.867,0,1.464,0.83,1.469,1.708
			c0.002,0.85-0.423,1.541-1.369,1.707l0.804,1.941c1.671-0.61,2.63-1.949,2.63-3.729C-29.401,25.292-31.228,23.886-33.438,23.886z"
			/>
		<path fill="#888888" d="M-37.997,9.589c-2.475,0-4.483,2.009-4.483,4.486c0,2.475,2.009,4.479,4.483,4.479
			c2.478,0,4.483-2.004,4.483-4.479C-33.514,11.598-35.52,9.589-37.997,9.589z M-37.997,16.925c-1.575,0-2.856-1.275-2.856-2.85
			c0-1.576,1.281-2.854,2.856-2.854c1.57,0,2.852,1.277,2.852,2.854C-35.146,15.649-36.427,16.925-37.997,16.925z"/>
		
			<rect x="-35.869" y="4.816" transform="matrix(0.9203 0.3913 -0.3913 0.9203 0.0386 14.3074)" fill="#888888" width="1.56" height="4.865"/>
		<rect x="-38.775" y="5.667" fill="#888888" width="1.562" height="3.422"/>
		<polygon fill="#888888" points="-39.132,9.161 -40.95,4.643 -42.394,5.226 -40.583,9.741 		"/>
		
			<rect x="-44.445" y="8.558" transform="matrix(0.7067 0.7075 -0.7075 0.7067 -5.9282 32.9754)" fill="#888888" width="3.42" height="1.561"/>
		
			<rect x="-47.254" y="10.383" transform="matrix(0.9198 0.3925 -0.3925 0.9198 0.7853 18.4872)" fill="#888888" width="4.869" height="1.562"/>
		<rect x="-46.404" y="13.293" fill="#888888" width="3.419" height="1.562"/>
		<polygon fill="#888888" points="-42.919,15.211 -47.431,17.024 -46.844,18.473 -42.331,16.657 		"/>
		<polygon fill="#888888" points="-44.495,19.466 -43.392,20.573 -40.963,18.147 -42.079,17.046 		"/>
		<polygon fill="#888888" points="-40.677,18.354 -42.578,22.831 -41.144,23.441 -39.23,18.962 		"/>
		<rect x="-38.775" y="19.05" fill="#888888" width="1.562" height="3.433"/>
		
			<rect x="-36.012" y="18.515" transform="matrix(0.9283 -0.3719 0.3719 0.9283 -10.3205 -11.6001)" fill="#888888" width="1.562" height="4.876"/>
		<polygon fill="#888888" points="-32.607,20.573 -31.5,19.466 -33.925,17.039 -35.037,18.138 		"/>
		<polygon fill="#888888" points="-33.749,16.734 -29.239,18.658 -28.632,17.218 -33.116,15.307 		"/>
		<polygon fill="#888888" points="-29.589,14.854 -29.589,13.293 -33.027,13.293 -33.046,14.854 		"/>
		
			<rect x="-33.557" y="10.527" transform="matrix(-0.9277 0.3732 -0.3732 -0.9277 -55.7712 33.4138)" fill="#888888" width="4.875" height="1.561"/>
		<polygon fill="#888888" points="-33.931,11.108 -31.5,8.68 -32.607,7.576 -35.022,9.996 		"/>
	</g>
</g>
</svg>
