<?xml version="1.0" encoding="utf-8"?>
<!-- Generator: Adobe Illustrator 16.0.0, SVG Export Plug-In . SVG Version: 6.00 Build 0)  -->
<!DOCTYPE svg PUBLIC "-//W3C//DTD SVG 1.1//EN" "http://www.w3.org/Graphics/SVG/1.1/DTD/svg11.dtd">
<svg version="1.1" id="Layer_1" xmlns="http://www.w3.org/2000/svg" xmlns:xlink="http://www.w3.org/1999/xlink" x="0px" y="0px"
	 width="36px" height="36px" viewBox="0 0 36 36" enable-background="new 0 0 36 36" xml:space="preserve">
<g>
	<path fill="#888888" d="M145.866,2.134v31.733h-31.732V2.134H145.866 M147,1h-34v34h34V1L147,1z"/>
	<g>
		<path fill-rule="evenodd" clip-rule="evenodd" fill="#888888" d="M134.206,5.856v24.287c4.941-1.771,8.464-6.539,8.464-12.148
			C142.67,12.393,139.138,7.632,134.206,5.856z M136.452,23.446v-10.82h2.744v10.82H136.452z"/>
		<g>
			<path fill-rule="evenodd" clip-rule="evenodd" fill="#888888" d="M117.331,17.995c0,5.609,3.525,10.378,8.464,12.148V5.856
				C120.864,7.632,117.331,12.393,117.331,17.995z M125.44,17.21c0,0-0.308,1.922-2.106,1.922h-1.417v4.314h-2.745v-10.82
				c0,0,3.99,0.008,4.162,0.026c0.372,0.028,2.106,0.331,2.106,1.935V17.21z"/>
			<path fill-rule="evenodd" clip-rule="evenodd" fill="#888888" d="M122.471,14.376h-0.563v2.841h0.566
				c0,0,0.498-0.018,0.498-0.616v-1.419C122.972,15.182,123.035,14.376,122.471,14.376z"/>
		</g>
		<path fill-rule="evenodd" clip-rule="evenodd" fill="#888888" d="M127.032,8.7h4.453c0,0,1.732,0.24,1.732,1.977v1.85
			c0,0-0.018,0.739-0.734,1.341c-0.014,0.021,0.834,0.263,0.834,1.412v4.232h-2.565v-4.224c0,0-0.119-0.664-1.01-0.456
			c-0.007,0.024,0,4.693,0,4.693h-2.71V8.7L127.032,8.7z M129.769,10.47v2.482h0.515c0,0,0.469-0.023,0.469-0.604v-1.098
			c0,0,0.053-0.781-0.476-0.781H129.769L129.769,10.47z"/>
	</g>
</g>
<path fill="#888888" d="M89.867,2.134v31.732H58.133V2.134H89.867 M91,1H57v34h34V1L91,1z"/>
<g>
	<polygon fill="#888888" points="81.098,11.215 81.08,15.963 79.603,11.259 77.712,11.259 77.732,24.916 79.814,24.916 
		79.814,20.822 81.147,24.875 83.185,24.875 83.185,11.215 	"/>
	<path fill="#888888" d="M72.433,11.215l-2.342,13.727h2.086l0.363-1.847l2.365-0.021l0.423,1.801h2.103l-2.377-13.66H72.433z
		 M73.052,21.079l0.688-3.145l0.688,3.145H73.052z"/>
	<path fill="#888888" d="M70.955,18.218V12.71c0-1.303-1.076-1.429-1.076-1.429h-4.591v13.66h1.953v-4.985h2.379
		C70.909,19.825,70.955,18.218,70.955,18.218z M68.462,17.893h-1.178v-4.355h1.115c0,0,0.45,0,0.429,0.624v3.167
		C68.828,17.328,68.889,17.893,68.462,17.893z"/>
	<path fill="#888888" d="M73.938,4.742c-7.265,0-13.157,5.953-13.157,13.298c0,7.34,5.893,13.294,13.157,13.294
		c7.266,0,13.156-5.954,13.156-13.294C87.094,10.695,81.203,4.742,73.938,4.742z M73.956,29.666
		c-6.352,0-11.501-5.202-11.501-11.623c0-6.413,5.149-11.62,11.501-11.62c6.354,0,11.503,5.207,11.503,11.62
		C85.459,24.464,80.31,29.666,73.956,29.666z"/>
</g>
<g>
	<path fill="#888888" d="M33.867,2.134v31.732H2.133V2.134H33.867 M35,1H1v34h34V1L35,1z"/>
	<g>
		<path fill="#888888" d="M12.353,23.886H9.627v7.471h1.943v-5.699c0.989,0,1.322,0.396,1.322,0.932c0,0.59-0.413,0.971-1.216,0.971
			l0.69,1.777c1.117,0,2.471-0.893,2.471-2.503C14.838,25.19,13.885,23.886,12.353,23.886z"/>
		<path fill="#888888" d="M20.47,26.342c0-1.268-1.02-2.456-2.127-2.456h-3.171v7.471h2.029v-3.107l1.324,3.107h2.17l-1.305-3.107
			C20.052,27.921,20.47,27.179,20.47,26.342z M17.237,27.465v-1.808c0.604,0,1.091,0.114,1.091,0.907
			C18.328,27.157,17.901,27.465,17.237,27.465z"/>
		<path fill="#888888" d="M22.562,23.886h-1.504v7.471h2.008V26c0.867,0,1.464,0.83,1.469,1.708c0.002,0.85-0.423,1.541-1.369,1.707
			l0.804,1.941c1.671-0.61,2.63-1.949,2.63-3.729C26.599,25.292,24.772,23.886,22.562,23.886z"/>
		<path fill="#888888" d="M18.003,9.589c-2.475,0-4.483,2.009-4.483,4.486c0,2.475,2.009,4.479,4.483,4.479
			c2.478,0,4.483-2.004,4.483-4.479C22.486,11.598,20.48,9.589,18.003,9.589z M18.003,16.925c-1.575,0-2.856-1.275-2.856-2.85
			c0-1.576,1.281-2.854,2.856-2.854c1.57,0,2.852,1.277,2.852,2.854C20.854,15.649,19.573,16.925,18.003,16.925z"/>
		
			<rect x="20.131" y="4.816" transform="matrix(0.9203 0.3913 -0.3913 0.9203 4.5033 -7.6039)" fill="#888888" width="1.56" height="4.865"/>
		<rect x="17.225" y="5.667" fill="#888888" width="1.562" height="3.422"/>
		<polygon fill="#888888" points="16.868,9.161 15.05,4.643 13.606,5.226 15.417,9.741 		"/>
		
			<rect x="11.555" y="8.558" transform="matrix(0.7067 0.7075 -0.7075 0.7067 10.4978 -6.6465)" fill="#888888" width="3.42" height="1.561"/>
		
			<rect x="8.746" y="10.383" transform="matrix(0.9198 0.3925 -0.3925 0.9198 5.2789 -3.4923)" fill="#888888" width="4.869" height="1.562"/>
		<rect x="9.596" y="13.293" fill="#888888" width="3.419" height="1.562"/>
		<polygon fill="#888888" points="13.081,15.211 8.569,17.024 9.156,18.473 13.669,16.657 		"/>
		<polygon fill="#888888" points="11.505,19.466 12.608,20.573 15.037,18.147 13.921,17.046 		"/>
		<polygon fill="#888888" points="15.323,18.354 13.422,22.831 14.856,23.441 16.77,18.962 		"/>
		<rect x="17.225" y="19.05" fill="#888888" width="1.562" height="3.433"/>
		
			<rect x="19.988" y="18.515" transform="matrix(0.9283 -0.3719 0.3719 0.9283 -6.3031 9.228)" fill="#888888" width="1.562" height="4.876"/>
		<polygon fill="#888888" points="23.393,20.573 24.5,19.466 22.075,17.039 20.963,18.138 		"/>
		<polygon fill="#888888" points="22.251,16.734 26.761,18.658 27.368,17.218 22.884,15.307 		"/>
		<polygon fill="#888888" points="26.411,14.854 26.411,13.293 22.973,13.293 22.954,14.854 		"/>
		
			<rect x="22.443" y="10.527" transform="matrix(-0.9277 0.3732 -0.3732 -0.9277 52.1824 12.5134)" fill="#888888" width="4.875" height="1.561"/>
		<polygon fill="#888888" points="22.069,11.108 24.5,8.68 23.393,7.576 20.978,9.996 		"/>
	</g>
</g>
</svg>
