<?xml version="1.0" encoding="utf-8"?>
<!-- Generator: Adobe Illustrator 16.0.0, SVG Export Plug-In . SVG Version: 6.00 Build 0)  -->
<!DOCTYPE svg PUBLIC "-//W3C//DTD SVG 1.1//EN" "http://www.w3.org/Graphics/SVG/1.1/DTD/svg11.dtd">
<svg version="1.1" id="Layer_1" xmlns="http://www.w3.org/2000/svg" xmlns:xlink="http://www.w3.org/1999/xlink" x="0px" y="0px"
	 width="65.168px" height="38.203px" viewBox="0 0 65.168 38.203" enable-background="new 0 0 65.168 38.203" xml:space="preserve">
<g>
	<g>
		<path d="M11.347,4.524v16.92h-4.68V4.524h-5.94v-4.05h16.561v4.05H11.347z"/>
		<path d="M39.276,18.549c-2.12,2.07-4.729,3.105-7.83,3.105c-3.1,0-5.71-1.035-7.83-3.105s-3.18-4.645-3.18-7.725
			c0-3.08,1.06-5.655,3.18-7.725c2.12-2.07,4.73-3.105,7.83-3.105c3.101,0,5.71,1.035,7.83,3.105
			c2.121,2.07,3.181,4.646,3.181,7.725C42.458,13.904,41.397,16.479,39.276,18.549z M37.687,10.839c0-1.87-0.6-3.465-1.8-4.785
			c-1.2-1.32-2.675-1.98-4.425-1.98c-1.751,0-3.226,0.66-4.425,1.98c-1.2,1.32-1.801,2.916-1.801,4.785
			c0,1.87,0.601,3.46,1.801,4.77c1.199,1.31,2.674,1.965,4.425,1.965c1.75,0,3.225-0.655,4.425-1.965
			C37.087,14.299,37.687,12.709,37.687,10.839z"/>
		<path d="M62.362,2.349c1.469,1.25,2.205,3.17,2.205,5.76c0,2.59-0.756,4.485-2.266,5.685c-1.51,1.2-3.816,1.8-6.916,1.8h-2.789
			v5.85h-4.68V0.474h7.41C58.545,0.474,60.891,1.099,62.362,2.349z M58.926,10.599c0.559-0.63,0.84-1.549,0.84-2.76
			c0-1.21-0.365-2.07-1.096-2.58c-0.73-0.51-1.865-0.765-3.404-0.765h-2.67v7.05h3.15C57.305,11.544,58.366,11.229,58.926,10.599z"
			/>
	</g>
	<g>
		<path d="M8.2,34.453v3.189H6.539v-3.233c0-0.47-0.071-0.813-0.214-1.034c-0.144-0.22-0.374-0.33-0.693-0.33
			s-0.602,0.119-0.847,0.357c-0.246,0.238-0.369,0.589-0.369,1.051v3.189H2.767v-5.918h1.649v0.672
			c0.455-0.514,0.976-0.771,1.562-0.771c0.374,0,0.713,0.11,1.018,0.33c0.304,0.22,0.533,0.487,0.688,0.804
			c0.227-0.359,0.533-0.639,0.918-0.837c0.386-0.198,0.772-0.297,1.161-0.297c0.696,0,1.257,0.208,1.683,0.622
			c0.425,0.414,0.638,1.014,0.638,1.798v3.597h-1.661v-3.233c0-0.909-0.333-1.364-1.001-1.364c-0.329,0-0.615,0.119-0.857,0.357
			S8.2,33.991,8.2,34.453z"/>
		<path d="M21.356,36.785c-0.668,0.631-1.45,0.945-2.349,0.945s-1.641-0.275-2.228-0.83c-0.587-0.553-0.88-1.296-0.88-2.228
			c0-0.931,0.299-1.672,0.896-2.222c0.598-0.551,1.304-0.825,2.117-0.825c0.814,0,1.505,0.246,2.073,0.737s0.853,1.166,0.853,2.023
			v0.881h-4.312c0.051,0.322,0.22,0.586,0.506,0.791c0.286,0.206,0.608,0.309,0.968,0.309c0.579,0,1.057-0.194,1.431-0.583
			L21.356,36.785z M19.772,33.275c-0.228-0.189-0.505-0.285-0.831-0.285s-0.625,0.099-0.896,0.297
			c-0.271,0.197-0.429,0.466-0.473,0.803h2.596C20.132,33.738,19.999,33.466,19.772,33.275z"/>
		<path d="M26.889,34.343v3.299h-1.649v-5.918h1.649v0.66c0.499-0.506,1.06-0.759,1.684-0.759c0.623,0,1.146,0.22,1.567,0.66
			s0.633,1.026,0.633,1.76v3.597h-1.65v-3.344c0-0.909-0.334-1.363-1.001-1.363c-0.33,0-0.618,0.119-0.863,0.357
			C27.012,33.531,26.889,33.88,26.889,34.343z"/>
		<path d="M38.935,35.8c0,0.583-0.215,1.051-0.644,1.402c-0.43,0.352-0.974,0.527-1.634,0.527c-0.44,0-0.898-0.078-1.375-0.236
			c-0.477-0.157-0.906-0.391-1.287-0.698l0.727-1.034c0.615,0.477,1.271,0.715,1.969,0.715c0.213,0,0.381-0.041,0.506-0.126
			s0.187-0.196,0.187-0.335c0-0.14-0.086-0.268-0.258-0.386c-0.173-0.117-0.422-0.228-0.748-0.329
			c-0.326-0.104-0.576-0.191-0.748-0.265c-0.173-0.073-0.369-0.18-0.589-0.319c-0.447-0.278-0.671-0.691-0.671-1.237
			s0.22-0.991,0.66-1.337c0.44-0.344,1.008-0.517,1.705-0.517c0.696,0,1.394,0.235,2.09,0.704l-0.616,1.1
			c-0.513-0.352-1.024-0.527-1.534-0.527s-0.765,0.139-0.765,0.418c0,0.154,0.081,0.275,0.242,0.363s0.429,0.19,0.803,0.308
			s0.64,0.207,0.798,0.27c0.157,0.062,0.347,0.159,0.566,0.292C38.729,34.8,38.935,35.217,38.935,35.8z"/>
		<path d="M46.227,34.915v-3.19h1.66v5.918h-1.66v-0.78c-0.41,0.579-0.941,0.868-1.59,0.868s-1.193-0.203-1.633-0.609
			c-0.441-0.408-0.66-1.011-0.66-1.811v-3.586h1.66v3.224c0,0.909,0.334,1.364,1.002,1.364c0.33,0,0.615-0.119,0.857-0.357
			S46.227,35.369,46.227,34.915z"/>
		<path d="M56.688,37.642h-1.551v-0.715c-0.426,0.535-0.951,0.803-1.578,0.803s-1.154-0.181-1.58-0.544
			c-0.424-0.362-0.637-0.847-0.637-1.452s0.219-1.058,0.66-1.358c0.439-0.3,1.041-0.45,1.803-0.45h1.232v-0.033
			c0-0.631-0.334-0.946-1-0.946c-0.287,0-0.59,0.057-0.908,0.171c-0.318,0.113-0.588,0.254-0.809,0.423l-0.736-1.067
			c0.777-0.564,1.664-0.847,2.662-0.847c0.719,0,1.305,0.18,1.76,0.539s0.682,0.928,0.682,1.705V37.642z M55.028,35.388v-0.287
			h-1.035c-0.66,0-0.99,0.206-0.99,0.617c0,0.212,0.08,0.375,0.236,0.488c0.158,0.114,0.383,0.171,0.678,0.171
			c0.293,0,0.551-0.089,0.775-0.27C54.915,35.929,55.028,35.689,55.028,35.388z"/>
		<path d="M62.055,37.642h-1.648V29.48h1.648V37.642z"/>
	</g>
</g>
</svg>
