<?xml version="1.0" encoding="utf-8"?>
<!-- Generator: Adobe Illustrator 16.0.0, SVG Export Plug-In . SVG Version: 6.00 Build 0)  -->
<!DOCTYPE svg PUBLIC "-//W3C//DTD SVG 1.1//EN" "http://www.w3.org/Graphics/SVG/1.1/DTD/svg11.dtd">
<svg version="1.1" xmlns="http://www.w3.org/2000/svg" xmlns:xlink="http://www.w3.org/1999/xlink" x="0px" y="0px" width="360.5px"
	 height="76.5px" viewBox="0 0 360.5 76.5" enable-background="new 0 0 360.5 76.5" xml:space="preserve">
<g id="Layer_1">
	<g>
		<g>
			<path d="M185.736,17.254c0.854,0,1.589-0.144,2.205-0.431c0.616-0.286,1.26-0.745,1.932-1.375l1.596,1.638
				c-1.554,1.722-3.44,2.583-5.659,2.583c-2.219,0-4.06-0.714-5.523-2.142c-1.463-1.429-2.195-3.234-2.195-5.418
				c0-2.185,0.746-4.004,2.237-5.46c1.491-1.456,3.374-2.185,5.649-2.185c2.275,0,4.175,0.84,5.702,2.521l-1.576,1.722
				c-0.699-0.672-1.361-1.141-1.984-1.407c-0.623-0.266-1.354-0.398-2.195-0.398c-1.484,0-2.73,0.479-3.738,1.438
				s-1.512,2.184-1.512,3.675s0.5,2.737,1.501,3.738S184.364,17.254,185.736,17.254z"/>
			<path d="M204.258,19.501h-2.143V18.01c-0.924,1.106-2.162,1.659-3.717,1.659c-1.162,0-2.124-0.329-2.887-0.987
				c-0.764-0.657-1.145-1.536-1.145-2.635c0-1.1,0.406-1.922,1.218-2.468s1.911-0.819,3.297-0.819h3.045v-0.42
				c0-1.483-0.826-2.226-2.478-2.226c-1.037,0-2.114,0.378-3.234,1.134l-1.05-1.47c1.357-1.078,2.897-1.617,4.62-1.617
				c1.315,0,2.391,0.333,3.223,0.997c0.834,0.665,1.25,1.712,1.25,3.14V19.501z M201.906,15.343v-0.944h-2.646
				c-1.693,0-2.541,0.532-2.541,1.596c0,0.546,0.21,0.963,0.63,1.249c0.421,0.287,1.005,0.431,1.754,0.431s1.403-0.21,1.964-0.63
				C201.625,16.624,201.906,16.057,201.906,15.343z"/>
			<path d="M210.936,13.453v6.048h-2.352V8.329h2.352v2.037c0.336-0.686,0.844-1.226,1.523-1.617
				c0.678-0.392,1.41-0.588,2.193-0.588c1.765,0,2.961,0.728,3.592,2.184c1.105-1.456,2.484-2.184,4.137-2.184
				c1.26,0,2.278,0.385,3.056,1.155c0.776,0.77,1.165,1.883,1.165,3.339v6.846h-2.352v-6.132c0-2.059-0.854-3.087-2.562-3.087
				c-0.798,0-1.494,0.255-2.09,0.767c-0.595,0.511-0.906,1.257-0.934,2.236v6.216h-2.352v-6.132c0-1.063-0.189-1.845-0.568-2.342
				c-0.377-0.497-0.973-0.745-1.784-0.745c-0.812,0-1.52,0.27-2.121,0.809C211.236,11.63,210.936,12.417,210.936,13.453z"/>
			<path d="M239.979,19.501h-2.143V18.01c-0.924,1.106-2.162,1.659-3.717,1.659c-1.162,0-2.124-0.329-2.887-0.987
				c-0.764-0.657-1.145-1.536-1.145-2.635c0-1.1,0.406-1.922,1.218-2.468s1.911-0.819,3.297-0.819h3.045v-0.42
				c0-1.483-0.826-2.226-2.478-2.226c-1.037,0-2.114,0.378-3.234,1.134l-1.05-1.47c1.357-1.078,2.897-1.617,4.62-1.617
				c1.315,0,2.391,0.333,3.223,0.997c0.834,0.665,1.25,1.712,1.25,3.14V19.501z M237.627,15.343v-0.944h-2.646
				c-1.693,0-2.541,0.532-2.541,1.596c0,0.546,0.21,0.963,0.63,1.249c0.421,0.287,1.005,0.431,1.754,0.431s1.403-0.21,1.964-0.63
				C237.346,16.624,237.627,16.057,237.627,15.343z"/>
			<path d="M250.164,10.534c-1.162,0-2.037,0.378-2.625,1.134s-0.883,1.771-0.883,3.045v4.788h-2.352V8.329h2.352v2.247
				c0.379-0.7,0.893-1.274,1.544-1.723c0.651-0.447,1.341-0.679,2.068-0.692l0.021,2.373
				C250.248,10.534,250.205,10.534,250.164,10.534z"/>
			<path d="M262.637,19.501h-2.142V18.01c-0.924,1.106-2.163,1.659-3.717,1.659c-1.162,0-2.124-0.329-2.888-0.987
				c-0.764-0.657-1.145-1.536-1.145-2.635c0-1.1,0.406-1.922,1.219-2.468c0.811-0.546,1.91-0.819,3.297-0.819h3.045v-0.42
				c0-1.483-0.826-2.226-2.479-2.226c-1.036,0-2.113,0.378-3.234,1.134l-1.049-1.47c1.357-1.078,2.897-1.617,4.619-1.617
				c1.316,0,2.391,0.333,3.224,0.997c0.833,0.665,1.249,1.712,1.249,3.14V19.501z M260.285,15.343v-0.944h-2.646
				c-1.693,0-2.541,0.532-2.541,1.596c0,0.546,0.211,0.963,0.631,1.249c0.42,0.287,1.004,0.431,1.754,0.431
				c0.748,0,1.402-0.21,1.963-0.63C260.005,16.624,260.285,16.057,260.285,15.343z"/>
			<path d="M274.628,18.073c-1.05-1.064-1.575-2.464-1.575-4.2s0.539-3.122,1.617-4.158s2.362-1.554,3.854-1.554
				s2.691,0.63,3.602,1.89V3.919h2.352v15.582h-2.352v-1.68c-0.868,1.231-2.135,1.848-3.801,1.848
				C276.91,19.669,275.678,19.137,274.628,18.073z M275.404,13.968c0,1.07,0.344,1.942,1.029,2.614s1.491,1.008,2.416,1.008
				c0.924,0,1.707-0.339,2.352-1.019c0.644-0.679,0.966-1.55,0.966-2.614c0-1.063-0.322-1.953-0.966-2.667
				c-0.645-0.714-1.436-1.071-2.373-1.071c-0.938,0-1.743,0.357-2.415,1.071C275.74,12.004,275.404,12.896,275.404,13.968z"/>
			<path d="M299.324,14.944h-8.758c0.057,0.812,0.428,1.467,1.113,1.963c0.686,0.497,1.47,0.746,2.352,0.746
				c1.4,0,2.465-0.441,3.192-1.323l1.344,1.47c-1.204,1.246-2.772,1.869-4.704,1.869c-1.568,0-2.901-0.521-4-1.564
				c-1.1-1.043-1.648-2.443-1.648-4.2s0.56-3.153,1.68-4.189s2.439-1.554,3.959-1.554c1.519,0,2.811,0.459,3.874,1.375
				c1.063,0.917,1.597,2.181,1.597,3.791V14.944z M290.566,13.096h6.405c0-0.938-0.294-1.659-0.882-2.163s-1.312-0.756-2.174-0.756
				s-1.635,0.263-2.32,0.788C290.91,11.489,290.566,12.2,290.566,13.096z"/>
		</g>
	</g>
	<g>
		<path d="M184.984,32.264c-0.48,0.396-0.72,0.918-0.72,1.568c0,0.651,0.293,1.168,0.88,1.552c0.586,0.384,1.941,0.838,4.064,1.36
			c2.122,0.522,3.771,1.307,4.944,2.352c1.173,1.046,1.76,2.571,1.76,4.576c0,2.006-0.752,3.632-2.256,4.88
			s-3.483,1.872-5.936,1.872c-3.542,0-6.731-1.312-9.568-3.936l2.976-3.648c2.411,2.112,4.64,3.168,6.688,3.168
			c0.917,0,1.637-0.197,2.161-0.592c0.521-0.395,0.783-0.928,0.783-1.6c0-0.673-0.277-1.205-0.832-1.601
			c-0.555-0.395-1.653-0.794-3.296-1.2c-2.603-0.618-4.507-1.424-5.712-2.416c-1.206-0.991-1.808-2.549-1.808-4.672
			c0-2.122,0.763-3.76,2.288-4.912c1.525-1.151,3.429-1.728,5.712-1.728c1.493,0,2.987,0.256,4.48,0.768
			c1.493,0.513,2.795,1.238,3.904,2.177l-2.528,3.647c-1.941-1.472-3.946-2.208-6.016-2.208
			C186.12,31.672,185.464,31.869,184.984,32.264z"/>
		<path d="M216.199,47.672c-1.941,1.835-4.219,2.752-6.832,2.752s-4.773-0.805-6.479-2.416c-1.707-1.61-2.56-3.771-2.56-6.479
			s0.869-4.864,2.607-6.464c1.738-1.601,3.792-2.4,6.16-2.4s4.379,0.715,6.031,2.144c1.654,1.43,2.48,3.393,2.48,5.889v2.56h-12.544
			c0.149,0.939,0.64,1.707,1.472,2.304c0.832,0.598,1.771,0.896,2.816,0.896c1.686,0,3.072-0.565,4.16-1.696L216.199,47.672z
			 M211.592,37.464c-0.662-0.555-1.467-0.832-2.416-0.832s-1.819,0.288-2.608,0.864s-1.247,1.354-1.376,2.336h7.553
			C212.637,38.808,212.252,38.019,211.592,37.464z"/>
		<path d="M227.463,40.568v9.6h-4.799V32.952h4.799v1.92c1.451-1.472,3.083-2.208,4.896-2.208c1.812,0,3.333,0.64,4.561,1.92
			c1.227,1.28,1.84,2.987,1.84,5.12v10.464h-4.801V40.44c0-2.646-0.971-3.969-2.912-3.969c-0.959,0-1.797,0.348-2.512,1.04
			C227.82,38.205,227.463,39.224,227.463,40.568z"/>
		<path d="M259.335,50.168h-4.513v-2.08c-1.236,1.558-2.768,2.336-4.592,2.336s-3.354-0.528-4.592-1.584s-1.855-2.464-1.855-4.224
			s0.64-3.077,1.92-3.952c1.279-0.875,3.029-1.312,5.248-1.312h3.584v-0.096c0-1.834-0.971-2.752-2.912-2.752
			c-0.832,0-1.712,0.166-2.641,0.496c-0.928,0.331-1.711,0.741-2.352,1.232l-2.145-3.104c2.262-1.643,4.844-2.464,7.744-2.464
			c2.091,0,3.797,0.522,5.121,1.568c1.322,1.045,1.983,2.698,1.983,4.96V50.168z M254.503,43.608v-0.832h-3.008
			c-1.92,0-2.88,0.597-2.88,1.792c0,0.618,0.229,1.093,0.688,1.424s1.115,0.496,1.969,0.496c0.853,0,1.604-0.262,2.256-0.784
			C254.178,45.182,254.503,44.483,254.503,43.608z"/>
		<path d="M272.215,50.424c-2.037,0-3.855-0.864-5.456-2.592c-1.601-1.729-2.399-3.872-2.399-6.432c0-2.561,0.777-4.656,2.336-6.288
			c1.557-1.633,3.381-2.448,5.472-2.448s3.797,0.736,5.12,2.208v-8.448h4.8v23.744h-4.8v-2.272
			C275.943,49.581,274.252,50.424,272.215,50.424z M269.191,41.592c0,1.387,0.416,2.523,1.248,3.408
			c0.832,0.886,1.802,1.328,2.912,1.328c1.108,0,2.053-0.442,2.832-1.328c0.777-0.885,1.168-2.026,1.168-3.424
			s-0.391-2.561-1.168-3.488c-0.779-0.928-1.734-1.392-2.865-1.392s-2.102,0.469-2.912,1.407
			C269.596,39.043,269.191,40.205,269.191,41.592z"/>
		<path d="M305.446,41.56c0,2.496-0.864,4.598-2.592,6.305s-3.899,2.56-6.513,2.56s-4.783-0.853-6.512-2.56
			c-1.728-1.707-2.592-3.809-2.592-6.305c0-2.495,0.864-4.603,2.592-6.319c1.729-1.717,3.898-2.576,6.512-2.576
			s4.785,0.859,6.513,2.576S305.446,39.064,305.446,41.56z M292.07,41.56c0,1.408,0.4,2.556,1.2,3.44
			c0.8,0.886,1.824,1.328,3.071,1.328c1.248,0,2.272-0.442,3.072-1.328c0.801-0.885,1.2-2.032,1.2-3.44
			c0-1.407-0.399-2.56-1.2-3.456c-0.8-0.896-1.824-1.344-3.072-1.344c-1.247,0-2.271,0.448-3.071,1.344
			C292.471,39,292.07,40.152,292.07,41.56z"/>
		<path d="M319.654,37.176c-1.43,0-2.496,0.507-3.2,1.521c-0.704,1.013-1.056,2.352-1.056,4.016v7.456h-4.801V32.952h4.801v2.271
			c0.618-0.704,1.392-1.301,2.32-1.792c0.928-0.49,1.871-0.746,2.832-0.768l0.031,4.512H319.654z"/>
		<path d="M340.262,47.672c-1.941,1.835-4.219,2.752-6.832,2.752s-4.773-0.805-6.479-2.416c-1.707-1.61-2.56-3.771-2.56-6.479
			s0.869-4.864,2.607-6.464c1.738-1.601,3.792-2.4,6.16-2.4s4.379,0.715,6.031,2.144c1.654,1.43,2.48,3.393,2.48,5.889v2.56h-12.544
			c0.149,0.939,0.64,1.707,1.472,2.304c0.832,0.598,1.771,0.896,2.816,0.896c1.686,0,3.072-0.565,4.16-1.696L340.262,47.672z
			 M335.654,37.464c-0.662-0.555-1.467-0.832-2.416-0.832s-1.819,0.288-2.608,0.864s-1.247,1.354-1.376,2.336h7.553
			C336.699,38.808,336.314,38.019,335.654,37.464z"/>
		<path d="M359.686,44.808c0,1.696-0.624,3.057-1.872,4.08c-1.248,1.024-2.832,1.536-4.752,1.536c-1.28,0-2.613-0.229-4-0.688
			c-1.387-0.459-2.635-1.137-3.744-2.032l2.112-3.008c1.792,1.387,3.701,2.08,5.729,2.08c0.617,0,1.108-0.123,1.471-0.368
			c0.363-0.245,0.545-0.57,0.545-0.977c0-0.404-0.251-0.778-0.752-1.12c-0.502-0.341-1.227-0.66-2.176-0.96
			c-0.95-0.298-1.676-0.554-2.176-0.768c-0.502-0.213-1.072-0.522-1.713-0.928c-1.301-0.811-1.951-2.011-1.951-3.601
			c0-1.589,0.639-2.885,1.92-3.888c1.279-1.003,2.933-1.504,4.959-1.504c2.027,0,4.053,0.683,6.08,2.048l-1.791,3.2
			c-1.494-1.024-2.982-1.536-4.465-1.536s-2.224,0.405-2.224,1.216c0,0.448,0.234,0.8,0.704,1.057
			c0.469,0.256,1.248,0.555,2.336,0.896c1.088,0.342,1.861,0.603,2.32,0.784c0.458,0.182,1.008,0.464,1.647,0.848
			C359.088,41.901,359.686,43.112,359.686,44.808z"/>
	</g>
	<g>
		<line x1="151" y1="16.75" x2="151" y2="76.75"/>
		<rect x="150.5" y="16.75" width="1" height="60"/>
	</g>
	<g>
		<g>
			<path d="M13.226,9.368v18.048H8.233V9.368H1.897v-4.32h17.664v4.32H13.226z"/>
			<path d="M44.617,24.328c-2.261,2.208-5.045,3.312-8.352,3.312s-6.091-1.104-8.352-3.312s-3.392-4.955-3.392-8.24
				s1.13-6.032,3.392-8.24s5.045-3.312,8.352-3.312s6.091,1.104,8.352,3.312s3.392,4.955,3.392,8.24S46.878,22.12,44.617,24.328z
				 M42.921,16.104c0-1.995-0.64-3.696-1.92-5.104c-1.28-1.408-2.854-2.112-4.72-2.112s-3.44,0.704-4.72,2.112
				c-1.28,1.408-1.92,3.109-1.92,5.104c0,1.994,0.64,3.69,1.92,5.088c1.28,1.397,2.853,2.096,4.72,2.096s3.44-0.698,4.72-2.096
				C42.281,19.795,42.921,18.099,42.921,16.104z"/>
			<path d="M70.841,7.048c1.568,1.334,2.352,3.382,2.352,6.145s-0.806,4.783-2.416,6.063c-1.611,1.28-4.07,1.92-7.376,1.92h-2.976
				v6.24h-4.992V5.048h7.904C66.771,5.048,69.272,5.715,70.841,7.048z M67.177,15.848c0.597-0.672,0.896-1.652,0.896-2.943
				s-0.39-2.208-1.168-2.752c-0.779-0.544-1.99-0.816-3.632-0.816h-2.848v7.521h3.36C65.449,16.856,66.579,16.52,67.177,15.848z"/>
		</g>
		<g>
			<path d="M7.63,40.822c0,0.636-0.234,1.146-0.702,1.529c-0.468,0.385-1.062,0.576-1.782,0.576c-0.48,0-0.98-0.086-1.5-0.258
				s-0.988-0.426-1.404-0.762l0.792-1.128c0.672,0.52,1.388,0.779,2.148,0.779c0.232,0,0.416-0.046,0.552-0.138
				s0.204-0.214,0.204-0.366c0-0.151-0.094-0.292-0.282-0.42s-0.46-0.248-0.816-0.359c-0.356-0.112-0.628-0.208-0.816-0.288
				s-0.402-0.196-0.642-0.349c-0.488-0.304-0.732-0.754-0.732-1.35s0.24-1.082,0.72-1.458s1.1-0.564,1.86-0.564
				c0.76,0,1.52,0.257,2.28,0.769l-0.672,1.2c-0.56-0.385-1.118-0.576-1.674-0.576c-0.556,0-0.834,0.152-0.834,0.456
				c0,0.168,0.088,0.3,0.264,0.396c0.176,0.097,0.468,0.208,0.876,0.336c0.408,0.129,0.698,0.227,0.87,0.294
				c0.172,0.068,0.378,0.175,0.618,0.318C7.406,39.732,7.63,40.186,7.63,40.822z"/>
			<path d="M18.142,41.896c-0.728,0.688-1.582,1.031-2.562,1.031s-1.79-0.302-2.43-0.905c-0.64-0.604-0.96-1.414-0.96-2.431
				c0-1.016,0.326-1.824,0.978-2.424c0.652-0.6,1.422-0.9,2.31-0.9c0.888,0,1.642,0.269,2.262,0.805s0.93,1.271,0.93,2.208v0.96
				h-4.704c0.056,0.352,0.24,0.64,0.552,0.864c0.312,0.224,0.664,0.336,1.056,0.336c0.632,0,1.152-0.212,1.56-0.637L18.142,41.896z
				 M16.414,38.068c-0.248-0.208-0.55-0.312-0.906-0.312s-0.682,0.108-0.978,0.324s-0.468,0.508-0.516,0.876h2.832
				C16.806,38.572,16.662,38.276,16.414,38.068z"/>
			<path d="M29.548,39.352v3.48h-1.812v-3.528c0-0.512-0.078-0.888-0.234-1.128c-0.156-0.24-0.408-0.359-0.756-0.359
				s-0.656,0.13-0.924,0.39c-0.269,0.26-0.402,0.642-0.402,1.146v3.48h-1.8v-6.456h1.8v0.732c0.496-0.561,1.064-0.841,1.704-0.841
				c0.408,0,0.778,0.12,1.11,0.36s0.582,0.532,0.75,0.876c0.248-0.392,0.582-0.696,1.002-0.912c0.42-0.216,0.842-0.324,1.266-0.324
				c0.76,0,1.372,0.227,1.836,0.679s0.696,1.105,0.696,1.962v3.924h-1.812v-3.528c0-0.991-0.364-1.487-1.092-1.487
				c-0.36,0-0.672,0.13-0.936,0.39C29.68,38.466,29.548,38.848,29.548,39.352z"/>
			<path d="M44.5,42.832h-1.692v-0.78c-0.464,0.584-1.038,0.876-1.722,0.876s-1.258-0.197-1.722-0.594
				c-0.464-0.396-0.696-0.924-0.696-1.584s0.24-1.154,0.72-1.482c0.48-0.327,1.136-0.491,1.968-0.491H42.7V38.74
				c0-0.688-0.364-1.032-1.092-1.032c-0.312,0-0.642,0.062-0.99,0.186c-0.348,0.125-0.642,0.278-0.882,0.463l-0.804-1.164
				c0.848-0.616,1.816-0.925,2.904-0.925c0.784,0,1.424,0.196,1.92,0.589c0.496,0.392,0.744,1.012,0.744,1.859V42.832z
				 M42.688,40.372V40.06H41.56c-0.72,0-1.08,0.225-1.08,0.673c0,0.231,0.086,0.41,0.258,0.533c0.172,0.125,0.417,0.187,0.738,0.187
				c0.32,0,0.602-0.098,0.846-0.294C42.566,40.962,42.688,40.7,42.688,40.372z"/>
			<path d="M51.562,39.232v3.6h-1.8v-6.456h1.8v0.72c0.544-0.552,1.156-0.828,1.836-0.828c0.68,0,1.25,0.24,1.71,0.721
				c0.459,0.479,0.69,1.12,0.69,1.92v3.924h-1.8v-3.648c0-0.991-0.364-1.487-1.092-1.487c-0.36,0-0.674,0.13-0.942,0.39
				C51.696,38.346,51.562,38.729,51.562,39.232z"/>
			<path d="M66.514,42.832h-1.692v-0.78c-0.464,0.584-1.038,0.876-1.722,0.876s-1.258-0.197-1.722-0.594
				c-0.464-0.396-0.696-0.924-0.696-1.584s0.24-1.154,0.72-1.482c0.48-0.327,1.136-0.491,1.968-0.491h1.344V38.74
				c0-0.688-0.364-1.032-1.092-1.032c-0.312,0-0.642,0.062-0.99,0.186c-0.348,0.125-0.642,0.278-0.882,0.463l-0.804-1.164
				c0.848-0.616,1.816-0.925,2.904-0.925c0.784,0,1.424,0.196,1.92,0.589c0.496,0.392,0.744,1.012,0.744,1.859V42.832z
				 M64.702,40.372V40.06h-1.128c-0.72,0-1.08,0.225-1.08,0.673c0,0.231,0.086,0.41,0.258,0.533
				c0.172,0.125,0.417,0.187,0.738,0.187c0.32,0,0.602-0.098,0.846-0.294C64.58,40.962,64.702,40.7,64.702,40.372z"/>
			<path d="M73.583,42.832h-1.8v-8.904h1.8V42.832z"/>
		</g>
		<g>
			<path d="M114.826,4.858v7.29H99.921v6.318c1.116-0.324,2.394-0.486,3.834-0.486c3.636,0,6.768,1.099,9.396,3.294
				c2.627,2.196,3.942,5.157,3.942,8.883c0,3.727-1.359,6.805-4.077,9.234c-2.719,2.43-6.075,3.645-10.071,3.645
				c-5.112,0-9.378-1.89-12.798-5.67l4.428-6.155c0.324,0.323,0.756,0.72,1.296,1.188c0.54,0.469,1.53,1.089,2.97,1.863
				c1.439,0.774,2.88,1.161,4.32,1.161c1.439,0,2.718-0.433,3.834-1.296c1.115-0.864,1.674-2.142,1.674-3.834
				s-0.603-2.997-1.809-3.915c-1.207-0.918-2.763-1.377-4.671-1.377c-1.909,0-4.123,0.684-6.642,2.052l-3.51-3.78V4.858H114.826z"/>
		</g>
	</g>
	<g>
		<g>
			<path d="M565.234,17.254c0.854,0,1.588-0.144,2.205-0.431c0.615-0.286,1.26-0.745,1.932-1.375l1.596,1.638
				c-1.554,1.722-3.44,2.583-5.659,2.583c-2.22,0-4.06-0.714-5.522-2.142c-1.464-1.429-2.195-3.234-2.195-5.418
				c0-2.185,0.746-4.004,2.236-5.46c1.491-1.456,3.374-2.185,5.649-2.185c2.274,0,4.175,0.84,5.702,2.521l-1.576,1.722
				c-0.699-0.672-1.361-1.141-1.984-1.407c-0.623-0.266-1.354-0.398-2.194-0.398c-1.483,0-2.729,0.479-3.737,1.438
				s-1.513,2.184-1.513,3.675s0.501,2.737,1.501,3.738C562.676,16.754,563.861,17.254,565.234,17.254z"/>
			<path d="M583.756,19.501h-2.143V18.01c-0.924,1.106-2.162,1.659-3.717,1.659c-1.162,0-2.124-0.329-2.887-0.987
				c-0.764-0.657-1.145-1.536-1.145-2.635c0-1.1,0.406-1.922,1.218-2.468s1.911-0.819,3.297-0.819h3.045v-0.42
				c0-1.483-0.826-2.226-2.478-2.226c-1.037,0-2.114,0.378-3.234,1.134l-1.05-1.47c1.357-1.078,2.897-1.617,4.62-1.617
				c1.315,0,2.391,0.333,3.223,0.997c0.834,0.665,1.25,1.712,1.25,3.14V19.501z M581.404,15.343v-0.944h-2.646
				c-1.693,0-2.541,0.532-2.541,1.596c0,0.546,0.21,0.963,0.63,1.249c0.421,0.287,1.005,0.431,1.754,0.431s1.403-0.21,1.964-0.63
				C581.123,16.624,581.404,16.057,581.404,15.343z"/>
			<path d="M590.434,13.453v6.048h-2.352V8.329h2.352v2.037c0.336-0.686,0.844-1.226,1.523-1.617
				c0.678-0.392,1.41-0.588,2.193-0.588c1.765,0,2.961,0.728,3.592,2.184c1.105-1.456,2.484-2.184,4.137-2.184
				c1.26,0,2.278,0.385,3.056,1.155c0.776,0.77,1.165,1.883,1.165,3.339v6.846h-2.352v-6.132c0-2.059-0.854-3.087-2.562-3.087
				c-0.798,0-1.494,0.255-2.09,0.767c-0.595,0.511-0.906,1.257-0.934,2.236v6.216h-2.352v-6.132c0-1.063-0.189-1.845-0.568-2.342
				c-0.377-0.497-0.973-0.745-1.784-0.745c-0.812,0-1.52,0.27-2.121,0.809C590.734,11.63,590.434,12.417,590.434,13.453z"/>
			<path d="M619.477,19.501h-2.143V18.01c-0.924,1.106-2.162,1.659-3.717,1.659c-1.162,0-2.124-0.329-2.887-0.987
				c-0.764-0.657-1.145-1.536-1.145-2.635c0-1.1,0.406-1.922,1.218-2.468s1.911-0.819,3.297-0.819h3.045v-0.42
				c0-1.483-0.826-2.226-2.478-2.226c-1.037,0-2.114,0.378-3.234,1.134l-1.05-1.47c1.357-1.078,2.897-1.617,4.62-1.617
				c1.315,0,2.391,0.333,3.223,0.997c0.834,0.665,1.25,1.712,1.25,3.14V19.501z M617.125,15.343v-0.944h-2.646
				c-1.693,0-2.541,0.532-2.541,1.596c0,0.546,0.21,0.963,0.63,1.249c0.421,0.287,1.005,0.431,1.754,0.431s1.403-0.21,1.964-0.63
				C616.844,16.624,617.125,16.057,617.125,15.343z"/>
			<path d="M629.662,10.534c-1.162,0-2.037,0.378-2.625,1.134s-0.883,1.771-0.883,3.045v4.788h-2.352V8.329h2.352v2.247
				c0.379-0.7,0.893-1.274,1.544-1.723c0.651-0.447,1.341-0.679,2.068-0.692l0.021,2.373
				C629.746,10.534,629.703,10.534,629.662,10.534z"/>
			<path d="M642.135,19.501h-2.142V18.01c-0.924,1.106-2.163,1.659-3.717,1.659c-1.162,0-2.124-0.329-2.888-0.987
				c-0.764-0.657-1.145-1.536-1.145-2.635c0-1.1,0.406-1.922,1.219-2.468c0.811-0.546,1.91-0.819,3.297-0.819h3.045v-0.42
				c0-1.483-0.826-2.226-2.479-2.226c-1.036,0-2.113,0.378-3.234,1.134l-1.049-1.47c1.357-1.078,2.897-1.617,4.619-1.617
				c1.316,0,2.391,0.333,3.224,0.997c0.833,0.665,1.249,1.712,1.249,3.14V19.501z M639.783,15.343v-0.944h-2.646
				c-1.693,0-2.541,0.532-2.541,1.596c0,0.546,0.211,0.963,0.631,1.249c0.42,0.287,1.004,0.431,1.754,0.431
				c0.748,0,1.402-0.21,1.963-0.63C639.503,16.624,639.783,16.057,639.783,15.343z"/>
			<path d="M654.126,18.073c-1.05-1.064-1.575-2.464-1.575-4.2s0.539-3.122,1.617-4.158s2.362-1.554,3.854-1.554
				s2.691,0.63,3.602,1.89V3.919h2.352v15.582h-2.352v-1.68c-0.868,1.231-2.135,1.848-3.801,1.848
				C656.408,19.669,655.176,19.137,654.126,18.073z M654.902,13.968c0,1.07,0.344,1.942,1.029,2.614s1.491,1.008,2.416,1.008
				c0.924,0,1.707-0.339,2.352-1.019c0.644-0.679,0.966-1.55,0.966-2.614c0-1.063-0.322-1.953-0.966-2.667
				c-0.645-0.714-1.436-1.071-2.373-1.071c-0.938,0-1.743,0.357-2.415,1.071C655.238,12.004,654.902,12.896,654.902,13.968z"/>
			<path d="M678.822,14.944h-8.758c0.057,0.812,0.428,1.467,1.113,1.963c0.686,0.497,1.47,0.746,2.352,0.746
				c1.4,0,2.465-0.441,3.192-1.323l1.344,1.47c-1.204,1.246-2.772,1.869-4.704,1.869c-1.568,0-2.901-0.521-4-1.564
				c-1.1-1.043-1.648-2.443-1.648-4.2s0.56-3.153,1.68-4.189s2.439-1.554,3.959-1.554c1.519,0,2.811,0.459,3.874,1.375
				c1.063,0.917,1.597,2.181,1.597,3.791V14.944z M670.064,13.096h6.405c0-0.938-0.294-1.659-0.882-2.163s-1.312-0.756-2.174-0.756
				s-1.635,0.263-2.32,0.788C670.408,11.489,670.064,12.2,670.064,13.096z"/>
		</g>
	</g>
	<g>
		<path d="M576.338,30.728c2.133,1.952,3.2,4.667,3.2,8.145s-1.04,6.229-3.12,8.256c-2.08,2.027-5.254,3.04-9.52,3.04h-7.648V27.8
			h7.904C571.143,27.8,574.205,28.776,576.338,30.728z M572.674,44.024c1.227-1.152,1.84-2.827,1.84-5.024s-0.613-3.888-1.84-5.072
			c-1.227-1.184-3.109-1.775-5.648-1.775h-2.783v13.6h3.168C569.692,45.752,571.447,45.176,572.674,44.024z"/>
		<path d="M585.186,30.76c-0.543-0.544-0.815-1.21-0.815-2c0-0.789,0.272-1.456,0.815-2c0.545-0.544,1.211-0.815,2-0.815
			s1.457,0.271,2,0.815c0.545,0.544,0.816,1.211,0.816,2c0,0.79-0.271,1.456-0.816,2c-0.543,0.544-1.211,0.816-2,0.816
			S585.73,31.304,585.186,30.76z M589.586,50.168h-4.8V32.952h4.8V50.168z"/>
		<path d="M605.746,32.664c2.005,0,3.792,0.838,5.359,2.512c1.568,1.675,2.353,3.781,2.353,6.32s-0.784,4.661-2.353,6.368
			c-1.567,1.707-3.402,2.56-5.504,2.56s-3.791-0.843-5.072-2.528v8.48h-4.799V32.952h4.799v1.92
			C602.002,33.4,603.74,32.664,605.746,32.664z M600.466,41.576c0,1.397,0.39,2.539,1.168,3.424
			c0.778,0.886,1.723,1.328,2.832,1.328s2.08-0.442,2.912-1.328c0.832-0.885,1.248-2.021,1.248-3.408s-0.405-2.549-1.216-3.488
			c-0.811-0.938-1.781-1.407-2.912-1.407s-2.086,0.464-2.864,1.392S600.466,40.179,600.466,41.576z"/>
		<path d="M629.745,42.232v-9.28h4.832v17.216h-4.832v-2.272c-1.194,1.686-2.735,2.528-4.624,2.528s-3.473-0.592-4.752-1.775
			c-1.279-1.185-1.92-2.939-1.92-5.265V32.952h4.832v9.376c0,2.646,0.971,3.968,2.912,3.968c0.96,0,1.792-0.347,2.496-1.04
			C629.393,44.562,629.745,43.555,629.745,42.232z"/>
		<path d="M646.449,36.408v7.712c0,0.661,0.17,1.179,0.512,1.552c0.342,0.374,0.746,0.561,1.217,0.561
			c0.896,0,1.652-0.405,2.271-1.217l1.792,3.36c-1.493,1.365-3.067,2.048-4.72,2.048c-1.654,0-3.051-0.544-4.192-1.632
			s-1.712-2.57-1.712-4.448v-7.936h-2.016v-3.456h2.016V27.8h4.832v5.152h4.16v3.456H646.449z"/>
		<path d="M671.025,50.168h-4.513v-2.08c-1.237,1.558-2.768,2.336-4.592,2.336s-3.354-0.528-4.592-1.584s-1.856-2.464-1.856-4.224
			s0.641-3.077,1.92-3.952c1.28-0.875,3.029-1.312,5.248-1.312h3.584v-0.096c0-1.834-0.971-2.752-2.912-2.752
			c-0.832,0-1.711,0.166-2.64,0.496c-0.928,0.331-1.712,0.741-2.353,1.232l-2.144-3.104c2.261-1.643,4.843-2.464,7.744-2.464
			c2.091,0,3.797,0.522,5.12,1.568c1.322,1.045,1.984,2.698,1.984,4.96V50.168z M666.193,43.608v-0.832h-3.008
			c-1.92,0-2.881,0.597-2.881,1.792c0,0.618,0.229,1.093,0.688,1.424s1.115,0.496,1.969,0.496s1.605-0.262,2.256-0.784
			S666.193,44.483,666.193,43.608z"/>
		<path d="M683.904,50.424c-2.037,0-3.855-0.864-5.455-2.592c-1.601-1.729-2.4-3.872-2.4-6.432c0-2.561,0.778-4.656,2.336-6.288
			c1.557-1.633,3.381-2.448,5.473-2.448c2.09,0,3.797,0.736,5.119,2.208v-8.448h4.801v23.744h-4.801v-2.272
			C687.633,49.581,685.941,50.424,683.904,50.424z M680.881,41.592c0,1.387,0.416,2.523,1.248,3.408
			c0.832,0.886,1.803,1.328,2.912,1.328s2.053-0.442,2.832-1.328c0.778-0.885,1.168-2.026,1.168-3.424s-0.39-2.561-1.168-3.488
			c-0.779-0.928-1.734-1.392-2.864-1.392c-1.131,0-2.102,0.469-2.912,1.407C681.285,39.043,680.881,40.205,680.881,41.592z"/>
		<path d="M717.137,41.56c0,2.496-0.864,4.598-2.592,6.305c-1.729,1.707-3.899,2.56-6.513,2.56s-4.784-0.853-6.512-2.56
			s-2.593-3.809-2.593-6.305c0-2.495,0.865-4.603,2.593-6.319s3.898-2.576,6.512-2.576s4.784,0.859,6.513,2.576
			C716.272,36.957,717.137,39.064,717.137,41.56z M703.76,41.56c0,1.408,0.4,2.556,1.201,3.44c0.799,0.886,1.824,1.328,3.071,1.328
			c1.248,0,2.272-0.442,3.072-1.328c0.8-0.885,1.2-2.032,1.2-3.44c0-1.407-0.4-2.56-1.2-3.456c-0.8-0.896-1.824-1.344-3.072-1.344
			c-1.247,0-2.272,0.448-3.071,1.344C704.16,39,703.76,40.152,703.76,41.56z"/>
		<path d="M735.088,44.808c0,1.696-0.624,3.057-1.872,4.08c-1.248,1.024-2.832,1.536-4.752,1.536c-1.28,0-2.613-0.229-4-0.688
			c-1.387-0.459-2.635-1.137-3.744-2.032l2.112-3.008c1.792,1.387,3.701,2.08,5.729,2.08c0.617,0,1.108-0.123,1.471-0.368
			c0.363-0.245,0.545-0.57,0.545-0.977c0-0.404-0.251-0.778-0.752-1.12c-0.502-0.341-1.227-0.66-2.176-0.96
			c-0.95-0.298-1.676-0.554-2.176-0.768c-0.502-0.213-1.072-0.522-1.713-0.928c-1.301-0.811-1.951-2.011-1.951-3.601
			c0-1.589,0.639-2.885,1.92-3.888c1.279-1.003,2.933-1.504,4.959-1.504c2.027,0,4.053,0.683,6.08,2.048l-1.791,3.2
			c-1.494-1.024-2.982-1.536-4.465-1.536s-2.224,0.405-2.224,1.216c0,0.448,0.234,0.8,0.704,1.057
			c0.469,0.256,1.248,0.555,2.336,0.896c1.088,0.342,1.861,0.603,2.32,0.784c0.458,0.182,1.008,0.464,1.647,0.848
			C734.49,41.901,735.088,43.112,735.088,44.808z"/>
	</g>
	<g>
		<line x1="530.498" y1="16.75" x2="530.498" y2="76.75"/>
		<rect x="529.998" y="16.75" width="1" height="60"/>
	</g>
	<g>
		<g>
			<path d="M392.724,9.368v18.048h-4.992V9.368h-6.336v-4.32h17.664v4.32H392.724z"/>
			<path d="M424.115,24.328c-2.262,2.208-5.045,3.312-8.352,3.312s-6.092-1.104-8.353-3.312s-3.392-4.955-3.392-8.24
				s1.131-6.032,3.392-8.24s5.046-3.312,8.353-3.312s6.09,1.104,8.352,3.312s3.393,4.955,3.393,8.24S426.377,22.12,424.115,24.328z
				 M422.42,16.104c0-1.995-0.641-3.696-1.92-5.104c-1.281-1.408-2.854-2.112-4.721-2.112S412.34,9.592,411.06,11
				s-1.921,3.109-1.921,5.104c0,1.994,0.641,3.69,1.921,5.088s2.853,2.096,4.72,2.096s3.439-0.698,4.721-2.096
				C421.779,19.795,422.42,18.099,422.42,16.104z"/>
			<path d="M450.339,7.048c1.567,1.334,2.353,3.382,2.353,6.145s-0.807,4.783-2.416,6.063c-1.611,1.28-4.07,1.92-7.377,1.92h-2.976
				v6.24h-4.992V5.048h7.903C446.27,5.048,448.771,5.715,450.339,7.048z M446.675,15.848c0.597-0.672,0.896-1.652,0.896-2.943
				s-0.389-2.208-1.168-2.752s-1.989-0.816-3.632-0.816h-2.848v7.521h3.36C444.947,16.856,446.077,16.52,446.675,15.848z"/>
		</g>
		<g>
			<path d="M387.129,40.822c0,0.636-0.234,1.146-0.703,1.529c-0.467,0.385-1.061,0.576-1.781,0.576c-0.48,0-0.98-0.086-1.5-0.258
				s-0.988-0.426-1.404-0.762l0.793-1.128c0.672,0.52,1.387,0.779,2.147,0.779c0.231,0,0.415-0.046,0.552-0.138
				s0.204-0.214,0.204-0.366c0-0.151-0.095-0.292-0.282-0.42s-0.46-0.248-0.816-0.359c-0.355-0.112-0.627-0.208-0.815-0.288
				s-0.401-0.196-0.642-0.349c-0.488-0.304-0.732-0.754-0.732-1.35s0.24-1.082,0.721-1.458c0.479-0.376,1.1-0.564,1.859-0.564
				s1.52,0.257,2.279,0.769l-0.672,1.2c-0.56-0.385-1.117-0.576-1.674-0.576c-0.556,0-0.834,0.152-0.834,0.456
				c0,0.168,0.088,0.3,0.264,0.396c0.177,0.097,0.469,0.208,0.877,0.336c0.408,0.129,0.697,0.227,0.869,0.294
				c0.172,0.068,0.379,0.175,0.619,0.318C386.904,39.732,387.129,40.186,387.129,40.822z"/>
			<path d="M397.641,41.896c-0.729,0.688-1.582,1.031-2.562,1.031s-1.79-0.302-2.43-0.905c-0.641-0.604-0.96-1.414-0.96-2.431
				c0-1.016,0.325-1.824,0.978-2.424s1.422-0.9,2.311-0.9c0.888,0,1.642,0.269,2.262,0.805s0.93,1.271,0.93,2.208v0.96h-4.703
				c0.055,0.352,0.239,0.64,0.551,0.864c0.312,0.224,0.664,0.336,1.057,0.336c0.632,0,1.152-0.212,1.561-0.637L397.641,41.896z
				 M395.912,38.068c-0.248-0.208-0.55-0.312-0.906-0.312c-0.355,0-0.682,0.108-0.978,0.324s-0.468,0.508-0.517,0.876h2.832
				C396.305,38.572,396.16,38.276,395.912,38.068z"/>
			<path d="M409.046,39.352v3.48h-1.812v-3.528c0-0.512-0.078-0.888-0.234-1.128s-0.408-0.359-0.756-0.359s-0.656,0.13-0.924,0.39
				c-0.269,0.26-0.402,0.642-0.402,1.146v3.48h-1.8v-6.456h1.8v0.732c0.496-0.561,1.064-0.841,1.704-0.841
				c0.408,0,0.778,0.12,1.11,0.36s0.582,0.532,0.75,0.876c0.248-0.392,0.582-0.696,1.002-0.912s0.842-0.324,1.266-0.324
				c0.76,0,1.372,0.227,1.836,0.679s0.696,1.105,0.696,1.962v3.924h-1.812v-3.528c0-0.991-0.365-1.487-1.093-1.487
				c-0.36,0-0.672,0.13-0.937,0.39C409.178,38.466,409.046,38.848,409.046,39.352z"/>
			<path d="M423.998,42.832h-1.691v-0.78c-0.465,0.584-1.039,0.876-1.723,0.876s-1.258-0.197-1.722-0.594
				c-0.464-0.396-0.696-0.924-0.696-1.584s0.24-1.154,0.721-1.482c0.479-0.327,1.135-0.491,1.967-0.491h1.345V38.74
				c0-0.688-0.364-1.032-1.093-1.032c-0.312,0-0.642,0.062-0.989,0.186c-0.349,0.125-0.642,0.278-0.882,0.463l-0.805-1.164
				c0.848-0.616,1.816-0.925,2.904-0.925c0.784,0,1.424,0.196,1.92,0.589c0.496,0.392,0.744,1.012,0.744,1.859V42.832z
				 M422.186,40.372V40.06h-1.127c-0.721,0-1.08,0.225-1.08,0.673c0,0.231,0.086,0.41,0.258,0.533
				c0.172,0.125,0.418,0.187,0.738,0.187c0.319,0,0.602-0.098,0.846-0.294S422.186,40.7,422.186,40.372z"/>
			<path d="M431.061,39.232v3.6h-1.801v-6.456h1.801v0.72c0.543-0.552,1.156-0.828,1.836-0.828s1.25,0.24,1.71,0.721
				c0.46,0.479,0.69,1.12,0.69,1.92v3.924h-1.801v-3.648c0-0.991-0.364-1.487-1.092-1.487c-0.359,0-0.674,0.13-0.941,0.39
				C431.193,38.346,431.061,38.729,431.061,39.232z"/>
			<path d="M446.012,42.832h-1.691v-0.78c-0.465,0.584-1.039,0.876-1.723,0.876s-1.258-0.197-1.722-0.594
				c-0.464-0.396-0.696-0.924-0.696-1.584s0.24-1.154,0.721-1.482c0.479-0.327,1.135-0.491,1.967-0.491h1.345V38.74
				c0-0.688-0.364-1.032-1.093-1.032c-0.312,0-0.642,0.062-0.989,0.186c-0.349,0.125-0.642,0.278-0.882,0.463l-0.805-1.164
				c0.848-0.616,1.816-0.925,2.904-0.925c0.784,0,1.424,0.196,1.92,0.589c0.496,0.392,0.744,1.012,0.744,1.859V42.832z
				 M444.199,40.372V40.06h-1.127c-0.721,0-1.08,0.225-1.08,0.673c0,0.231,0.086,0.41,0.258,0.533
				c0.172,0.125,0.418,0.187,0.738,0.187c0.319,0,0.602-0.098,0.846-0.294S444.199,40.7,444.199,40.372z"/>
			<path d="M453.081,42.832h-1.8v-8.904h1.8V42.832z"/>
		</g>
		<g>
			<path d="M494.324,4.858v7.29H479.42v6.318c1.115-0.324,2.393-0.486,3.834-0.486c3.635,0,6.768,1.099,9.396,3.294
				c2.628,2.196,3.942,5.157,3.942,8.883c0,3.727-1.359,6.805-4.077,9.234c-2.719,2.43-6.075,3.645-10.071,3.645
				c-5.112,0-9.378-1.89-12.798-5.67l4.429-6.155c0.323,0.323,0.756,0.72,1.295,1.188c0.541,0.469,1.53,1.089,2.971,1.863
				c1.439,0.774,2.879,1.161,4.32,1.161c1.439,0,2.717-0.433,3.834-1.296c1.115-0.864,1.674-2.142,1.674-3.834
				s-0.604-2.997-1.81-3.915s-2.763-1.377-4.671-1.377s-4.123,0.684-6.643,2.052l-3.51-3.78V4.858H494.324z"/>
		</g>
	</g>
</g>
<g id="Layer_2">
</g>
</svg>
